<svg xmlns="http://www.w3.org/2000/svg" xmlns:xlink="http://www.w3.org/1999/xlink" viewBox="0 0 79.45 22.18"><defs><style>.cls-1{fill:#323333;}.cls-2{fill:#040000;}.cls-3{fill:url(#linear-gradient);}.cls-4{fill:#191919;}</style><linearGradient id="linear-gradient" x1="41.37" y1="0.3" x2="41.37" y2="15.53" gradientUnits="userSpaceOnUse"><stop offset="0" stop-color="#fff"/><stop offset="0.09" stop-color="#f8f8f8"/><stop offset="0.22" stop-color="#e4e3e3"/><stop offset="0.37" stop-color="#c3c2c2"/><stop offset="0.55" stop-color="#969494"/><stop offset="0.75" stop-color="#5b5959"/><stop offset="0.95" stop-color="#151212"/><stop offset="1" stop-color="#040000"/></linearGradient></defs><title>アセット 1</title><g id="レイヤー_2" data-name="レイヤー 2"><g id="レイヤー_1-2" data-name="レイヤー 1"><path class="cls-1" d="M77.11,18.53a1,1,0,1,1,1-1,1,1,0,0,1-1,1v.18a1.18,1.18,0,1,0-1.18-1.18,1.18,1.18,0,0,0,1.18,1.18Z"/><path class="cls-1" d="M61.29,13.09l1.75-4,2.06.24-3,6.18-2-.23-.62-4.3h0l-2,4-2-.23L54.41,8.05l2.21.26L57,12.48l1.9-3.91,1.8.21Z"/><path class="cls-1" d="M49.74,7.5a3.7,3.7,0,1,1-4,3.69A3.74,3.74,0,0,1,49.74,7.5Zm0,5.44A1.75,1.75,0,1,0,48,11.18,1.74,1.74,0,0,0,49.74,12.94Z"/><path class="cls-1" d="M33.21,7.5a3.69,3.69,0,1,1-3.8,3.69A3.65,3.65,0,0,1,33.21,7.5Zm0,5.44a1.75,1.75,0,1,0-1.69-1.75A1.7,1.7,0,0,0,33.21,12.93Z"/><path class="cls-1" d="M72,15.42a4.07,4.07,0,0,1-1.87,1.35A3.93,3.93,0,0,1,65,12.47a3.9,3.9,0,0,1,7.56,1.85,2.6,2.6,0,0,1-.18.51L67,13.56a1.63,1.63,0,0,0,1.39,1.65,1.61,1.61,0,0,0,1.46-.31ZM70.56,13a1.79,1.79,0,0,0-3.27-.77Z"/><path class="cls-1" d="M77.68,13.9a1.64,1.64,0,0,0-2,1.14l-1,3-2-.65.93-2.89a3.58,3.58,0,0,1,4.65-2.3l1.21.39-.54,1.67Z"/><path class="cls-1" d="M18.14,15.93l-2,.35L14.94,9.53l2-.35Z"/><path class="cls-1" d="M11,10a3.62,3.62,0,1,1,0,7.23A3.62,3.62,0,1,1,11,10Zm0,5.33a1.72,1.72,0,1,0-1.66-1.72A1.67,1.67,0,0,0,11,15.34Z"/><path class="cls-1" d="M29.21,7.9l-2.89,8.9L24,16.91l.87-2.42L22,8.49l2.33-.26,1.57,3.93h0L27,8Z"/><polygon class="cls-1" points="4.17 18.89 2.63 14.05 0.54 14.71 0 13.02 6.35 11 6.89 12.69 4.8 13.36 6.34 18.2 4.17 18.89"/><path class="cls-1" d="M77.38,17.58a.3.3,0,0,0,.27-.32c0-.27-.25-.34-.43-.34h-.56v1.24h.18V17.09h.38c.12,0,.24,0,.24.21s-.12.19-.24.2h-.39v.16h.34c.25,0,.24.23.24.35a.32.32,0,0,0,.06.16h.21c-.06,0-.08-.14-.08-.29C77.59,17.87,77.58,17.58,77.38,17.58Z"/><polygon class="cls-1" points="20.1 12.21 21.73 8.49 19.4 8.86 17.81 12.65 20.93 15.53 23.39 15.17 20.1 12.21"/><polygon class="cls-2" points="43.48 14.43 43.48 3.31 46.64 3.31 46.64 0 36.11 0 36.11 3.31 39.27 3.31 39.27 14.43 43.48 14.43"/><polygon class="cls-3" points="41.38 0 43.48 14.43 39.27 14.43 41.38 0 41.38 0"/><circle class="cls-4" cx="7.06" cy="6.74" r="1.07" transform="translate(0.28 13.75) rotate(-89.61)"/><circle class="cls-4" cx="18.02" cy="4.97" r="1.07" transform="translate(12.93 22.95) rotate(-89.6)"/><circle class="cls-4" cx="28.94" cy="4.09" r="1.07" transform="translate(24.65 33.01) rotate(-89.61)"/><circle class="cls-4" cx="53.83" cy="4.07" r="1.07"/><circle class="cls-4" cx="64.76" cy="5.47" r="1.07"/><circle class="cls-4" cx="75.69" cy="7.75" r="1.07"/><path class="cls-1" d="M17.56,21.43V18.85H17v-.4h1.58v.4H18v2.59Z"/><path class="cls-1" d="M20.68,21.43V20.22c0-.17,0-.7-.56-.7-.35,0-.59.25-.59.69v1.22h-.42v-3h.42v1h0a.73.73,0,0,1,.63-.3.91.91,0,0,1,.79.4,1.09,1.09,0,0,1,.14.57v1.32Z"/><path class="cls-1" d="M22,20.5a.76.76,0,0,0,.73.61.71.71,0,0,0,.64-.37h.42a1.14,1.14,0,0,1-1.07.76,1.17,1.17,0,0,1-1.14-1.18,1.14,1.14,0,1,1,2.28,0c0,.07,0,.19,0,.21Zm1.44-.32a.73.73,0,0,0-1.44,0Z"/><path class="cls-1" d="M25.81,18.45h.77a.81.81,0,0,1,.93.83.68.68,0,0,1-.27.56.8.8,0,0,1,.44.73.87.87,0,0,1-1,.87h-.89Zm.44,1.24h.35c.41,0,.48-.25.48-.42,0-.42-.41-.42-.5-.42h-.33Zm0,1.34h.47a.48.48,0,0,0,.54-.47.5.5,0,0,0-.1-.29.55.55,0,0,0-.49-.18h-.42Z"/><path class="cls-1" d="M28.6,20.5a.76.76,0,0,0,.73.61.71.71,0,0,0,.64-.37h.42a1.14,1.14,0,0,1-1.07.76,1.17,1.17,0,0,1-1.14-1.18,1.14,1.14,0,1,1,2.28,0c0,.07,0,.19,0,.21ZM30,20.17a.73.73,0,0,0-1.44,0Z"/><path class="cls-1" d="M31.93,19.79a.27.27,0,0,0-.29-.27.24.24,0,0,0-.26.24c0,.19.16.23.35.29s.67.19.67.73a.7.7,0,0,1-.75.71.77.77,0,0,1-.79-.79h.42c0,.25.15.41.38.41A.3.3,0,0,0,32,20.8c0-.2-.17-.27-.39-.34s-.63-.2-.63-.67a.67.67,0,0,1,.7-.65.66.66,0,0,1,.69.65Z"/><path class="cls-1" d="M33.48,21.43h-.42V19.58h-.3V19.2h.3v-.75h.42v.75h.37v.38h-.37Z"/><path class="cls-1" d="M37.7,19.21a1.09,1.09,0,0,0-.84-.42,1.12,1.12,0,0,0-1.11,1.14,1.14,1.14,0,0,0,1.1,1.16,1.08,1.08,0,0,0,.81-.4h.54a1.54,1.54,0,0,1-1.36.79,1.56,1.56,0,0,1-1.53-1.56,1.53,1.53,0,0,1,1.54-1.54,1.59,1.59,0,0,1,.91.29,1.5,1.5,0,0,1,.46.53Z"/><path class="cls-1" d="M39.18,18.94h-.42v-.49h.42Zm0,2.49h-.42V19.2h.42Z"/><path class="cls-1" d="M40.44,21.43H40V19.58h-.3V19.2H40v-.75h.42v.75h.37v.38h-.37Z"/><path class="cls-1" d="M42,22.18H41.6l.33-.79L41,19.2h.45l.66,1.73.67-1.73h.45Z"/><path class="cls-1" d="M44.93,21.43v-3h.44V21h1v.4Z"/><path class="cls-1" d="M48.68,21.43v-.35h0a.86.86,0,0,1-.76.4,1.18,1.18,0,1,1,0-2.35.89.89,0,0,1,.76.38h0V19.2h.42v2.23Zm-.77-1.91a.79.79,0,1,0,.77.8A.76.76,0,0,0,47.92,19.52Z"/><path class="cls-1" d="M51.38,21.43V20.22c0-.17,0-.7-.56-.7-.35,0-.59.25-.59.69v1.22h-.42V19.2h.39v.24h0a.79.79,0,0,1,.65-.3.91.91,0,0,1,.79.4,1.09,1.09,0,0,1,.14.57v1.32Z"/><path class="cls-1" d="M54.27,21.43v-.32h0a.94.94,0,0,1-.79.37,1.18,1.18,0,0,1,0-2.35,1,1,0,0,1,.76.33h0v-1h.42v3Zm-.77-1.91a.79.79,0,1,0,.77.8A.76.76,0,0,0,53.5,19.52Z"/><path class="cls-1" d="M58.41,21.43V20.19c0-.19,0-.67-.53-.67s-.53.48-.53.67v1.25h-.42V20.19a.76.76,0,0,0-.09-.46.47.47,0,0,0-.42-.21c-.55,0-.55.5-.55.67v1.25h-.42V19.2h.39v.24h0a.73.73,0,0,1,.64-.3.77.77,0,0,1,.69.38.77.77,0,0,1,.74-.38.85.85,0,0,1,.79.4,1.11,1.11,0,0,1,.12.54v1.35Z"/><path class="cls-1" d="M61.3,21.43v-.35h0a.85.85,0,0,1-.76.4,1.18,1.18,0,1,1,0-2.35.88.88,0,0,1,.76.38h0V19.2h.42v2.23Zm-.77-1.91a.79.79,0,1,0,.77.8A.76.76,0,0,0,60.53,19.52Z"/><path class="cls-1" d="M62.43,21.43V19.2h.39v.2h0a.69.69,0,0,1,.57-.26v.43a.79.79,0,0,0-.3.08.59.59,0,0,0-.25.56v1.22Z"/><path class="cls-1" d="M65.65,19.2l-.81,1.05.94,1.18h-.52l-.9-1.16h0v1.16h-.42v-3h.42v1.83h0l.79-1.08Z"/></g></g></svg>