<?xml version="1.0" encoding="utf-8"?>
<!-- Generator: Adobe Illustrator 21.1.0, SVG Export Plug-In . SVG Version: 6.00 Build 0)  -->
<svg version="1.1" id="レイヤー_1" xmlns="http://www.w3.org/2000/svg" xmlns:xlink="http://www.w3.org/1999/xlink" x="0px"
	 y="0px" viewBox="0 0 231 125" style="enable-background:new 0 0 231 125;" xml:space="preserve">
<style type="text/css">
	.st0{fill:#7A7A7A;}
	.st1{fill:none;stroke:#7A7A7A;stroke-width:0.7755;stroke-miterlimit:10;}
	.st2{fill:none;stroke:#7A7A7A;stroke-width:0.8128;stroke-miterlimit:10;}
	.st3{fill:#A3A3A3;}
	.st4{fill:#424242;}
</style>
<g>
	<g>
		<path class="st0" d="M230,1v123H1V1H230 M231,0H0v125h231V0L231,0z"/>
	</g>
	<rect x="68.4" y="41.9" class="st1" width="92.6" height="39.7"/>
	<g>
		<g>
			<path class="st0" d="M105.3,57.5v18.9h18.9V57.5H105.3z M122.3,74.6h-15.2V59.5h15.2V74.6z"/>
		</g>
		<g>
			<g>
				<circle class="st0" cx="110.1" cy="62.9" r="0.9"/>
			</g>
			<g>
				<path class="st0" d="M108.8,68.7h-0.6l-0.2-3.5c0,0,0.3-1.2,1.2-1.2h1.8c0,0,1.2,0.3,1.2,1.2v3.5h-0.8l0.1,4.9h-0.9l-0.4-4.8
					l-0.5,4.8h-0.9L108.8,68.7z"/>
			</g>
		</g>
		<g>
			<g>
				<circle class="st0" cx="114.8" cy="62.9" r="0.9"/>
			</g>
			<g>
				<path class="st0" d="M113.5,68.7h-0.6l-0.2-3.5c0,0,0.3-1.2,1.2-1.2h1.8c0,0,1.2,0.3,1.2,1.2v3.5h-0.8l0.1,4.9h-0.9l-0.4-4.8
					l-0.5,4.8h-0.9L113.5,68.7z"/>
			</g>
		</g>
		<g>
			<g>
				<circle class="st0" cx="119.5" cy="62.9" r="0.9"/>
			</g>
			<g>
				<path class="st0" d="M118.3,68.7h-0.6l-0.2-3.5c0,0,0.3-1.2,1.2-1.2h1.8c0,0,1.2,0.3,1.2,1.2v3.5h-0.8l0.1,4.9H120l-0.4-4.8
					l-0.5,4.8h-0.9L118.3,68.7z"/>
			</g>
		</g>
		<g>
			<polygon class="st0" points="105.5,50 105.5,52.4 109.8,56.8 114.2,52.3 114.2,50 110.8,53.7 110.8,46.3 109,46.3 109,53.7 			
				"/>
		</g>
		<g>
			<polygon class="st0" points="124.1,52.8 124.1,50.4 119.8,46 115.4,50.5 115.4,52.8 118.9,49.1 118.9,56.5 120.7,56.5 
				120.7,49.1 			"/>
		</g>
	</g>
	<g>
		<polygon class="st2" points="58.9,90.5 58.9,77.1 45.4,77.1 45.4,60 25.9,60 25.9,77.1 25.9,90.5 25.9,103.1 45.4,103.1 
			58.9,103.1 70.7,103.1 70.7,90.5 		"/>
		<g>
			<path class="st0" d="M41.6,83.4v-1.3c0,0-0.2-1.9-2.3-1.9s-2.2,2.1-2.2,2.1v1.1H34v1.9h1v-1h8.5v9.5H39v0.9h5.7V83.4H41.6z
				 M38.1,82.3c0,0,0.2-1.1,1.3-1.1c0,0,1.3,0,1.3,1v1.2h-2.5V82.3z"/>
			<g>
				<polygon class="st0" points="34.1,88.5 32.4,87.4 32.8,86.8 34.4,87.6 33.7,86.1 34.5,85.8 35.2,87.6 35.8,85.8 36.6,86.1 
					36,87.8 37.5,86.8 37.9,87.4 36.1,88.5 				"/>
				<polygon class="st0" points="32.1,88.5 32.1,91.5 34.2,88.5 				"/>
				<polygon class="st0" points="35.1,88.5 38.2,88.5 38.2,91 35.1,95.4 32.1,95.4 32.1,92.9 				"/>
				<polygon class="st0" points="38.2,92.3 38.2,95.4 36.1,95.4 				"/>
			</g>
		</g>
	</g>
	<g>
		<circle class="st3" cx="168.7" cy="17.4" r="8.1"/>
		<circle class="st4" cx="168.7" cy="17.4" r="3.4"/>
	</g>
</g>
</svg>
