<?xml version="1.0" encoding="utf-8"?>
<!-- Generator: Adobe Illustrator 21.1.0, SVG Export Plug-In . SVG Version: 6.00 Build 0)  -->
<svg version="1.1" id="レイヤー_1" xmlns="http://www.w3.org/2000/svg" xmlns:xlink="http://www.w3.org/1999/xlink" x="0px"
	 y="0px" viewBox="0 0 231 125" style="enable-background:new 0 0 231 125;" xml:space="preserve">
<style type="text/css">
	.st0{fill:#7A7A7A;}
	.st1{fill:none;stroke:#7A7A7A;stroke-miterlimit:10;}
	.st2{fill:#A3A3A3;}
	.st3{fill:#424242;}
	.st4{font-family:'Meiryo';}
	.st5{font-size:10px;}
</style>
<g>
	<g>
		<path class="st0" d="M230,1v123H1.4V1H230 M231,0H0.4v125H231V0L231,0z"/>
	</g>
	<g>
		<path class="st0" d="M175.6,1.2v38.1H55.8V1.2H175.6 M176.6,0.2H54.8v40.1h121.8V0.2L176.6,0.2z"/>
	</g>
	<rect x="85.8" y="98" class="st1" width="59.7" height="26.4"/>
	<g>
		<circle class="st2" cx="169" cy="57.8" r="8.1"/>
		<circle class="st3" cx="169" cy="57.8" r="3.4"/>
	</g>
	<g>
		<g>
			<path class="st0" d="M105.1,15.4v18.9H124V15.4H105.1z M122.2,32.5H107V17.4h15.2V32.5z"/>
		</g>
		<g>
			<g>
				<circle class="st0" cx="109.9" cy="20.8" r="0.9"/>
			</g>
			<g>
				<path class="st0" d="M108.6,26.6H108l-0.2-3.5c0,0,0.3-1.2,1.2-1.2h1.8c0,0,1.2,0.3,1.2,1.2v3.5h-0.8l0.1,4.9h-0.9l-0.4-4.8
					l-0.5,4.8h-0.9L108.6,26.6z"/>
			</g>
		</g>
		<g>
			<g>
				<circle class="st0" cx="114.7" cy="20.8" r="0.9"/>
			</g>
			<g>
				<path class="st0" d="M113.4,26.6h-0.6l-0.2-3.5c0,0,0.3-1.2,1.2-1.2h1.8c0,0,1.2,0.3,1.2,1.2v3.5H116l0.1,4.9h-0.9l-0.4-4.8
					l-0.5,4.8h-0.9L113.4,26.6z"/>
			</g>
		</g>
		<g>
			<g>
				<circle class="st0" cx="119.4" cy="20.8" r="0.9"/>
			</g>
			<g>
				<path class="st0" d="M118.1,26.6h-0.6l-0.2-3.5c0,0,0.3-1.2,1.2-1.2h1.8c0,0,1.2,0.3,1.2,1.2v3.5h-0.8l0.1,4.9h-0.9l-0.4-4.8
					l-0.5,4.8h-0.9L118.1,26.6z"/>
			</g>
		</g>
		<g>
			<polygon class="st0" points="105.4,7.9 105.4,10.3 109.6,14.7 114.1,10.2 114.1,7.9 110.6,11.6 110.6,4.2 108.8,4.2 108.8,11.6 
							"/>
		</g>
		<g>
			<polygon class="st0" points="124,10.7 124,8.3 119.7,4 115.3,8.4 115.3,10.7 118.7,7.1 118.7,14.4 120.5,14.4 120.5,7.1 			"/>
		</g>
	</g>
	<text transform="matrix(1 0 0 1 177.8855 119.3434)" class="st0 st4 st5">ENT</text>
	<text transform="matrix(1 0 0 1 32.8854 119.3434)" class="st0 st4 st5">ENT</text>
</g>
</svg>
