<?xml version="1.0" encoding="utf-8"?>
<!-- Generator: Adobe Illustrator 21.1.0, SVG Export Plug-In . SVG Version: 6.00 Build 0)  -->
<svg version="1.1" id="レイヤー_1" xmlns="http://www.w3.org/2000/svg" xmlns:xlink="http://www.w3.org/1999/xlink" x="0px"
	 y="0px" viewBox="0 0 611.3 529.3" style="enable-background:new 0 0 611.3 529.3;" xml:space="preserve">
<style type="text/css">
	.st0{clip-path:url(#SVGID_2_);fill:none;stroke:#848484;stroke-width:2;stroke-miterlimit:10;}
	.st1{clip-path:url(#SVGID_2_);fill:none;stroke:#848484;stroke-width:3;stroke-miterlimit:10;stroke-dasharray:19.891,7.956;}
	.st2{clip-path:url(#SVGID_2_);fill:#848484;}
	.st3{clip-path:url(#SVGID_2_);fill:#FFFFFF;}
	.st4{clip-path:url(#SVGID_2_);fill:none;stroke:#848484;stroke-miterlimit:10;}
	.st5{clip-path:url(#SVGID_2_);fill:#727171;}
</style>
<g>
	<defs>
		<rect id="SVGID_1_" width="611.3" height="529.3"/>
	</defs>
	<clipPath id="SVGID_2_">
		<use xlink:href="#SVGID_1_"  style="overflow:visible;"/>
	</clipPath>
	<path class="st0" d="M409,195.7c0-15.7,9.7-43.6,12.4-51c9.3-24.9,35.9-106.1,48.4-144.7"/>
	<path class="st0" d="M139.7,140.7v-29.5c0-15.7,9.7-43.6,12.4-51c4.3-11.4,12.2-34.7,20.7-60.3"/>
	<path class="st0" d="M530.2,529.3V195.7c0-15.7,9.7-43.6,12.4-51c6.3-16.7,20.3-59,32.7-96.6"/>
	<line class="st1" x1="581.7" y1="525.8" x2="581.7" y2="0.7"/>
	<line class="st0" x1="586.7" y1="402.2" x2="611.9" y2="402.2"/>
	<line class="st0" x1="0" y1="402.2" x2="576.7" y2="402.2"/>
	<line class="st0" x1="586.7" y1="264.7" x2="611.9" y2="264.7"/>
	<line class="st0" x1="322" y1="264.7" x2="576.7" y2="264.7"/>
	<line class="st0" x1="0" y1="264.7" x2="291.8" y2="264.7"/>
	<line class="st0" x1="586.7" y1="127.2" x2="611.9" y2="127.2"/>
	<line class="st0" x1="249.2" y1="127.2" x2="576.7" y2="127.2"/>
	<line class="st0" x1="0" y1="43.2" x2="158.3" y2="43.2"/>
	<path class="st0" d="M306.8,394.2l69.4-129.6l-1-30.1c0,0,1.2-38.9,37.8-38.9h53.2"/>
	<path class="st0" d="M238.8,227.8l0.6-58.1c0-15.7,9.7-43.6,12.4-51c7.6-20.1,26.4-77.3,39.9-118.7"/>
	<polyline class="st0" points="306.8,394.2 238.4,264.7 238.6,246.3 	"/>
	<path class="st2" d="M300,438.3c0,4.7-3.8,8.5-8.5,8.5h-20.8c-4.7,0-8.5-3.8-8.5-8.5v-20.8c0-4.7,3.8-8.5,8.5-8.5h20.8
		c4.7,0,8.5,3.8,8.5,8.5V438.3z"/>
	<path class="st3" d="M281.1,436.5c-4.6,0-8.4-3.8-8.4-8.4s3.8-8.4,8.4-8.4c4.6,0,8.4,3.8,8.4,8.4
		C289.5,432.7,285.7,436.5,281.1,436.5 M273.2,428.1c0,4.3,3.5,7.8,7.8,7.8c4.3,0,7.8-3.5,7.8-7.8c0-4.3-3.5-7.8-7.8-7.8
		C276.7,420.2,273.2,423.8,273.2,428.1 M280.5,424.9L280.5,424.9l-1.7,0.8l-0.3-1.3l2.1-1h1.5v9.3h-1.7V424.9z"/>
	<path class="st2" d="M238.1,138.4c0,4.7-3.8,8.5-8.5,8.5h-20.8c-4.7,0-8.5-3.8-8.5-8.5v-20.8c0-4.7,3.8-8.5,8.5-8.5h20.8
		c4.7,0,8.5,3.8,8.5,8.5V138.4z"/>
	<path class="st3" d="M219.2,136.6c-4.6,0-8.4-3.8-8.4-8.4c0-4.6,3.8-8.4,8.4-8.4c4.6,0,8.4,3.8,8.4,8.4
		C227.6,132.9,223.8,136.6,219.2,136.6 M211.4,128.2c0,4.3,3.5,7.8,7.8,7.8c4.3,0,7.8-3.5,7.8-7.8c0-4.3-3.5-7.8-7.8-7.8
		C214.8,120.4,211.4,123.9,211.4,128.2 M216,132.8v-1.1l1.1-1c2.5-2.3,3.4-3.2,3.4-4.3c0-0.8-0.4-1.6-1.8-1.6
		c-0.8,0-1.6,0.4-2.1,0.8l-0.5-1.2c0.7-0.6,1.8-1,2.9-1c2.3,0,3.2,1.5,3.2,2.8c0,1.7-1.2,2.8-3.2,4.5l-0.8,0.6v0h4.2v1.4H216z"/>
	<path class="st2" d="M549.1,275.1c0,4.7-3.8,8.5-8.5,8.5h-20.8c-4.7,0-8.5-3.8-8.5-8.5v-20.8c0-4.7,3.8-8.5,8.5-8.5h20.8
		c4.7,0,8.5,3.8,8.5,8.5V275.1z"/>
	<path class="st3" d="M530.2,273.3c-4.6,0-8.4-3.8-8.4-8.4c0-4.6,3.8-8.4,8.4-8.4s8.4,3.8,8.4,8.4
		C538.6,269.6,534.8,273.3,530.2,273.3 M522.4,264.9c0,4.3,3.5,7.8,7.8,7.8s7.8-3.5,7.8-7.8c0-4.3-3.5-7.8-7.8-7.8
		C525.9,257.1,522.4,260.6,522.4,264.9 M530.7,269.6v-2.3h-4.5v-1.1l4.2-5.9h1.9v5.7h1.2v1.3h-1.2v2.3H530.7z M530.7,266v-2.8
		c0-0.4,0-1,0-1.5h0c-0.3,0.5-0.5,1-0.8,1.4l-2.2,2.8v0H530.7z"/>
	<path class="st2" d="M601.3,330.9c0,4.7-3.8,8.5-8.5,8.5h-20.8c-4.7,0-8.5-3.8-8.5-8.5v-20.8c0-4.7,3.8-8.5,8.5-8.5h20.8
		c4.7,0,8.5,3.8,8.5,8.5V330.9z"/>
	<path class="st3" d="M582.4,329.1c-4.6,0-8.4-3.8-8.4-8.4c0-4.6,3.8-8.4,8.4-8.4c4.6,0,8.4,3.8,8.4,8.4
		C590.9,325.3,587.1,329.1,582.4,329.1 M574.6,320.6c0,4.3,3.5,7.8,7.8,7.8c4.3,0,7.8-3.5,7.8-7.8c0-4.3-3.5-7.8-7.8-7.8
		C578.1,312.8,574.6,316.4,574.6,320.6 M585.3,317.5h-3.7l-0.3,1.8c0.2,0,0.5-0.1,0.8-0.1c1.9,0,3.5,1,3.5,2.9
		c0,1.7-1.5,3.2-3.8,3.2c-1.1,0-2.1-0.3-2.5-0.6l0.4-1.3c0.4,0.2,1.2,0.5,2.1,0.5c1.1,0,2.1-0.7,2.1-1.6c0-1.1-0.8-1.8-2.6-1.8
		c-0.5,0-1,0.1-1.4,0.1l0.6-4.6h4.9V317.5z"/>
	<line class="st4" x1="256.7" y1="249.1" x2="267.3" y2="264.7"/>
	<path class="st0" d="M139.7,246.3v18.4l-1,183.7c0,0-1.2,38.9-37.8,38.9H0"/>
	<path class="st0" d="M139.7,227.8c0-34.2,0-80.3,0-84.2c0-17-13.7-18.2-21.4-9.4C101,154,29.3,299.9,0,349.1"/>
	<path class="st5" d="M276.1,497.9c0.8-0.1,1.8-0.2,2.9-0.2c4.9,0,5.9,3,5.9,5.6v0c0,2.1-0.6,3.6-1.6,4.6c-1,1-2.7,1.5-4.7,1.5
		c-1,0-1.8,0-2.5-0.1V497.9z M277.8,507.9c0.3,0,0.7,0.1,1.1,0.1c2.6,0,4.1-1.5,4.1-4.7c0-2.8-1.4-4.2-3.9-4.2c-0.6,0-1,0.1-1.3,0.1
		V507.9z"/>
	<path class="st5" d="M287.5,499.7c-0.6,0-1-0.4-1-1c0-0.6,0.4-1,1-1c0.6,0,1,0.4,1,1C288.5,499.2,288.1,499.7,287.5,499.7
		 M288.3,509.2h-1.7v-8.3h1.7V509.2z"/>
	<path class="st5" d="M294.7,502.5c-0.2,0-0.3,0-0.5,0c-1.2,0-1.9,1-1.9,2.4v4.4h-1.7v-5.7c0-1,0-1.8-0.1-2.5h1.5l0.1,1.5h0.1
		c0.4-1,1.2-1.7,2.1-1.7c0.2,0,0.3,0,0.4,0V502.5z"/>
	<path class="st5" d="M302.1,508.9c-0.6,0.3-1.5,0.5-2.6,0.5c-2.5,0-3.9-1.7-3.9-4.2c0-2.5,1.4-4.4,3.7-4.4c2.3,0,3.3,1.9,3.3,4
		c0,0.3,0,0.5,0,0.7h-5.2c0,1.9,1.2,2.6,2.5,2.6c0.9,0,1.5-0.2,2.1-0.4L302.1,508.9z M300.9,504.2c0-1-0.4-2.2-1.7-2.2
		c-1.3,0-1.8,1.3-1.9,2.2H300.9z"/>
	<path class="st5" d="M309.8,509c-0.4,0.2-1.2,0.4-2.1,0.4c-2.4,0-3.9-1.6-3.9-4.2c0-2.5,1.6-4.4,4.3-4.4c0.8,0,1.5,0.2,1.8,0.4
		l-0.3,1.3c-0.3-0.2-0.8-0.3-1.5-0.3c-1.6,0-2.5,1.3-2.5,2.9c0,1.8,1.1,2.9,2.5,2.9c0.7,0,1.2-0.2,1.6-0.3L309.8,509z"/>
	<path class="st5" d="M311.7,499.4l1.7-0.5v2h2v1.3h-2v4.2c0,1,0.3,1.5,1.1,1.5c0.3,0,0.6,0,0.8-0.1l0.1,1.3
		c-0.3,0.1-0.8,0.2-1.3,0.2c-0.7,0-1.3-0.2-1.6-0.6c-0.4-0.5-0.6-1.1-0.6-2.2v-4.3h-1.2v-1.3h1.2V499.4z"/>
	<path class="st5" d="M317.7,499.7c-0.6,0-1-0.4-1-1c0-0.6,0.4-1,1-1s1,0.4,1,1C318.8,499.2,318.4,499.7,317.7,499.7 M318.6,509.2
		h-1.7v-8.3h1.7V509.2z"/>
	<path class="st5" d="M328,505c0,3.1-2,4.4-3.9,4.4c-2.1,0-3.8-1.6-3.8-4.2c0-2.8,1.7-4.4,3.9-4.4C326.5,500.8,328,502.5,328,505
		 M324.2,502.1c-1.5,0-2.1,1.6-2.1,3c0,1.6,0.8,3,2,3c1.3,0,2-1.4,2-3C326.2,503.7,325.6,502.1,324.2,502.1"/>
	<path class="st5" d="M336.5,509.2h-1.7v-4.8c0-1.2-0.4-2.2-1.6-2.2c-0.9,0-1.8,0.7-1.8,2v5h-1.7v-5.9c0-0.9,0-1.6-0.1-2.3h1.5
		l0.1,1.2h0c0.4-0.7,1.3-1.4,2.5-1.4c1.3,0,2.7,0.8,2.7,3.4V509.2z"/>
	<polygon class="st5" points="349,499.2 345.9,499.2 345.9,509.2 344.1,509.2 344.1,499.2 341,499.2 341,497.7 349,497.7 	"/>
	<path class="st5" d="M356,507.2c0,0.7,0,1.4,0.1,2h-1.6l-0.1-1h0c-0.5,0.6-1.3,1.1-2.3,1.1c-1.5,0-2.4-1.1-2.4-2.4
		c0-2.1,1.8-3.1,4.6-3.1c0-0.6,0-1.8-1.7-1.8c-0.7,0-1.5,0.2-2,0.6l-0.4-1.2c0.6-0.4,1.6-0.7,2.7-0.7c2.4,0,3.1,1.6,3.1,3.4V507.2z
		 M354.3,505.1c-1.4,0-2.9,0.3-2.9,1.7c0,0.9,0.6,1.3,1.2,1.3c0.9,0,1.7-0.7,1.7-1.7V505.1z"/>
	<path class="st5" d="M369.5,509.2h-1.7v-4.7c0-1.4-0.5-2.3-1.5-2.3c-0.8,0-1.6,0.7-1.6,1.9v5.1H363v-5c0-1.2-0.4-2-1.4-2
		c-0.8,0-1.7,0.7-1.7,2v5h-1.7v-5.9c0-0.9,0-1.6-0.1-2.3h1.5l0.1,1.2h0c0.4-0.7,1.2-1.4,2.4-1.4c1.1,0,1.8,0.6,2.2,1.5h0
		c0.6-0.9,1.4-1.5,2.5-1.5c1.2,0,2.6,0.8,2.6,3.4V509.2z"/>
	<path class="st5" d="M377.5,507.2c0,0.7,0,1.4,0.1,2H376l-0.1-1h0c-0.5,0.6-1.3,1.1-2.3,1.1c-1.5,0-2.4-1.1-2.4-2.4
		c0-2.1,1.8-3.1,4.6-3.1c0-0.6,0-1.8-1.7-1.8c-0.7,0-1.5,0.2-2,0.6l-0.4-1.2c0.6-0.4,1.6-0.7,2.7-0.7c2.4,0,3.1,1.6,3.1,3.4V507.2z
		 M375.8,505.1c-1.4,0-2.9,0.3-2.9,1.7c0,0.9,0.6,1.3,1.2,1.3c0.9,0,1.7-0.7,1.7-1.7V505.1z"/>
	<path class="st5" d="M385.2,509c-0.4,0.2-1.2,0.4-2.1,0.4c-2.4,0-3.9-1.6-3.9-4.2c0-2.5,1.6-4.4,4.3-4.4c0.8,0,1.5,0.2,1.8,0.4
		l-0.3,1.3c-0.3-0.2-0.8-0.3-1.5-0.3c-1.6,0-2.5,1.3-2.5,2.9c0,1.8,1.1,2.9,2.5,2.9c0.7,0,1.2-0.2,1.6-0.3L385.2,509z"/>
	<path class="st5" d="M393.6,509.2h-1.7v-4.8c0-1.2-0.4-2.2-1.6-2.2c-0.9,0-1.8,0.7-1.8,2v5.1h-1.7v-12h1.7v4.9h0
		c0.5-0.9,1.5-1.3,2.4-1.3c1.2,0,2.7,0.8,2.7,3.4V509.2z"/>
	<path class="st5" d="M396.7,499.7c-0.6,0-1-0.4-1-1c0-0.6,0.4-1,1-1s1,0.4,1,1C397.7,499.2,397.3,499.7,396.7,499.7 M397.5,509.2
		h-1.7v-8.3h1.7V509.2z"/>
	<path class="st5" d="M409.2,508.9c-0.6,0.3-1.5,0.5-2.6,0.5c-2.5,0-3.9-1.7-3.9-4.2c0-2.5,1.4-4.4,3.7-4.4c2.3,0,3.3,1.9,3.3,4
		c0,0.3,0,0.5,0,0.7h-5.2c0,1.9,1.2,2.6,2.5,2.6c0.9,0,1.5-0.2,2.1-0.4L409.2,508.9z M407.9,504.2c0-1-0.4-2.2-1.7-2.2
		c-1.3,0-1.8,1.3-1.9,2.2H407.9z"/>
	<path class="st5" d="M411.6,499.4l1.7-0.5v2h2v1.3h-2v4.2c0,1,0.3,1.5,1,1.5c0.3,0,0.6,0,0.8-0.1l0.1,1.3c-0.3,0.1-0.8,0.2-1.3,0.2
		c-0.7,0-1.3-0.2-1.6-0.6c-0.4-0.5-0.6-1.1-0.6-2.2v-4.3h-1.2v-1.3h1.2V499.4z"/>
	<path class="st5" d="M425.6,499.5c-0.4-0.2-1.1-0.5-2-0.5c-1.4,0-1.9,0.8-1.9,1.5c0,1,0.6,1.5,2.1,2.1c1.8,0.8,2.7,1.8,2.7,3.4
		c0,1.9-1.4,3.4-4,3.4c-1.1,0-2.2-0.3-2.8-0.7l0.4-1.5c0.6,0.4,1.5,0.7,2.5,0.7c1.4,0,2.1-0.7,2.1-1.7c0-1-0.6-1.6-1.9-2.1
		c-1.7-0.7-2.9-1.7-2.9-3.3c0-1.8,1.5-3.2,3.7-3.2c1.1,0,1.9,0.3,2.4,0.5L425.6,499.5z"/>
	<path class="st5" d="M435.1,509.2h-1.7v-4.8c0-1.2-0.4-2.2-1.6-2.2c-0.9,0-1.8,0.7-1.8,2v5.1h-1.7v-12h1.7v4.9h0
		c0.5-0.9,1.5-1.3,2.4-1.3c1.2,0,2.7,0.8,2.7,3.4V509.2z"/>
	<path class="st5" d="M438.1,499.7c-0.6,0-1-0.4-1-1c0-0.6,0.4-1,1-1c0.6,0,1,0.4,1,1C439.2,499.2,438.8,499.7,438.1,499.7
		 M439,509.2h-1.7v-8.3h1.7V509.2z"/>
	<path class="st5" d="M448.1,509.2h-1.7v-4.8c0-1.2-0.4-2.2-1.6-2.2c-0.9,0-1.8,0.7-1.8,2v5h-1.7v-5.9c0-0.9,0-1.6-0.1-2.3h1.5
		l0.1,1.2h0c0.4-0.7,1.3-1.4,2.5-1.4c1.3,0,2.7,0.8,2.7,3.4V509.2z"/>
	<path class="st5" d="M456.1,507.2c0,0.7,0,1.4,0.1,2h-1.6l-0.1-1h0c-0.5,0.6-1.3,1.1-2.3,1.1c-1.5,0-2.4-1.1-2.4-2.4
		c0-2.1,1.8-3.1,4.6-3.1c0-0.6,0-1.8-1.7-1.8c-0.7,0-1.5,0.2-2,0.6l-0.4-1.2c0.6-0.4,1.6-0.7,2.7-0.7c2.4,0,3.1,1.6,3.1,3.4V507.2z
		 M454.4,505.1c-1.4,0-2.9,0.3-2.9,1.7c0,0.9,0.6,1.3,1.2,1.3c0.9,0,1.7-0.7,1.7-1.7V505.1z"/>
	<path class="st5" d="M465.1,500.9c0,0.6-0.1,1.3-0.1,2.4v4.7c0,1.6-0.1,4.7-4,4.7c-1,0-2-0.2-2.6-0.6l0.4-1.3
		c0.5,0.3,1.3,0.6,2.2,0.6c1.4,0,2.3-0.8,2.3-2.6V508h0c-0.4,0.7-1.2,1.2-2.3,1.2c-1.9,0-3.3-1.7-3.3-4c0-2.8,1.7-4.4,3.5-4.4
		c1.2,0,1.9,0.6,2.3,1.3h0l0.1-1.1H465.1z M463.3,504.1c0-1.1-0.7-2-1.8-2c-1.2,0-2,1.1-2,2.9c0,1.6,0.7,2.8,2,2.8
		c0.9,0,1.8-0.7,1.8-2.1V504.1z"/>
	<path class="st5" d="M473.1,507.2c0,0.7,0,1.4,0.1,2h-1.6l-0.1-1h0c-0.5,0.6-1.3,1.1-2.3,1.1c-1.5,0-2.4-1.1-2.4-2.4
		c0-2.1,1.8-3.1,4.6-3.1c0-0.6,0-1.8-1.7-1.8c-0.7,0-1.5,0.2-2,0.6l-0.4-1.2c0.6-0.4,1.6-0.7,2.7-0.7c2.4,0,3.1,1.6,3.1,3.4V507.2z
		 M471.4,505.1c-1.4,0-2.9,0.3-2.9,1.7c0,0.9,0.6,1.3,1.2,1.3c0.9,0,1.7-0.7,1.7-1.7V505.1z"/>
	<path class="st5" d="M485.9,500.9l-2.5,8.3h-1.6l-1.1-3.7c-0.3-0.9-0.4-1.7-0.6-2.6h0c-0.2,1-0.4,1.8-0.6,2.7l-1.1,3.6h-1.6
		l-2.4-8.3h1.8l0.9,4c0.2,0.9,0.4,1.8,0.5,2.6h0c0.2-0.9,0.4-1.8,0.7-2.6l1.1-4h1.4l1.1,3.9c0.3,1,0.5,1.8,0.6,2.7h0
		c0.1-0.9,0.3-1.7,0.6-2.7l1-3.9H485.9z"/>
	<path class="st5" d="M493.1,507.2c0,0.7,0,1.4,0.1,2h-1.6l-0.1-1h0c-0.5,0.6-1.3,1.1-2.3,1.1c-1.5,0-2.4-1.1-2.4-2.4
		c0-2.1,1.8-3.1,4.6-3.1c0-0.6,0-1.8-1.7-1.8c-0.7,0-1.5,0.2-2,0.6l-0.4-1.2c0.6-0.4,1.6-0.7,2.7-0.7c2.4,0,3.1,1.6,3.1,3.4V507.2z
		 M491.4,505.1c-1.4,0-2.9,0.3-2.9,1.7c0,0.9,0.6,1.3,1.2,1.3c0.9,0,1.7-0.7,1.7-1.7V505.1z"/>
	<path class="st5" d="M293.3,21.4c0.8-0.1,1.8-0.2,2.9-0.2c4.9,0,5.9,3,5.9,5.6v0c0,2.1-0.6,3.6-1.6,4.6c-1,1-2.7,1.5-4.7,1.5
		c-1,0-1.8,0-2.5-0.1V21.4z M295,31.4c0.3,0,0.7,0.1,1.1,0.1c2.6,0,4.1-1.5,4.1-4.7c0-2.8-1.4-4.2-3.9-4.2c-0.6,0-1,0.1-1.3,0.1
		V31.4z"/>
	<path class="st5" d="M304.7,23.2c-0.6,0-1-0.4-1-1c0-0.6,0.4-1,1-1s1,0.4,1,1C305.7,22.7,305.3,23.2,304.7,23.2 M305.6,32.7h-1.7
		v-8.3h1.7V32.7z"/>
	<path class="st5" d="M312,26c-0.2,0-0.3,0-0.5,0c-1.2,0-1.9,1-1.9,2.4v4.4h-1.7V27c0-1,0-1.8-0.1-2.5h1.5l0.1,1.5h0.1
		c0.4-1,1.2-1.7,2.1-1.7c0.2,0,0.3,0,0.4,0V26z"/>
	<path class="st5" d="M319.3,32.4c-0.6,0.3-1.5,0.5-2.6,0.5c-2.5,0-3.9-1.7-3.9-4.2c0-2.5,1.4-4.4,3.7-4.4c2.3,0,3.3,1.9,3.3,4
		c0,0.3,0,0.5,0,0.7h-5.2c0,1.9,1.2,2.6,2.5,2.6c0.9,0,1.5-0.2,2.1-0.4L319.3,32.4z M318.1,27.8c0-1-0.4-2.2-1.7-2.2
		c-1.3,0-1.8,1.3-1.9,2.2H318.1z"/>
	<path class="st5" d="M327,32.5c-0.4,0.2-1.2,0.4-2.1,0.4c-2.4,0-3.9-1.6-3.9-4.2c0-2.5,1.6-4.4,4.3-4.4c0.8,0,1.5,0.2,1.8,0.4
		l-0.3,1.3c-0.3-0.2-0.8-0.3-1.5-0.3c-1.6,0-2.5,1.3-2.5,2.9c0,1.8,1.1,2.9,2.5,2.9c0.7,0,1.2-0.2,1.6-0.3L327,32.5z"/>
	<path class="st5" d="M328.9,23l1.7-0.5v2h2v1.3h-2V30c0,1,0.3,1.5,1.1,1.5c0.3,0,0.6,0,0.8-0.1l0.1,1.3c-0.3,0.1-0.8,0.2-1.3,0.2
		c-0.7,0-1.3-0.2-1.6-0.6c-0.4-0.5-0.6-1.1-0.6-2.2v-4.3h-1.2v-1.3h1.2V23z"/>
	<path class="st5" d="M335,23.2c-0.6,0-1-0.4-1-1c0-0.6,0.4-1,1-1c0.6,0,1,0.4,1,1C336,22.7,335.6,23.2,335,23.2 M335.9,32.7h-1.7
		v-8.3h1.7V32.7z"/>
	<path class="st5" d="M345.2,28.5c0,3.1-2,4.4-3.9,4.4c-2.1,0-3.8-1.6-3.8-4.2c0-2.8,1.7-4.4,3.9-4.4
		C343.7,24.3,345.2,26,345.2,28.5 M341.4,25.6c-1.5,0-2.1,1.6-2.1,3c0,1.6,0.8,3,2,3c1.3,0,2-1.4,2-3
		C343.4,27.2,342.9,25.6,341.4,25.6"/>
	<path class="st5" d="M353.8,32.7H352v-4.8c0-1.2-0.4-2.2-1.6-2.2c-0.9,0-1.8,0.7-1.8,2v5h-1.7v-5.9c0-0.9,0-1.6-0.1-2.3h1.5
		l0.1,1.2h0c0.4-0.7,1.3-1.4,2.5-1.4c1.3,0,2.7,0.8,2.7,3.4V32.7z"/>
	<polygon class="st5" points="366.2,22.7 363.1,22.7 363.1,32.7 361.4,32.7 361.4,22.7 358.3,22.7 358.3,21.3 366.2,21.3 	"/>
	<path class="st5" d="M374.6,28.5c0,3.1-2,4.4-3.9,4.4c-2.1,0-3.8-1.6-3.8-4.2c0-2.8,1.7-4.4,3.9-4.4
		C373.1,24.3,374.6,26,374.6,28.5 M370.7,25.6c-1.5,0-2.1,1.6-2.1,3c0,1.6,0.8,3,2,3c1.3,0,2-1.4,2-3
		C372.8,27.2,372.2,25.6,370.7,25.6"/>
	<path class="st5" d="M380.4,26c-0.2,0-0.3,0-0.5,0c-1.2,0-1.9,1-1.9,2.4v4.4h-1.7V27c0-1,0-1.8-0.1-2.5h1.5l0.1,1.5h0.1
		c0.4-1,1.2-1.7,2.1-1.7c0.2,0,0.3,0,0.4,0V26z"/>
	<path class="st5" d="M387.6,30.8c0,0.7,0,1.4,0.1,2h-1.6l-0.1-1h0c-0.5,0.6-1.3,1.1-2.3,1.1c-1.5,0-2.4-1.1-2.4-2.4
		c0-2.1,1.8-3.1,4.6-3.1c0-0.6,0-1.8-1.7-1.8c-0.7,0-1.5,0.2-2,0.6l-0.4-1.2c0.6-0.4,1.6-0.7,2.7-0.7c2.4,0,3.1,1.6,3.1,3.4V30.8z
		 M385.9,28.6c-1.4,0-2.9,0.3-2.9,1.7c0,0.9,0.6,1.3,1.2,1.3c0.9,0,1.7-0.7,1.7-1.7V28.6z"/>
	<path class="st5" d="M396.6,32.7h-1.7v-4.8c0-1.2-0.4-2.2-1.6-2.2c-0.9,0-1.8,0.7-1.8,2v5h-1.7v-5.9c0-0.9,0-1.6-0.1-2.3h1.5
		l0.1,1.2h0c0.4-0.7,1.3-1.4,2.5-1.4c1.3,0,2.7,0.8,2.7,3.4V32.7z"/>
	<path class="st5" d="M405.9,28.5c0,3.1-2,4.4-3.9,4.4c-2.1,0-3.8-1.6-3.8-4.2c0-2.8,1.7-4.4,3.9-4.4
		C404.4,24.3,405.9,26,405.9,28.5 M402.1,25.6c-1.5,0-2.1,1.6-2.1,3c0,1.6,0.8,3,2,3c1.3,0,2-1.4,2-3
		C404.1,27.2,403.5,25.6,402.1,25.6"/>
	<path class="st5" d="M419,32.7h-1.7V28c0-1.4-0.4-2.3-1.5-2.3c-0.8,0-1.6,0.7-1.6,1.9v5.1h-1.7v-5c0-1.2-0.4-2-1.4-2
		c-0.8,0-1.7,0.7-1.7,2v5h-1.7v-5.9c0-0.9,0-1.6-0.1-2.3h1.5l0.1,1.2h0c0.4-0.7,1.2-1.4,2.4-1.4c1,0,1.8,0.6,2.2,1.5h0
		c0.6-0.9,1.4-1.5,2.5-1.5c1.2,0,2.6,0.8,2.6,3.4V32.7z"/>
	<path class="st5" d="M428.3,28.5c0,3.1-2,4.4-3.9,4.4c-2.1,0-3.8-1.6-3.8-4.2c0-2.8,1.7-4.4,3.9-4.4
		C426.8,24.3,428.3,26,428.3,28.5 M424.5,25.6c-1.5,0-2.1,1.6-2.1,3c0,1.6,0.8,3,2,3c1.3,0,2-1.4,2-3
		C426.5,27.2,425.9,25.6,424.5,25.6"/>
	<path class="st5" d="M436.8,32.7h-1.7v-4.8c0-1.2-0.4-2.2-1.6-2.2c-0.9,0-1.8,0.7-1.8,2v5H430v-5.9c0-0.9,0-1.6-0.1-2.3h1.5
		l0.1,1.2h0c0.4-0.7,1.3-1.4,2.5-1.4c1.3,0,2.7,0.8,2.7,3.4V32.7z"/>
	<polygon class="st5" points="377.1,291.6 374,291.6 374,301.6 372.3,301.6 372.3,291.6 369.2,291.6 369.2,290.1 377.1,290.1 	"/>
	<path class="st5" d="M384.3,301.3c-0.6,0.3-1.5,0.5-2.6,0.5c-2.5,0-3.9-1.7-3.9-4.2c0-2.5,1.4-4.4,3.7-4.4c2.3,0,3.3,1.9,3.3,4
		c0,0.3,0,0.5,0,0.7h-5.2c0,1.9,1.2,2.6,2.5,2.6c0.9,0,1.5-0.2,2.1-0.4L384.3,301.3z M383.1,296.6c0-1-0.4-2.2-1.7-2.2
		c-1.3,0-1.8,1.3-1.9,2.2H383.1z"/>
	<path class="st5" d="M397.8,301.6h-1.7v-4.7c0-1.4-0.4-2.3-1.5-2.3c-0.8,0-1.6,0.7-1.6,1.9v5.1h-1.7v-5c0-1.2-0.4-2-1.4-2
		c-0.8,0-1.7,0.7-1.7,2v5h-1.7v-5.9c0-0.9,0-1.6-0.1-2.3h1.5l0.1,1.2h0c0.4-0.7,1.2-1.4,2.4-1.4c1,0,1.8,0.6,2.2,1.5h0
		c0.6-0.9,1.4-1.5,2.5-1.5c1.2,0,2.6,0.8,2.6,3.4V301.6z"/>
	<path class="st5" d="M401.6,294.6c0.6-0.9,1.5-1.4,2.6-1.4c1.9,0,3.3,1.6,3.3,4.2c0,3-1.8,4.4-3.5,4.4c-1,0-1.8-0.5-2.2-1.1h0v4.3
		H400V296c0-1.1,0-1.9-0.1-2.7h1.5L401.6,294.6L401.6,294.6z M401.7,298.3c0,1.5,1,2.1,1.9,2.1c1.4,0,2.1-1.2,2.1-3
		c0-1.6-0.7-2.9-2-2.9c-1,0-1.9,1-1.9,2.2V298.3z"/>
	<rect x="409.1" y="289.6" class="st5" width="1.7" height="12"/>
	<path class="st5" d="M419.1,301.3c-0.6,0.3-1.5,0.5-2.6,0.5c-2.5,0-3.9-1.7-3.9-4.2c0-2.5,1.4-4.4,3.7-4.4c2.3,0,3.3,1.9,3.3,4
		c0,0.3,0,0.5,0,0.7h-5.2c0,1.9,1.2,2.6,2.5,2.6c0.9,0,1.5-0.2,2.1-0.4L419.1,301.3z M417.9,296.6c0-1-0.4-2.2-1.7-2.2
		c-1.3,0-1.8,1.3-1.9,2.2H417.9z"/>
	<path class="st5" d="M430.1,291.9c-0.4-0.2-1.1-0.5-2-0.5c-1.4,0-1.9,0.8-1.9,1.5c0,1,0.6,1.5,2.1,2.1c1.8,0.8,2.7,1.8,2.7,3.4
		c0,1.9-1.4,3.4-4,3.4c-1.1,0-2.2-0.3-2.8-0.7l0.4-1.5c0.6,0.4,1.5,0.7,2.5,0.7c1.4,0,2.1-0.7,2.1-1.7c0-1-0.6-1.6-2-2.1
		c-1.7-0.7-2.9-1.7-2.9-3.3c0-1.8,1.5-3.2,3.7-3.2c1.1,0,1.9,0.3,2.4,0.5L430.1,291.9z"/>
	<path class="st5" d="M439.8,297.4c0,3.1-2,4.4-3.9,4.4c-2.1,0-3.8-1.6-3.8-4.2c0-2.8,1.7-4.4,3.9-4.4
		C438.3,293.1,439.8,294.9,439.8,297.4 M436,294.4c-1.5,0-2.1,1.6-2.1,3c0,1.6,0.8,3,2,3c1.3,0,2-1.4,2-3
		C438,296.1,437.5,294.4,436,294.4 M434.1,290.6h3.8v1.1h-3.8V290.6z"/>
	<path class="st5" d="M443.5,300.8c0,1.7-0.3,2.7-1,3.4c-0.7,0.6-1.7,0.9-2.6,0.9l-0.2-1.4c1.8-0.2,2-1.1,2-3.5v-7h1.7V300.8z
		 M442.6,292c-0.6,0-1-0.4-1-1c0-0.6,0.4-1,1-1c0.6,0,1,0.4,1,1C443.6,291.6,443.2,292,442.6,292"/>
	<path class="st5" d="M452.8,297.4c0,3.1-2,4.4-3.9,4.4c-2.1,0-3.8-1.6-3.8-4.2c0-2.8,1.7-4.4,3.9-4.4
		C451.3,293.1,452.8,294.9,452.8,297.4 M449,294.4c-1.5,0-2.1,1.6-2.1,3c0,1.6,0.8,3,2,3c1.3,0,2-1.4,2-3
		C451,296.1,450.5,294.4,449,294.4 M447.1,290.6h3.8v1.1h-3.8V290.6z"/>
	<path class="st5" d="M456.5,300.8c0,1.7-0.3,2.7-1,3.4c-0.7,0.6-1.7,0.9-2.6,0.9l-0.2-1.4c1.8-0.2,2-1.1,2-3.5v-7h1.7V300.8z
		 M455.6,292c-0.6,0-1-0.4-1-1c0-0.6,0.4-1,1-1c0.6,0,1,0.4,1,1C456.6,291.6,456.2,292,455.6,292"/>
	<path class="st5" d="M459.5,292c-0.6,0-1-0.4-1-1c0-0.6,0.4-1,1-1c0.6,0,1,0.4,1,1C460.6,291.6,460.2,292,459.5,292 M460.4,301.6
		h-1.7v-8.3h1.7V301.6z"/>
	<path class="st5" d="M113.8,244H112l-1-3.4h-3.5l-1,3.4h-1.8l3.5-11.5h2.1L113.8,244z M110.6,239.3l-0.9-3
		c-0.2-0.8-0.4-1.6-0.6-2.3h0c-0.2,0.7-0.3,1.5-0.5,2.2l-0.9,3H110.6z"/>
	<path class="st5" d="M121.9,235.7l-3,8.3h-1.7l-2.9-8.3h1.9l1.4,4.4c0.2,0.7,0.4,1.4,0.6,2.1h0c0.2-0.7,0.3-1.4,0.6-2.1l1.3-4.4
		H121.9z"/>
	<path class="st5" d="M129.2,243.6c-0.6,0.3-1.5,0.5-2.6,0.5c-2.5,0-3.9-1.7-3.9-4.2c0-2.5,1.4-4.4,3.7-4.4c2.3,0,3.3,1.9,3.3,4
		c0,0.3,0,0.5,0,0.7h-5.2c0,1.9,1.2,2.6,2.5,2.6c0.9,0,1.5-0.2,2.1-0.4L129.2,243.6z M128,239c0-1-0.4-2.2-1.7-2.2
		c-1.3,0-1.8,1.3-1.9,2.2H128z"/>
	<path class="st5" d="M138.2,244h-1.7v-4.8c0-1.2-0.4-2.2-1.6-2.2c-0.9,0-1.8,0.7-1.8,2v5h-1.7V238c0-0.9,0-1.6-0.1-2.3h1.5l0.1,1.2
		h0c0.4-0.7,1.3-1.4,2.5-1.4c1.3,0,2.7,0.8,2.7,3.4V244z"/>
	<path class="st5" d="M147.1,241.6c0,0.9,0,1.7,0.1,2.4h-1.5l-0.1-1.2h0c-0.3,0.6-1.2,1.4-2.5,1.4c-1.4,0-2.7-0.9-2.7-3.5v-4.9h1.7
		v4.6c0,1.4,0.4,2.4,1.5,2.4c0.8,0,1.7-0.6,1.7-1.9v-5.1h1.7V241.6z"/>
	<path class="st5" d="M155.3,243.6c-0.6,0.3-1.5,0.5-2.6,0.5c-2.5,0-3.9-1.7-3.9-4.2c0-2.5,1.4-4.4,3.7-4.4c2.3,0,3.3,1.9,3.3,4
		c0,0.3,0,0.5,0,0.7h-5.2c0,1.9,1.2,2.6,2.5,2.6c0.9,0,1.5-0.2,2.1-0.4L155.3,243.6z M154.1,239c0-1-0.4-2.2-1.7-2.2
		c-1.3,0-1.8,1.3-1.9,2.2H154.1z"/>
	<path class="st5" d="M167.7,241.8c0,0.8,0,1.6,0.1,2.2h-1.5l-0.1-1.3h0c-0.4,0.8-1.3,1.5-2.5,1.5c-1.9,0-3.3-1.7-3.3-4.2
		c0-2.8,1.6-4.4,3.5-4.4c1.1,0,1.8,0.5,2.2,1.1h0v-4.7h1.7V241.8z M166,239c0-1.3-0.9-2.1-1.8-2.1c-1.3,0-2.1,1.3-2.1,3
		c0,1.6,0.7,2.9,2,2.9c1.1,0,1.9-1,1.9-2.1V239z"/>
	<path class="st5" d="M176,243.6c-0.6,0.3-1.5,0.5-2.6,0.5c-2.5,0-3.9-1.7-3.9-4.2c0-2.5,1.4-4.4,3.7-4.4c2.3,0,3.3,1.9,3.3,4
		c0,0.3,0,0.5,0,0.7h-5.2c0,1.9,1.2,2.6,2.5,2.6c0.9,0,1.5-0.2,2.1-0.4L176,243.6z M174.7,239c0-1-0.4-2.2-1.7-2.2
		c-1.3,0-1.8,1.3-1.9,2.2H174.7z"/>
	<rect x="181.4" y="231.9" class="st5" width="1.7" height="12"/>
	<path class="st5" d="M191.2,242c0,0.7,0,1.4,0.1,2h-1.6l-0.1-1h0c-0.5,0.6-1.3,1.1-2.3,1.1c-1.5,0-2.4-1.1-2.4-2.4
		c0-2.1,1.8-3.1,4.6-3.1c0-0.6,0-1.8-1.7-1.8c-0.7,0-1.5,0.2-2,0.6l-0.4-1.2c0.6-0.4,1.6-0.7,2.7-0.7c2.4,0,3.1,1.6,3.1,3.4V242z
		 M189.5,239.8c-1.4,0-2.9,0.3-2.9,1.7c0,0.9,0.6,1.3,1.2,1.3c0.9,0,1.7-0.7,1.7-1.7V239.8z"/>
	<polygon class="st5" points="203.6,234 200.5,234 200.5,244 198.8,244 198.8,234 195.7,234 195.7,232.5 203.6,232.5 	"/>
	<path class="st5" d="M212,239.8c0,3.1-2,4.4-3.9,4.4c-2.1,0-3.8-1.6-3.8-4.2c0-2.8,1.7-4.4,3.9-4.4
		C210.5,235.5,212,237.2,212,239.8 M208.2,236.8c-1.5,0-2.1,1.6-2.1,3c0,1.6,0.8,3,2,3c1.3,0,2-1.4,2-3
		C210.2,238.4,209.6,236.8,208.2,236.8"/>
	<path class="st5" d="M220.4,241.6c0,0.9,0,1.7,0.1,2.4H219l-0.1-1.2h0c-0.3,0.6-1.2,1.4-2.5,1.4c-1.4,0-2.7-0.9-2.7-3.5v-4.9h1.7
		v4.6c0,1.4,0.4,2.4,1.5,2.4c0.8,0,1.7-0.6,1.7-1.9v-5.1h1.7V241.6z"/>
	<path class="st5" d="M226.8,237.2c-0.1,0-0.3,0-0.5,0c-1.2,0-1.9,1-1.9,2.4v4.4h-1.7v-5.7c0-1,0-1.8-0.1-2.5h1.5l0.1,1.5h0.1
		c0.4-1,1.2-1.7,2.1-1.7c0.2,0,0.3,0,0.4,0V237.2z"/>
	<path class="st5" d="M238.4,241.8c0,0.8,0,1.6,0.1,2.2h-1.5l-0.1-1.3h0c-0.4,0.8-1.3,1.5-2.5,1.5c-1.9,0-3.3-1.7-3.3-4.2
		c0-2.8,1.6-4.4,3.4-4.4c1.1,0,1.8,0.5,2.2,1.1h0v-4.7h1.7V241.8z M236.7,239c0-1.3-0.9-2.1-1.8-2.1c-1.3,0-2.1,1.3-2.1,3
		c0,1.6,0.7,2.9,2,2.9c1.1,0,1.9-1,1.9-2.1V239z"/>
	<path class="st5" d="M246.7,243.6c-0.6,0.3-1.5,0.5-2.6,0.5c-2.5,0-3.9-1.7-3.9-4.2c0-2.5,1.4-4.4,3.7-4.4c2.3,0,3.3,1.9,3.3,4
		c0,0.3,0,0.5,0,0.7h-5.2c0,1.9,1.2,2.6,2.5,2.6c0.9,0,1.5-0.2,2.1-0.4L246.7,243.6z M245.4,239c0-1-0.4-2.2-1.7-2.2
		c-1.3,0-1.8,1.3-1.9,2.2H245.4z"/>
	<polygon class="st5" points="259.1,234 255.9,234 255.9,244 254.2,244 254.2,234 251.1,234 251.1,232.5 259.1,232.5 	"/>
	<path class="st5" d="M267.4,239.8c0,3.1-2,4.4-3.9,4.4c-2.1,0-3.8-1.6-3.8-4.2c0-2.8,1.7-4.4,3.9-4.4
		C265.9,235.5,267.4,237.2,267.4,239.8 M263.6,236.8c-1.5,0-2.1,1.6-2.1,3c0,1.6,0.8,3,2,3c1.3,0,2-1.4,2-3
		C265.6,238.4,265,236.8,263.6,236.8"/>
	<path class="st5" d="M276,244h-2.1l-2.4-3.8l-0.7,0.8v3h-1.7v-12h1.7v7.5h0c0.2-0.3,0.4-0.7,0.6-1l2.1-2.8h2.1l-2.9,3.4L276,244z"
		/>
	<path class="st5" d="M283.5,235.7l-2,5.7c-1,2.7-1.7,4.2-2.7,5.2c-0.8,0.7-1.5,1-1.9,1.1l-0.5-1.5c1.8-0.6,2.4-2.3,2.4-2.5
		c0-0.1,0-0.2-0.1-0.4l-2.8-7.6h1.9l1.5,4.7c0.2,0.5,0.3,1.2,0.4,1.7h0c0.1-0.5,0.3-1.1,0.4-1.7l1.3-4.7H283.5z"/>
	<path class="st5" d="M291.9,239.8c0,3.1-2,4.4-3.9,4.4c-2.1,0-3.8-1.6-3.8-4.2c0-2.8,1.7-4.4,3.9-4.4
		C290.4,235.5,291.9,237.2,291.9,239.8 M288,236.8c-1.5,0-2.1,1.6-2.1,3c0,1.6,0.8,3,2,3c1.3,0,2-1.4,2-3
		C290.1,238.4,289.5,236.8,288,236.8"/>
	<path class="st5" d="M45.5,296.1c0.9,0.3,1.3,1.1,1.6,2.3c0.3,1.5,0.6,2.7,0.9,3.1h-1.8c-0.2-0.3-0.4-1.3-0.7-2.7
		c-0.3-1.5-0.9-2.1-2.1-2.1h-1v4.9h-1.7v-11.3c0.7-0.1,1.8-0.2,2.8-0.2c1.5,0,2.6,0.3,3.3,0.9c0.6,0.5,0.9,1.3,0.9,2.2
		C47.5,294.7,46.6,295.7,45.5,296.1L45.5,296.1z M43.5,295.4c1.4,0,2.3-0.8,2.3-2.1c0-1.5-1-2-2.3-2c-0.6,0-1,0-1.2,0.1v3.9H43.5z"
		/>
	<path class="st5" d="M56.5,297.4c0,3.1-2,4.4-3.9,4.4c-2.1,0-3.8-1.6-3.8-4.2c0-2.8,1.7-4.4,3.9-4.4
		C55,293.1,56.5,294.9,56.5,297.4 M52.7,294.5c-1.5,0-2.1,1.6-2.1,3c0,1.6,0.8,3,2,3c1.3,0,2-1.4,2-3
		C54.7,296.1,54.2,294.5,52.7,294.5"/>
	<path class="st5" d="M59.8,294.6c0.6-0.9,1.5-1.4,2.6-1.4c1.9,0,3.3,1.6,3.3,4.2c0,3-1.8,4.4-3.5,4.4c-1,0-1.8-0.5-2.2-1.1h0v4.3
		h-1.7V296c0-1.1,0-1.9-0.1-2.7h1.5L59.8,294.6L59.8,294.6z M60,298.3c0,1.5,1,2.1,1.9,2.1c1.3,0,2.1-1.2,2.1-3c0-1.6-0.7-2.9-2-2.9
		c-1,0-1.9,1-1.9,2.2V298.3z"/>
	<path class="st5" d="M69,294.6c0.6-0.9,1.5-1.4,2.6-1.4c1.9,0,3.3,1.6,3.3,4.2c0,3-1.8,4.4-3.5,4.4c-1,0-1.8-0.5-2.2-1.1h0v4.3
		h-1.7V296c0-1.1,0-1.9-0.1-2.7h1.5L69,294.6L69,294.6z M69.2,298.3c0,1.5,1,2.1,1.9,2.1c1.3,0,2.1-1.2,2.1-3c0-1.6-0.7-2.9-2-2.9
		c-1,0-1.9,1-1.9,2.2V298.3z"/>
	<path class="st5" d="M83.7,297.4c0,3.1-2,4.4-3.9,4.4c-2.1,0-3.8-1.6-3.8-4.2c0-2.8,1.7-4.4,3.9-4.4
		C82.2,293.1,83.7,294.9,83.7,297.4 M79.9,294.5c-1.5,0-2.1,1.6-2.1,3c0,1.6,0.8,3,2,3c1.3,0,2-1.4,2-3
		C81.9,296.1,81.4,294.5,79.9,294.5"/>
	<path class="st5" d="M92.3,301.6h-1.7v-4.8c0-1.2-0.4-2.2-1.6-2.2c-0.9,0-1.8,0.7-1.8,2v5h-1.7v-5.9c0-0.9,0-1.6-0.1-2.3h1.5
		l0.1,1.2h0c0.4-0.7,1.3-1.4,2.5-1.4c1.3,0,2.7,0.8,2.7,3.4V301.6z"/>
	<path class="st5" d="M101.4,293.3c0,0.6-0.1,1.3-0.1,2.4v4.7c0,1.7-0.1,4.7-4.1,4.7c-1,0-2-0.2-2.6-0.6l0.4-1.3
		c0.5,0.3,1.3,0.6,2.2,0.6c1.3,0,2.3-0.8,2.3-2.6v-0.8h0c-0.4,0.7-1.2,1.2-2.3,1.2c-1.9,0-3.3-1.7-3.3-4c0-2.8,1.7-4.4,3.5-4.4
		c1.2,0,1.9,0.6,2.3,1.3h0l0.1-1.1H101.4z M99.6,296.5c0-1.1-0.7-2-1.8-2c-1.2,0-2,1.1-2,2.9c0,1.6,0.7,2.8,2,2.8
		c0.9,0,1.8-0.7,1.8-2.1V296.5z"/>
	<path class="st5" d="M104.4,292.1c-0.6,0-1-0.4-1-1c0-0.6,0.4-1,1-1s1,0.4,1,1C105.4,291.6,105,292.1,104.4,292.1 M105.3,301.6
		h-1.7v-8.3h1.7V301.6z"/>
	<line class="st0" x1="466.2" y1="516.1" x2="466.2" y2="529.3"/>
	<path class="st0" d="M527,0c-12.5,38.6-39.1,119.8-48.4,144.7c-2.8,7.4-12.4,35.3-12.4,51v295.5"/>
	<line class="st0" x1="306.8" y1="491.1" x2="306.8" y2="394.2"/>
	<line class="st0" x1="306.8" y1="516.1" x2="306.8" y2="529.3"/>
	<path class="st2" d="M296,256h21.6l1.2-12.6h-5.6c-1.4-9-2.1-18.4-2.9-29l-7.2,0c-0.8,10.6-1.5,20-2.8,29h-5.6L296,256z"/>
	<polygon class="st2" points="311.4,214 311.4,209.7 310.4,209.7 310.4,209 303.1,209 303.1,209.8 302.1,209.8 302.1,214 	"/>
	<rect x="302.2" y="198.5" class="st2" width="9.3" height="9.9"/>
	<polygon class="st2" points="308.9,188.1 308.3,188.1 308.3,178.7 307.3,178.7 307.2,165 306.3,165 306.3,178.7 305.2,178.7 
		305.2,188.1 304.6,188.1 304.6,197.5 308.9,197.5 	"/>
	<path class="st2" d="M315.7,260.2v-2.7h-17.8v2.6h0c-3.3,14.6-7.7,27.3-19.1,45h9.6c3.2-5.7,7-12.4,14-14.3
		c1.3-0.3,2.8-0.6,4.4-0.6c1.6,0,3.1,0.2,4.4,0.6c7,1.9,10.7,8.4,13.9,14.3l9.8,0C323.5,287.5,319,274.7,315.7,260.2"/>
	<path class="st2" d="M503.1,138.4c0,4.7-3.8,8.5-8.5,8.5h-20.8c-4.7,0-8.5-3.8-8.5-8.5v-20.8c0-4.7,3.8-8.5,8.5-8.5h20.8
		c4.7,0,8.5,3.8,8.5,8.5V138.4z"/>
	<path class="st3" d="M484.2,136.6c-4.6,0-8.4-3.8-8.4-8.4c0-4.6,3.8-8.4,8.4-8.4c4.6,0,8.4,3.8,8.4,8.4
		C492.6,132.9,488.8,136.6,484.2,136.6 M476.4,128.2c0,4.3,3.5,7.8,7.8,7.8c4.3,0,7.8-3.5,7.8-7.8c0-4.3-3.5-7.8-7.8-7.8
		C479.8,120.4,476.4,123.9,476.4,128.2 M481.4,131c0.4,0.3,1.3,0.6,2.2,0.6c1.5,0,2-0.9,2-1.4c0-1.2-1.2-1.6-2.3-1.6h-0.8v-1.3h0.8
		c0.9,0,2-0.3,2-1.3c0-0.6-0.4-1.2-1.6-1.2c-0.8,0-1.5,0.3-2,0.6l-0.4-1.3c0.5-0.4,1.6-0.7,2.7-0.7c2.1,0,3,1.1,3,2.2
		c0,1-0.6,1.7-1.7,2.1v0c1.2,0.3,2.1,1.1,2.1,2.3c0,1.5-1.3,2.8-3.7,2.8c-1.2,0-2.2-0.3-2.6-0.6L481.4,131z"/>
</g>
</svg>
