<?xml version="1.0" encoding="utf-8"?>
<!-- Generator: Adobe Illustrator 21.1.0, SVG Export Plug-In . SVG Version: 6.00 Build 0)  -->
<svg version="1.1" id="レイヤー_1" xmlns="http://www.w3.org/2000/svg" xmlns:xlink="http://www.w3.org/1999/xlink" x="0px"
	 y="0px" viewBox="0 0 611.3 529.3" style="enable-background:new 0 0 611.3 529.3;" xml:space="preserve">
<style type="text/css">
	.st0{clip-path:url(#SVGID_2_);fill:none;stroke:#848484;stroke-width:2;stroke-miterlimit:10;}
	.st1{clip-path:url(#SVGID_2_);fill:none;stroke:#848484;stroke-width:3;stroke-miterlimit:10;stroke-dasharray:19.891,7.956;}
	.st2{clip-path:url(#SVGID_2_);fill:#848484;}
	.st3{clip-path:url(#SVGID_2_);fill:#FFFFFF;}
	.st4{clip-path:url(#SVGID_2_);fill:none;stroke:#848484;stroke-miterlimit:10;}
	.st5{clip-path:url(#SVGID_2_);fill:#727171;}
</style>
<g>
	<defs>
		<rect id="SVGID_1_" width="611.3" height="529.3"/>
	</defs>
	<clipPath id="SVGID_2_">
		<use xlink:href="#SVGID_1_"  style="overflow:visible;"/>
	</clipPath>
	<path class="st0" d="M409,195.7c0-15.7,9.7-43.6,12.4-51c9.3-24.9,35.9-106.1,48.4-144.7"/>
	<path class="st0" d="M139.7,140.7v-29.5c0-15.7,9.7-43.6,12.4-51c4.3-11.4,12.2-34.7,20.7-60.3"/>
	<path class="st0" d="M530.2,529.3V195.7c0-15.7,9.7-43.6,12.4-51c6.3-16.7,20.3-59,32.7-96.6"/>
	<line class="st1" x1="581.7" y1="525.8" x2="581.7" y2="0.7"/>
	<line class="st0" x1="586.7" y1="402.2" x2="611.9" y2="402.2"/>
	<line class="st0" x1="0" y1="402.2" x2="576.7" y2="402.2"/>
	<line class="st0" x1="586.7" y1="264.7" x2="611.9" y2="264.7"/>
	<line class="st0" x1="322" y1="264.7" x2="576.7" y2="264.7"/>
	<line class="st0" x1="0" y1="264.7" x2="291.8" y2="264.7"/>
	<line class="st0" x1="586.7" y1="127.2" x2="611.9" y2="127.2"/>
	<line class="st0" x1="249.2" y1="127.2" x2="576.7" y2="127.2"/>
	<line class="st0" x1="0" y1="43.2" x2="158.3" y2="43.2"/>
	<path class="st0" d="M306.8,394.2l69.4-129.6l-1-30.1c0,0,1.2-38.9,37.8-38.9h53.2"/>
	<path class="st0" d="M238.8,227.8l0.6-58.1c0-15.7,9.7-43.6,12.4-51c7.6-20.1,26.4-77.3,39.9-118.7"/>
	<polyline class="st0" points="306.8,394.2 238.4,264.7 238.6,246.3 	"/>
	<path class="st0" d="M0,349.1C29.3,299.9,101,154,118.3,134.2c7.7-8.8,21.4-7.6,21.4,9.4c0,6.2,0,121,0,121l-1,183.7
		c0,0-1.2,38.9-37.8,38.9H0"/>
	<path class="st2" d="M300,438.3c0,4.7-3.8,8.5-8.5,8.5h-20.8c-4.7,0-8.5-3.8-8.5-8.5v-20.8c0-4.7,3.8-8.5,8.5-8.5h20.8
		c4.7,0,8.5,3.8,8.5,8.5V438.3z"/>
	<path class="st3" d="M281.1,436.5c-4.6,0-8.4-3.8-8.4-8.4s3.8-8.4,8.4-8.4c4.6,0,8.4,3.8,8.4,8.4
		C289.5,432.7,285.7,436.5,281.1,436.5 M273.2,428.1c0,4.3,3.5,7.8,7.8,7.8c4.3,0,7.8-3.5,7.8-7.8c0-4.3-3.5-7.8-7.8-7.8
		C276.7,420.2,273.2,423.8,273.2,428.1 M280.5,424.9L280.5,424.9l-1.7,0.8l-0.3-1.3l2.1-1h1.5v9.3h-1.7V424.9z"/>
	<path class="st2" d="M238.1,138.4c0,4.7-3.8,8.5-8.5,8.5h-20.8c-4.7,0-8.5-3.8-8.5-8.5v-20.8c0-4.7,3.8-8.5,8.5-8.5h20.8
		c4.7,0,8.5,3.8,8.5,8.5V138.4z"/>
	<path class="st3" d="M219.2,136.6c-4.6,0-8.4-3.8-8.4-8.4c0-4.6,3.8-8.4,8.4-8.4c4.6,0,8.4,3.8,8.4,8.4
		C227.6,132.9,223.8,136.6,219.2,136.6 M211.4,128.2c0,4.3,3.5,7.8,7.8,7.8c4.3,0,7.8-3.5,7.8-7.8c0-4.3-3.5-7.8-7.8-7.8
		C214.8,120.4,211.4,123.9,211.4,128.2 M216,132.8v-1.1l1.1-1c2.5-2.3,3.4-3.2,3.4-4.3c0-0.8-0.4-1.6-1.8-1.6
		c-0.8,0-1.6,0.4-2.1,0.8l-0.5-1.2c0.7-0.6,1.8-1,2.9-1c2.3,0,3.2,1.5,3.2,2.8c0,1.7-1.2,2.8-3.2,4.5l-0.8,0.6v0h4.2v1.4H216z"/>
	<path class="st2" d="M549.1,275.1c0,4.7-3.8,8.5-8.5,8.5h-20.8c-4.7,0-8.5-3.8-8.5-8.5v-20.8c0-4.7,3.8-8.5,8.5-8.5h20.8
		c4.7,0,8.5,3.8,8.5,8.5V275.1z"/>
	<path class="st3" d="M530.2,273.3c-4.6,0-8.4-3.8-8.4-8.4c0-4.6,3.8-8.4,8.4-8.4s8.4,3.8,8.4,8.4
		C538.6,269.6,534.8,273.3,530.2,273.3 M522.4,264.9c0,4.3,3.5,7.8,7.8,7.8s7.8-3.5,7.8-7.8c0-4.3-3.5-7.8-7.8-7.8
		C525.9,257.1,522.4,260.6,522.4,264.9 M530.7,269.6v-2.3h-4.5v-1.1l4.2-5.9h1.9v5.7h1.2v1.3h-1.2v2.3H530.7z M530.7,266v-2.8
		c0-0.4,0-1,0-1.5h0c-0.3,0.5-0.5,1-0.8,1.4l-2.2,2.8v0H530.7z"/>
	<path class="st2" d="M601.3,330.9c0,4.7-3.8,8.5-8.5,8.5h-20.8c-4.7,0-8.5-3.8-8.5-8.5v-20.8c0-4.7,3.8-8.5,8.5-8.5h20.8
		c4.7,0,8.5,3.8,8.5,8.5V330.9z"/>
	<path class="st3" d="M582.4,329.1c-4.6,0-8.4-3.8-8.4-8.4c0-4.6,3.8-8.4,8.4-8.4c4.6,0,8.4,3.8,8.4,8.4
		C590.9,325.3,587.1,329.1,582.4,329.1 M574.6,320.6c0,4.3,3.5,7.8,7.8,7.8c4.3,0,7.8-3.5,7.8-7.8c0-4.3-3.5-7.8-7.8-7.8
		C578.1,312.8,574.6,316.4,574.6,320.6 M585.3,317.5h-3.7l-0.3,1.8c0.2,0,0.5-0.1,0.8-0.1c1.9,0,3.5,1,3.5,2.9
		c0,1.7-1.5,3.2-3.8,3.2c-1.1,0-2.1-0.3-2.5-0.6l0.4-1.3c0.4,0.2,1.2,0.5,2.1,0.5c1.1,0,2.1-0.7,2.1-1.6c0-1.1-0.8-1.8-2.6-1.8
		c-0.5,0-1,0.1-1.4,0.1l0.6-4.6h4.9V317.5z"/>
	<line class="st4" x1="256.7" y1="249.1" x2="267.3" y2="264.7"/>
	<path class="st5" d="M300.5,509.2h-1.8l-1-3.4h-3.5l-1,3.4h-1.8l3.5-11.5h2.1L300.5,509.2z M297.4,504.5l-0.9-3
		c-0.2-0.8-0.4-1.6-0.6-2.3h0c-0.2,0.7-0.3,1.5-0.5,2.2l-0.9,3H297.4z"/>
	<path class="st5" d="M306.2,502.5c-0.1,0-0.3,0-0.5,0c-1.2,0-1.9,1-1.9,2.4v4.4H302v-5.7c0-1,0-1.8-0.1-2.5h1.5l0.1,1.5h0.1
		c0.4-1,1.2-1.7,2.1-1.7c0.2,0,0.3,0,0.4,0V502.5z"/>
	<path class="st5" d="M313.3,507.2c0,0.7,0,1.4,0.1,2h-1.6l-0.1-1h0c-0.5,0.6-1.3,1.1-2.3,1.1c-1.5,0-2.4-1.1-2.4-2.4
		c0-2.1,1.8-3.1,4.6-3.1c0-0.6,0-1.8-1.7-1.8c-0.7,0-1.5,0.2-2,0.6l-0.4-1.2c0.6-0.4,1.6-0.7,2.7-0.7c2.4,0,3.1,1.6,3.1,3.4V507.2z
		 M311.6,505.1c-1.4,0-2.9,0.3-2.9,1.7c0,0.9,0.6,1.3,1.2,1.3c0.9,0,1.7-0.7,1.7-1.7V505.1z"/>
	<path class="st5" d="M322.3,509.2h-1.7v-4.8c0-1.2-0.4-2.2-1.6-2.2c-0.9,0-1.8,0.7-1.8,2v5.1h-1.7v-12h1.7v4.9h0
		c0.5-0.9,1.5-1.3,2.4-1.3c1.2,0,2.7,0.8,2.7,3.4V509.2z"/>
	<path class="st5" d="M334.8,509.2h-2.1l-2.4-3.8l-0.7,0.8v3h-1.7v-12h1.7v7.5h0c0.2-0.3,0.4-0.7,0.6-1l2.1-2.8h2.1l-2.9,3.4
		L334.8,509.2z"/>
	<path class="st5" d="M341.8,508.9c-0.6,0.3-1.5,0.5-2.6,0.5c-2.5,0-3.9-1.7-3.9-4.2c0-2.5,1.4-4.4,3.7-4.4c2.3,0,3.3,1.9,3.3,4
		c0,0.3,0,0.5,0,0.7h-5.2c0,1.9,1.2,2.6,2.5,2.6c0.9,0,1.5-0.2,2.1-0.4L341.8,508.9z M340.6,504.2c0-1-0.4-2.2-1.7-2.2
		c-1.3,0-1.8,1.3-1.9,2.2H340.6z"/>
	<polygon class="st5" points="354.2,499.2 351.1,499.2 351.1,509.2 349.3,509.2 349.3,499.2 346.2,499.2 346.2,497.7 354.2,497.7 	
		"/>
	<path class="st5" d="M361.2,507.2c0,0.7,0,1.4,0.1,2h-1.6l-0.1-1h0c-0.5,0.6-1.3,1.1-2.3,1.1c-1.5,0-2.4-1.1-2.4-2.4
		c0-2.1,1.8-3.1,4.6-3.1c0-0.6,0-1.8-1.7-1.8c-0.7,0-1.5,0.2-2,0.6l-0.4-1.2c0.6-0.4,1.6-0.7,2.7-0.7c2.4,0,3.1,1.6,3.1,3.4V507.2z
		 M359.5,505.1c-1.4,0-2.9,0.3-2.9,1.7c0,0.9,0.6,1.3,1.2,1.3c0.9,0,1.7-0.7,1.7-1.7V505.1z"/>
	<path class="st5" d="M374.7,509.2H373v-4.7c0-1.4-0.4-2.3-1.5-2.3c-0.8,0-1.6,0.7-1.6,1.9v5.1h-1.7v-5c0-1.2-0.4-2-1.4-2
		c-0.8,0-1.7,0.7-1.7,2v5h-1.7v-5.9c0-0.9,0-1.6-0.1-2.3h1.5l0.1,1.2h0c0.4-0.7,1.2-1.4,2.4-1.4c1,0,1.8,0.6,2.2,1.5h0
		c0.6-0.9,1.4-1.5,2.6-1.5c1.2,0,2.6,0.8,2.6,3.4V509.2z"/>
	<path class="st5" d="M382.7,507.2c0,0.7,0,1.4,0.1,2h-1.6l-0.1-1h0c-0.5,0.6-1.3,1.1-2.3,1.1c-1.5,0-2.4-1.1-2.4-2.4
		c0-2.1,1.8-3.1,4.6-3.1c0-0.6,0-1.8-1.7-1.8c-0.7,0-1.5,0.2-2,0.6l-0.4-1.2c0.6-0.4,1.6-0.7,2.7-0.7c2.4,0,3.1,1.6,3.1,3.4V507.2z
		 M381,505.1c-1.4,0-2.9,0.3-2.9,1.7c0,0.9,0.6,1.3,1.2,1.3c0.9,0,1.7-0.7,1.7-1.7V505.1z"/>
	<path class="st5" d="M390.4,509c-0.4,0.2-1.2,0.4-2.1,0.4c-2.4,0-3.9-1.6-3.9-4.2c0-2.5,1.6-4.4,4.3-4.4c0.8,0,1.5,0.2,1.8,0.4
		l-0.3,1.3c-0.3-0.2-0.8-0.3-1.5-0.3c-1.6,0-2.5,1.3-2.5,2.9c0,1.8,1.1,2.9,2.5,2.9c0.7,0,1.2-0.2,1.6-0.3L390.4,509z"/>
	<path class="st5" d="M398.8,509.2h-1.7v-4.8c0-1.2-0.4-2.2-1.6-2.2c-0.9,0-1.8,0.7-1.8,2v5.1H392v-12h1.7v4.9h0
		c0.5-0.9,1.5-1.3,2.4-1.3c1.2,0,2.7,0.8,2.7,3.4V509.2z"/>
	<path class="st5" d="M401.9,499.7c-0.6,0-1-0.4-1-1c0-0.6,0.4-1,1-1c0.6,0,1,0.4,1,1C402.9,499.2,402.5,499.7,401.9,499.7
		 M402.7,509.2H401v-8.3h1.7V509.2z"/>
	<path class="st5" d="M407,506.9c-0.4,1.5-1.2,3.4-1.8,4.3l-1.2,0.1c0.4-1.1,0.9-2.9,1.1-4.3L407,506.9z"/>
	<path class="st5" d="M417.5,499.5c-0.4-0.2-1.1-0.5-2-0.5c-1.4,0-1.9,0.8-1.9,1.5c0,1,0.6,1.5,2.1,2.1c1.8,0.8,2.7,1.8,2.7,3.4
		c0,1.9-1.4,3.4-4,3.4c-1.1,0-2.2-0.3-2.8-0.7l0.4-1.5c0.6,0.4,1.5,0.7,2.5,0.7c1.4,0,2.1-0.7,2.1-1.7c0-1-0.6-1.6-1.9-2.1
		c-1.7-0.7-2.9-1.7-2.9-3.3c0-1.8,1.5-3.2,3.7-3.2c1.1,0,1.9,0.3,2.4,0.5L417.5,499.5z"/>
	<path class="st5" d="M426.9,509.2h-1.7v-4.8c0-1.2-0.4-2.2-1.6-2.2c-0.9,0-1.8,0.7-1.8,2v5.1h-1.7v-12h1.7v4.9h0
		c0.5-0.9,1.5-1.3,2.4-1.3c1.2,0,2.7,0.8,2.7,3.4V509.2z"/>
	<path class="st5" d="M430,499.7c-0.6,0-1-0.4-1-1c0-0.6,0.4-1,1-1c0.6,0,1,0.4,1,1C431,499.2,430.6,499.7,430,499.7 M430.9,509.2
		h-1.7v-8.3h1.7V509.2z"/>
	<path class="st5" d="M439.9,509.2h-1.7v-4.8c0-1.2-0.4-2.2-1.6-2.2c-0.9,0-1.8,0.7-1.8,2v5h-1.7v-5.9c0-0.9,0-1.6-0.1-2.3h1.5
		l0.1,1.2h0c0.4-0.7,1.3-1.4,2.5-1.4c1.3,0,2.7,0.8,2.7,3.4V509.2z"/>
	<path class="st5" d="M447.9,507.2c0,0.7,0,1.4,0.1,2h-1.6l-0.1-1h0c-0.5,0.6-1.3,1.1-2.3,1.1c-1.5,0-2.4-1.1-2.4-2.4
		c0-2.1,1.8-3.1,4.6-3.1c0-0.6,0-1.8-1.7-1.8c-0.7,0-1.5,0.2-2,0.6l-0.4-1.2c0.6-0.4,1.6-0.7,2.7-0.7c2.4,0,3.1,1.6,3.1,3.4V507.2z
		 M446.2,505.1c-1.4,0-2.9,0.3-2.9,1.7c0,0.9,0.6,1.3,1.2,1.3c0.9,0,1.7-0.7,1.7-1.7V505.1z"/>
	<path class="st5" d="M457,500.9c0,0.6-0.1,1.3-0.1,2.4v4.7c0,1.6-0.1,4.7-4,4.7c-1,0-2-0.2-2.6-0.6l0.4-1.3
		c0.5,0.3,1.3,0.6,2.2,0.6c1.4,0,2.3-0.8,2.3-2.6V508h0c-0.4,0.7-1.2,1.2-2.3,1.2c-1.9,0-3.3-1.7-3.3-4c0-2.8,1.7-4.4,3.5-4.4
		c1.2,0,1.9,0.6,2.3,1.3h0l0.1-1.1H457z M455.2,504.1c0-1.1-0.7-2-1.8-2c-1.2,0-2,1.1-2,2.9c0,1.6,0.7,2.8,2,2.8
		c0.9,0,1.8-0.7,1.8-2.1V504.1z"/>
	<path class="st5" d="M464.9,507.2c0,0.7,0,1.4,0.1,2h-1.6l-0.1-1h0c-0.5,0.6-1.3,1.1-2.3,1.1c-1.5,0-2.4-1.1-2.4-2.4
		c0-2.1,1.8-3.1,4.6-3.1c0-0.6,0-1.8-1.7-1.8c-0.7,0-1.5,0.2-2,0.6l-0.4-1.2c0.6-0.4,1.6-0.7,2.7-0.7c2.4,0,3.1,1.6,3.1,3.4V507.2z
		 M463.2,505.1c-1.4,0-2.9,0.3-2.9,1.7c0,0.9,0.6,1.3,1.2,1.3c0.9,0,1.7-0.7,1.7-1.7V505.1z"/>
	<path class="st5" d="M477.8,500.9l-2.5,8.3h-1.6l-1.1-3.7c-0.3-0.9-0.4-1.7-0.6-2.6h0c-0.2,1-0.4,1.8-0.6,2.7l-1.1,3.6h-1.6
		l-2.4-8.3h1.8l0.9,4c0.2,0.9,0.4,1.8,0.5,2.6h0c0.2-0.9,0.4-1.8,0.7-2.6l1.1-4h1.4l1.1,3.9c0.3,1,0.5,1.8,0.6,2.7h0
		c0.1-0.9,0.3-1.7,0.6-2.7l1-3.9H477.8z"/>
	<path class="st5" d="M484.9,507.2c0,0.7,0,1.4,0.1,2h-1.6l-0.1-1h0c-0.5,0.6-1.3,1.1-2.3,1.1c-1.5,0-2.4-1.1-2.4-2.4
		c0-2.1,1.8-3.1,4.6-3.1c0-0.6,0-1.8-1.7-1.8c-0.7,0-1.5,0.2-2,0.6l-0.4-1.2c0.6-0.4,1.6-0.7,2.7-0.7c2.4,0,3.1,1.6,3.1,3.4V507.2z
		 M483.2,505.1c-1.4,0-2.9,0.3-2.9,1.7c0,0.9,0.6,1.3,1.2,1.3c0.9,0,1.7-0.7,1.7-1.7V505.1z"/>
	<path class="st5" d="M307.1,32.7h-1.8l-1-3.4h-3.5l-1,3.4H298l3.5-11.5h2.1L307.1,32.7z M304,28l-0.9-3c-0.2-0.8-0.4-1.6-0.6-2.3h0
		c-0.2,0.7-0.3,1.5-0.5,2.2l-0.9,3H304z"/>
	<path class="st5" d="M312.8,26c-0.2,0-0.3,0-0.5,0c-1.2,0-1.9,1-1.9,2.4v4.4h-1.7V27c0-1,0-1.8-0.1-2.5h1.5l0.1,1.5h0.1
		c0.4-1,1.2-1.7,2.1-1.7c0.2,0,0.3,0,0.4,0V26z"/>
	<path class="st5" d="M319.9,30.8c0,0.7,0,1.4,0.1,2h-1.6l-0.1-1h0c-0.5,0.6-1.3,1.1-2.3,1.1c-1.5,0-2.4-1.1-2.4-2.4
		c0-2.1,1.8-3.1,4.6-3.1c0-0.6,0-1.8-1.7-1.8c-0.7,0-1.5,0.2-2,0.6l-0.4-1.2c0.6-0.4,1.6-0.7,2.7-0.7c2.4,0,3.1,1.6,3.1,3.4V30.8z
		 M318.2,28.6c-1.4,0-2.9,0.3-2.9,1.7c0,0.9,0.6,1.3,1.2,1.3c0.9,0,1.7-0.7,1.7-1.7V28.6z"/>
	<path class="st5" d="M328.9,32.7h-1.7v-4.8c0-1.2-0.4-2.2-1.6-2.2c-0.9,0-1.8,0.7-1.8,1.9v5.1h-1.7v-12h1.7v4.9h0
		c0.5-0.9,1.5-1.3,2.4-1.3c1.2,0,2.7,0.8,2.7,3.4V32.7z"/>
	<path class="st5" d="M341.3,32.7h-2.1l-2.4-3.8l-0.7,0.8v3h-1.7v-12h1.7v7.5h0c0.2-0.3,0.4-0.7,0.6-1l2.1-2.8h2.1l-2.9,3.4
		L341.3,32.7z"/>
	<path class="st5" d="M348.4,32.4c-0.6,0.3-1.5,0.5-2.6,0.5c-2.5,0-3.9-1.7-3.9-4.2c0-2.5,1.4-4.4,3.7-4.4c2.3,0,3.3,1.9,3.3,4
		c0,0.3,0,0.5,0,0.7h-5.2c0,1.9,1.2,2.6,2.5,2.6c0.9,0,1.5-0.2,2.1-0.4L348.4,32.4z M347.1,27.8c0-1-0.4-2.2-1.7-2.2
		c-1.3,0-1.8,1.3-1.9,2.2H347.1z"/>
	<polygon class="st5" points="360.7,22.7 357.6,22.7 357.6,32.7 355.9,32.7 355.9,22.7 352.8,22.7 352.8,21.3 360.7,21.3 	"/>
	<path class="st5" d="M369.1,28.5c0,3.1-2,4.4-3.9,4.4c-2.1,0-3.8-1.6-3.8-4.2c0-2.8,1.7-4.4,3.9-4.4
		C367.6,24.3,369.1,26,369.1,28.5 M365.3,25.6c-1.5,0-2.1,1.6-2.1,3c0,1.6,0.8,3,2,3c1.3,0,2-1.4,2-3
		C367.3,27.2,366.7,25.6,365.3,25.6"/>
	<path class="st5" d="M374.9,26c-0.2,0-0.3,0-0.5,0c-1.2,0-1.9,1-1.9,2.4v4.4h-1.7V27c0-1,0-1.8-0.1-2.5h1.5l0.1,1.5h0.1
		c0.4-1,1.2-1.7,2.1-1.7c0.2,0,0.3,0,0.4,0V26z"/>
	<path class="st5" d="M382.1,30.8c0,0.7,0,1.4,0.1,2h-1.6l-0.1-1h0c-0.5,0.6-1.3,1.1-2.3,1.1c-1.5,0-2.4-1.1-2.4-2.4
		c0-2.1,1.8-3.1,4.6-3.1c0-0.6,0-1.8-1.7-1.8c-0.7,0-1.5,0.2-2,0.6l-0.4-1.2c0.6-0.4,1.6-0.7,2.7-0.7c2.4,0,3.1,1.6,3.1,3.4V30.8z
		 M380.4,28.6c-1.4,0-2.9,0.3-2.9,1.7c0,0.9,0.6,1.3,1.2,1.3c0.9,0,1.7-0.7,1.7-1.7V28.6z"/>
	<path class="st5" d="M391.1,32.7h-1.7v-4.8c0-1.2-0.4-2.2-1.6-2.2c-0.9,0-1.8,0.7-1.8,2v5h-1.7v-5.9c0-0.9,0-1.6-0.1-2.3h1.5
		l0.1,1.2h0c0.4-0.7,1.3-1.4,2.5-1.4c1.3,0,2.7,0.8,2.7,3.4V32.7z"/>
	<path class="st5" d="M400.4,28.5c0,3.1-2,4.4-3.9,4.4c-2.1,0-3.8-1.6-3.8-4.2c0-2.8,1.7-4.4,3.9-4.4
		C398.9,24.3,400.4,26,400.4,28.5 M396.6,25.6c-1.5,0-2.1,1.6-2.1,3c0,1.6,0.8,3,2,3c1.3,0,2-1.4,2-3
		C398.6,27.2,398.1,25.6,396.6,25.6"/>
	<path class="st5" d="M413.5,32.7h-1.7V28c0-1.4-0.4-2.3-1.5-2.3c-0.8,0-1.6,0.7-1.6,1.9v5.1H407v-5c0-1.2-0.4-2-1.4-2
		c-0.8,0-1.7,0.7-1.7,2v5h-1.7v-5.9c0-0.9,0-1.6-0.1-2.3h1.5l0.1,1.2h0c0.4-0.7,1.2-1.4,2.4-1.4c1,0,1.8,0.6,2.2,1.5h0
		c0.6-0.9,1.4-1.5,2.6-1.5c1.2,0,2.6,0.8,2.6,3.4V32.7z"/>
	<path class="st5" d="M422.8,28.5c0,3.1-2,4.4-3.9,4.4c-2.1,0-3.8-1.6-3.8-4.2c0-2.8,1.7-4.4,3.9-4.4
		C421.3,24.3,422.8,26,422.8,28.5 M419,25.6c-1.5,0-2.1,1.6-2.1,3c0,1.6,0.8,3,2,3c1.3,0,2-1.4,2-3C421,27.2,420.4,25.6,419,25.6"/>
	<path class="st5" d="M431.3,32.7h-1.7v-4.8c0-1.2-0.4-2.2-1.6-2.2c-0.9,0-1.8,0.7-1.8,2v5h-1.7v-5.9c0-0.9,0-1.6-0.1-2.3h1.5
		l0.1,1.2h0c0.4-0.7,1.3-1.4,2.5-1.4c1.3,0,2.7,0.8,2.7,3.4V32.7z"/>
	<path class="st5" d="M393.4,301.6h-2l-3.2-5.4l-1,1.2v4.2h-1.7v-11.5h1.7v5.4h0c0.3-0.4,0.6-0.9,0.8-1.3l3-4.1h2.1l-3.8,4.9
		L393.4,301.6z"/>
	<path class="st5" d="M401.2,299.2c0,0.9,0,1.7,0.1,2.4h-1.5l-0.1-1.2h0c-0.3,0.6-1.2,1.4-2.5,1.4c-1.4,0-2.7-0.9-2.7-3.5v-4.9h1.7
		v4.6c0,1.4,0.4,2.4,1.5,2.4c0.8,0,1.7-0.6,1.7-1.9v-5.1h1.7V299.2z"/>
	<path class="st5" d="M404.3,292c-0.6,0-1-0.4-1-1c0-0.6,0.4-1,1-1c0.6,0,1,0.4,1,1C405.3,291.6,404.9,292,404.3,292 M405.1,301.6
		h-1.7v-8.3h1.7V301.6z"/>
	<rect x="407.4" y="289.6" class="st5" width="1.7" height="12"/>
	<polygon class="st5" points="421.8,291.2 416.3,300.1 416.3,300.1 421.9,300.1 421.9,301.6 414,301.6 414,300.6 419.6,291.6 
		419.6,291.6 414.5,291.6 414.5,290.1 421.8,290.1 	"/>
	<path class="st5" d="M430.6,297.4c0,3.1-2,4.4-3.9,4.4c-2.1,0-3.8-1.6-3.8-4.2c0-2.8,1.7-4.4,3.9-4.4
		C429.1,293.1,430.6,294.9,430.6,297.4 M426.8,294.5c-1.5,0-2.1,1.6-2.1,3c0,1.6,0.8,3,2,3c1.3,0,2-1.4,2-3
		C428.8,296.1,428.2,294.5,426.8,294.5"/>
	<path class="st5" d="M434.3,300.8c0,1.7-0.3,2.7-1,3.4c-0.7,0.6-1.7,0.9-2.6,0.9l-0.2-1.4c1.8-0.2,2-1.1,2-3.5v-7h1.7V300.8z
		 M433.4,292c-0.6,0-1-0.4-1-1c0-0.6,0.4-1,1-1c0.6,0,1,0.4,1,1C434.4,291.6,434,292,433.4,292"/>
	<path class="st5" d="M443.6,297.4c0,3.1-2,4.4-3.9,4.4c-2.1,0-3.8-1.6-3.8-4.2c0-2.8,1.7-4.4,3.9-4.4
		C442.1,293.1,443.6,294.9,443.6,297.4 M439.8,294.5c-1.5,0-2.1,1.6-2.1,3c0,1.6,0.8,3,2,3c1.3,0,2-1.4,2-3
		C441.8,296.1,441.2,294.5,439.8,294.5"/>
	<path class="st5" d="M447.2,300.8c0,1.7-0.3,2.7-1,3.4c-0.7,0.6-1.7,0.9-2.6,0.9l-0.2-1.4c1.8-0.2,2-1.1,2-3.5v-7h1.7V300.8z
		 M446.4,292c-0.6,0-1-0.4-1-1c0-0.6,0.4-1,1-1c0.6,0,1,0.4,1,1C447.4,291.6,447,292,446.4,292"/>
	<path class="st5" d="M450.3,292c-0.6,0-1-0.4-1-1c0-0.6,0.4-1,1-1c0.6,0,1,0.4,1,1C451.3,291.6,450.9,292,450.3,292 M451.2,301.6
		h-1.7v-8.3h1.7V301.6z"/>
	<path class="st5" d="M160.5,240.2c0,3-1.4,4-3.5,4c-0.5,0-1.1-0.1-1.5-0.2l0.2-1.4c0.3,0.1,0.7,0.2,1.1,0.2c1.2,0,1.9-0.5,1.9-2.6
		v-7.6h1.7V240.2z"/>
	<path class="st5" d="M168.4,242c0,0.7,0,1.4,0.1,2H167l-0.1-1h0c-0.5,0.6-1.3,1.1-2.3,1.1c-1.5,0-2.4-1.1-2.4-2.4
		c0-2.1,1.8-3.1,4.6-3.1c0-0.6,0-1.8-1.7-1.8c-0.7,0-1.5,0.2-2,0.6l-0.4-1.2c0.6-0.4,1.6-0.7,2.7-0.7c2.4,0,3.1,1.6,3.1,3.4V242z
		 M166.7,239.8c-1.4,0-2.9,0.3-2.9,1.7c0,0.9,0.6,1.3,1.2,1.3c0.9,0,1.7-0.7,1.7-1.7V239.8z"/>
	<rect x="170.6" y="231.9" class="st5" width="1.7" height="12"/>
	<path class="st5" d="M180.4,242c0,0.7,0,1.4,0.1,2h-1.6l-0.1-1h0c-0.5,0.6-1.3,1.1-2.3,1.1c-1.5,0-2.4-1.1-2.4-2.4
		c0-2.1,1.8-3.1,4.6-3.1c0-0.6,0-1.8-1.7-1.8c-0.7,0-1.5,0.2-2,0.6l-0.4-1.2c0.6-0.4,1.6-0.7,2.7-0.7c2.4,0,3.1,1.6,3.1,3.4V242z
		 M178.7,239.8c-1.4,0-2.9,0.3-2.9,1.7c0,0.9,0.6,1.3,1.2,1.3c0.9,0,1.7-0.7,1.7-1.7V239.8z"/>
	<path class="st5" d="M189.4,244h-1.7v-4.8c0-1.2-0.4-2.2-1.6-2.2c-0.9,0-1.8,0.7-1.8,2v5h-1.7V238c0-0.9,0-1.6-0.1-2.3h1.5l0.1,1.2
		h0c0.4-0.7,1.3-1.4,2.5-1.4c1.3,0,2.7,0.8,2.7,3.4V244z"/>
	<polygon class="st5" points="201.9,234 198.8,234 198.8,244 197,244 197,234 193.9,234 193.9,232.5 201.9,232.5 	"/>
	<path class="st5" d="M210.2,239.8c0,3.1-2,4.4-3.9,4.4c-2.1,0-3.8-1.6-3.8-4.2c0-2.8,1.7-4.4,3.9-4.4
		C208.7,235.5,210.2,237.2,210.2,239.8 M206.4,236.8c-1.5,0-2.1,1.6-2.1,3c0,1.6,0.8,3,2,3c1.3,0,2-1.4,2-3
		C208.4,238.4,207.8,236.8,206.4,236.8"/>
	<path class="st5" d="M218.8,244h-2.1l-2.4-3.8l-0.7,0.8v3h-1.7v-12h1.7v7.5h0c0.2-0.3,0.4-0.7,0.6-1l2.1-2.8h2.1l-2.9,3.4
		L218.8,244z"/>
	<path class="st5" d="M226.3,235.7l-2,5.7c-1,2.7-1.7,4.2-2.7,5.2c-0.8,0.7-1.5,1-1.9,1.1l-0.5-1.5c1.8-0.6,2.4-2.3,2.4-2.5
		c0-0.1,0-0.2-0.1-0.4l-2.8-7.6h1.9l1.5,4.7c0.2,0.5,0.3,1.2,0.4,1.7h0c0.1-0.5,0.3-1.1,0.4-1.7l1.3-4.7H226.3z"/>
	<path class="st5" d="M234.7,239.8c0,3.1-2,4.4-3.9,4.4c-2.1,0-3.8-1.6-3.8-4.2c0-2.8,1.7-4.4,3.9-4.4
		C233.2,235.5,234.7,237.2,234.7,239.8 M230.9,236.8c-1.5,0-2.1,1.6-2.1,3c0,1.6,0.8,3,2,3c1.3,0,2-1.4,2-3
		C232.9,238.4,232.3,236.8,230.9,236.8"/>
	<polygon class="st5" points="246.7,234 243.6,234 243.6,244 241.8,244 241.8,234 238.7,234 238.7,232.5 246.7,232.5 	"/>
	<path class="st5" d="M255,239.8c0,3.1-2,4.4-3.9,4.4c-2.1,0-3.8-1.6-3.8-4.2c0-2.8,1.7-4.4,3.9-4.4
		C253.5,235.5,255,237.2,255,239.8 M251.2,236.8c-1.5,0-2.1,1.6-2.1,3c0,1.6,0.8,3,2,3c1.3,0,2-1.4,2-3
		C253.2,238.4,252.6,236.8,251.2,236.8"/>
	<path class="st5" d="M267.4,235.7l-2.5,8.3h-1.6l-1.1-3.7c-0.3-0.9-0.4-1.7-0.6-2.6h0c-0.2,1-0.4,1.8-0.6,2.7l-1.1,3.6h-1.6
		l-2.4-8.3h1.8l0.9,4c0.2,0.9,0.4,1.8,0.5,2.6h0c0.2-0.9,0.4-1.8,0.7-2.6l1.1-4h1.4l1.1,3.9c0.3,1,0.5,1.8,0.6,2.7h0
		c0.1-0.9,0.3-1.7,0.6-2.7l1-3.9H267.4z"/>
	<path class="st5" d="M274.8,243.6c-0.6,0.3-1.5,0.5-2.6,0.5c-2.5,0-3.9-1.7-3.9-4.2c0-2.5,1.4-4.4,3.7-4.4c2.3,0,3.3,1.9,3.3,4
		c0,0.3,0,0.5,0,0.7h-5.2c0,1.9,1.2,2.6,2.5,2.6c0.9,0,1.5-0.2,2.1-0.4L274.8,243.6z M273.5,239c0-1-0.4-2.2-1.7-2.2
		c-1.3,0-1.8,1.3-1.9,2.2H273.5z"/>
	<path class="st5" d="M281,237.2c-0.1,0-0.3,0-0.5,0c-1.2,0-1.9,1-1.9,2.4v4.4h-1.7v-5.7c0-1,0-1.8-0.1-2.5h1.5l0.1,1.5h0.1
		c0.4-1,1.2-1.7,2.1-1.7c0.2,0,0.3,0,0.4,0V237.2z"/>
	<path class="st5" d="M45.5,296.1c0.9,0.3,1.3,1.1,1.6,2.3c0.3,1.5,0.6,2.7,0.9,3.1h-1.8c-0.2-0.3-0.4-1.3-0.7-2.7
		c-0.3-1.5-0.9-2.1-2.1-2.1h-1v4.9h-1.7v-11.3c0.7-0.1,1.8-0.2,2.8-0.2c1.5,0,2.6,0.3,3.3,0.9c0.6,0.5,0.9,1.3,0.9,2.2
		C47.5,294.7,46.6,295.7,45.5,296.1L45.5,296.1z M43.5,295.4c1.4,0,2.3-0.8,2.3-2.1c0-1.5-1-2-2.3-2c-0.6,0-1,0-1.2,0.1v3.9H43.5z"
		/>
	<path class="st5" d="M56.5,297.4c0,3.1-2,4.4-3.9,4.4c-2.1,0-3.8-1.6-3.8-4.2c0-2.8,1.7-4.4,3.9-4.4
		C55,293.1,56.5,294.9,56.5,297.4 M52.7,294.5c-1.5,0-2.1,1.6-2.1,3c0,1.6,0.8,3,2,3c1.3,0,2-1.4,2-3
		C54.7,296.1,54.2,294.5,52.7,294.5"/>
	<path class="st5" d="M59.8,294.6c0.6-0.9,1.5-1.4,2.6-1.4c1.9,0,3.3,1.6,3.3,4.2c0,3-1.8,4.4-3.5,4.4c-1,0-1.8-0.5-2.2-1.1h0v4.3
		h-1.7V296c0-1.1,0-1.9-0.1-2.7h1.5L59.8,294.6L59.8,294.6z M60,298.3c0,1.5,1,2.1,1.9,2.1c1.3,0,2.1-1.2,2.1-3c0-1.6-0.7-2.9-2-2.9
		c-1,0-1.9,1-1.9,2.2V298.3z"/>
	<path class="st5" d="M69,294.6c0.6-0.9,1.5-1.4,2.6-1.4c1.9,0,3.3,1.6,3.3,4.2c0,3-1.8,4.4-3.5,4.4c-1,0-1.8-0.5-2.2-1.1h0v4.3
		h-1.7V296c0-1.1,0-1.9-0.1-2.7h1.5L69,294.6L69,294.6z M69.2,298.3c0,1.5,1,2.1,1.9,2.1c1.3,0,2.1-1.2,2.1-3c0-1.6-0.7-2.9-2-2.9
		c-1,0-1.9,1-1.9,2.2V298.3z"/>
	<path class="st5" d="M83.7,297.4c0,3.1-2,4.4-3.9,4.4c-2.1,0-3.8-1.6-3.8-4.2c0-2.8,1.7-4.4,3.9-4.4
		C82.2,293.1,83.7,294.9,83.7,297.4 M79.9,294.5c-1.5,0-2.1,1.6-2.1,3c0,1.6,0.8,3,2,3c1.3,0,2-1.4,2-3
		C81.9,296.1,81.4,294.5,79.9,294.5"/>
	<path class="st5" d="M92.3,301.6h-1.7v-4.8c0-1.2-0.4-2.2-1.6-2.2c-0.9,0-1.8,0.7-1.8,2v5h-1.7v-5.9c0-0.9,0-1.6-0.1-2.3h1.5
		l0.1,1.2h0c0.4-0.7,1.3-1.4,2.5-1.4c1.3,0,2.7,0.8,2.7,3.4V301.6z"/>
	<path class="st5" d="M101.4,293.3c0,0.6-0.1,1.3-0.1,2.4v4.7c0,1.7-0.1,4.7-4.1,4.7c-1,0-2-0.2-2.6-0.6l0.4-1.3
		c0.5,0.3,1.3,0.6,2.2,0.6c1.3,0,2.3-0.8,2.3-2.6v-0.8h0c-0.4,0.7-1.2,1.2-2.3,1.2c-1.9,0-3.3-1.7-3.3-4c0-2.8,1.7-4.4,3.5-4.4
		c1.2,0,1.9,0.6,2.3,1.3h0l0.1-1.1H101.4z M99.6,296.5c0-1.1-0.7-2-1.8-2c-1.2,0-2,1.1-2,2.9c0,1.6,0.7,2.8,2,2.8
		c0.9,0,1.8-0.7,1.8-2.1V296.5z"/>
	<path class="st5" d="M104.4,292.1c-0.6,0-1-0.4-1-1c0-0.6,0.4-1,1-1s1,0.4,1,1C105.4,291.6,105,292.1,104.4,292.1 M105.3,301.6
		h-1.7v-8.3h1.7V301.6z"/>
	<line class="st0" x1="466.2" y1="513.1" x2="466.2" y2="529.3"/>
	<path class="st0" d="M527,0c-12.5,38.6-39.1,119.8-48.4,144.7c-2.8,7.4-12.4,35.3-12.4,51v298.8"/>
	<line class="st0" x1="306.8" y1="494.5" x2="306.8" y2="394.2"/>
	<line class="st0" x1="306.8" y1="513.1" x2="306.8" y2="529.3"/>
	<path class="st2" d="M296,256h21.6l1.2-12.6h-5.6c-1.4-9-2.1-18.4-2.9-29l-7.2,0c-0.8,10.6-1.5,20-2.8,29h-5.6L296,256z"/>
	<polygon class="st2" points="311.4,214 311.4,209.7 310.4,209.7 310.4,209 303.1,209 303.1,209.8 302.1,209.8 302.1,214 	"/>
	<rect x="302.2" y="198.5" class="st2" width="9.3" height="9.9"/>
	<polygon class="st2" points="308.9,188.1 308.3,188.1 308.3,178.7 307.3,178.7 307.2,165 306.3,165 306.3,178.7 305.2,178.7 
		305.2,188.1 304.6,188.1 304.6,197.5 308.9,197.5 	"/>
	<path class="st2" d="M315.7,260.2v-2.7h-17.8v2.6h0c-3.3,14.6-7.7,27.3-19.1,45h9.6c3.2-5.7,7-12.4,14-14.3
		c1.3-0.3,2.8-0.6,4.4-0.6c1.6,0,3.1,0.2,4.4,0.6c7,1.9,10.7,8.4,13.9,14.3l9.8,0C323.5,287.5,319,274.7,315.7,260.2"/>
	<path class="st2" d="M503.1,138.4c0,4.7-3.8,8.5-8.5,8.5h-20.8c-4.7,0-8.5-3.8-8.5-8.5v-20.8c0-4.7,3.8-8.5,8.5-8.5h20.8
		c4.7,0,8.5,3.8,8.5,8.5V138.4z"/>
	<path class="st3" d="M484.2,136.6c-4.6,0-8.4-3.8-8.4-8.4c0-4.6,3.8-8.4,8.4-8.4c4.6,0,8.4,3.8,8.4,8.4
		C492.6,132.9,488.8,136.6,484.2,136.6 M476.4,128.2c0,4.3,3.5,7.8,7.8,7.8c4.3,0,7.8-3.5,7.8-7.8c0-4.3-3.5-7.8-7.8-7.8
		C479.8,120.4,476.4,123.9,476.4,128.2 M481.4,131c0.4,0.3,1.3,0.6,2.2,0.6c1.5,0,2-0.9,2-1.4c0-1.2-1.2-1.6-2.3-1.6h-0.8v-1.3h0.8
		c0.9,0,2-0.3,2-1.3c0-0.6-0.4-1.2-1.6-1.2c-0.8,0-1.5,0.3-2,0.6l-0.4-1.3c0.5-0.4,1.6-0.7,2.7-0.7c2.1,0,3,1.1,3,2.2
		c0,1-0.6,1.7-1.7,2.1v0c1.2,0.3,2.1,1.1,2.1,2.3c0,1.5-1.3,2.8-3.7,2.8c-1.2,0-2.2-0.3-2.6-0.6L481.4,131z"/>
</g>
</svg>
