<?xml version="1.0" encoding="utf-8"?>
<!-- Generator: Adobe Illustrator 21.1.0, SVG Export Plug-In . SVG Version: 6.00 Build 0)  -->
<svg version="1.1" id="レイヤー_1" xmlns="http://www.w3.org/2000/svg" xmlns:xlink="http://www.w3.org/1999/xlink" x="0px"
	 y="0px" viewBox="0 0 611.3 529.3" style="enable-background:new 0 0 611.3 529.3;" xml:space="preserve">
<style type="text/css">
	.st0{clip-path:url(#SVGID_2_);fill:none;stroke:#848484;stroke-width:2;stroke-miterlimit:10;}
	.st1{clip-path:url(#SVGID_2_);fill:none;stroke:#848484;stroke-width:3;stroke-miterlimit:10;stroke-dasharray:19.891,7.956;}
	.st2{clip-path:url(#SVGID_2_);fill:#848484;}
	.st3{clip-path:url(#SVGID_2_);fill:#FFFFFF;}
	.st4{clip-path:url(#SVGID_2_);fill:none;stroke:#848484;stroke-miterlimit:10;}
	.st5{clip-path:url(#SVGID_2_);fill:#727171;}
	.st6{clip-path:url(#SVGID_2_);fill:none;stroke:#727171;stroke-width:0.25;stroke-miterlimit:10;}
</style>
<g>
	<defs>
		<rect id="SVGID_1_" width="611.3" height="529.3"/>
	</defs>
	<clipPath id="SVGID_2_">
		<use xlink:href="#SVGID_1_"  style="overflow:visible;"/>
	</clipPath>
	<path class="st0" d="M466.2,529.3V195.7c0-15.7,9.7-43.6,12.4-51C487.9,119.8,514.5,38.6,527,0"/>
	<path class="st0" d="M409,195.7c0-15.7,9.7-43.6,12.4-51c9.3-24.9,35.9-106.1,48.4-144.7"/>
	<path class="st0" d="M139.7,140.7v-29.5c0-15.7,9.7-43.6,12.4-51c4.3-11.4,12.2-34.7,20.7-60.3"/>
	<path class="st0" d="M530.2,529.3V195.7c0-15.7,9.7-43.6,12.4-51c6.3-16.7,20.3-59,32.7-96.6"/>
	<line class="st1" x1="581.7" y1="525.8" x2="581.7" y2="0.7"/>
	<line class="st0" x1="586.7" y1="402.2" x2="611.9" y2="402.2"/>
	<line class="st0" x1="0" y1="402.2" x2="576.7" y2="402.2"/>
	<line class="st0" x1="586.7" y1="264.7" x2="611.9" y2="264.7"/>
	<line class="st0" x1="322" y1="264.7" x2="576.7" y2="264.7"/>
	<line class="st0" x1="0" y1="264.7" x2="291.8" y2="264.7"/>
	<line class="st0" x1="586.7" y1="127.2" x2="611.9" y2="127.2"/>
	<line class="st0" x1="249.2" y1="127.2" x2="576.7" y2="127.2"/>
	<line class="st0" x1="0" y1="43.2" x2="158.3" y2="43.2"/>
	<path class="st0" d="M306.8,394.2l69.4-129.6l-1-30.1c0,0,1.2-38.9,37.8-38.9h53.2"/>
	<path class="st0" d="M238.8,227.8l0.6-58.1c0-15.7,9.7-43.6,12.4-51c7.6-20.1,26.4-77.3,39.9-118.7"/>
	<polyline class="st0" points="306.8,394.2 238.4,264.7 238.6,246.3 	"/>
	<path class="st0" d="M0,349.1C29.3,299.9,101,154,118.3,134.2c7.7-8.8,21.4-7.6,21.4,9.4c0,6.2,0,121,0,121l-1,183.7
		c0,0-1.2,38.9-37.8,38.9H0"/>
	<line class="st0" x1="306.8" y1="394.2" x2="306.8" y2="529.3"/>
	<path class="st2" d="M300,438.3c0,4.7-3.8,8.5-8.5,8.5h-20.8c-4.7,0-8.5-3.8-8.5-8.5v-20.8c0-4.7,3.8-8.5,8.5-8.5h20.8
		c4.7,0,8.5,3.8,8.5,8.5V438.3z"/>
	<path class="st3" d="M281.1,436.5c-4.6,0-8.4-3.8-8.4-8.4s3.8-8.4,8.4-8.4c4.6,0,8.4,3.8,8.4,8.4
		C289.5,432.7,285.7,436.5,281.1,436.5 M273.2,428.1c0,4.3,3.5,7.8,7.8,7.8c4.3,0,7.8-3.5,7.8-7.8c0-4.3-3.5-7.8-7.8-7.8
		C276.7,420.2,273.2,423.8,273.2,428.1 M280.5,424.9L280.5,424.9l-1.7,0.8l-0.3-1.3l2.1-1h1.5v9.3h-1.7V424.9z"/>
	<path class="st2" d="M238.1,138.4c0,4.7-3.8,8.5-8.5,8.5h-20.8c-4.7,0-8.5-3.8-8.5-8.5v-20.8c0-4.7,3.8-8.5,8.5-8.5h20.8
		c4.7,0,8.5,3.8,8.5,8.5V138.4z"/>
	<path class="st3" d="M219.2,136.6c-4.6,0-8.4-3.8-8.4-8.4c0-4.6,3.8-8.4,8.4-8.4c4.6,0,8.4,3.8,8.4,8.4
		C227.6,132.9,223.8,136.6,219.2,136.6 M211.4,128.2c0,4.3,3.5,7.8,7.8,7.8c4.3,0,7.8-3.5,7.8-7.8c0-4.3-3.5-7.8-7.8-7.8
		C214.8,120.4,211.4,123.9,211.4,128.2 M216,132.8v-1.1l1.1-1c2.5-2.3,3.4-3.2,3.4-4.3c0-0.8-0.4-1.6-1.8-1.6
		c-0.8,0-1.6,0.4-2.1,0.8l-0.5-1.2c0.7-0.6,1.8-1,2.9-1c2.3,0,3.2,1.5,3.2,2.8c0,1.7-1.2,2.8-3.2,4.5l-0.8,0.6v0h4.2v1.4H216z"/>
	<path class="st2" d="M503.1,138.4c0,4.7-3.8,8.5-8.5,8.5h-20.8c-4.7,0-8.5-3.8-8.5-8.5v-20.8c0-4.7,3.8-8.5,8.5-8.5h20.8
		c4.7,0,8.5,3.8,8.5,8.5V138.4z"/>
	<path class="st3" d="M484.2,136.6c-4.6,0-8.4-3.8-8.4-8.4c0-4.6,3.8-8.4,8.4-8.4c4.6,0,8.4,3.8,8.4,8.4
		C492.6,132.9,488.8,136.6,484.2,136.6 M476.4,128.2c0,4.3,3.5,7.8,7.8,7.8c4.3,0,7.8-3.5,7.8-7.8c0-4.3-3.5-7.8-7.8-7.8
		C479.8,120.4,476.4,123.9,476.4,128.2 M481.4,131c0.4,0.3,1.3,0.6,2.2,0.6c1.5,0,2-0.9,2-1.4c0-1.2-1.2-1.6-2.3-1.6h-0.8v-1.3h0.8
		c0.9,0,2-0.3,2-1.3c0-0.6-0.4-1.2-1.6-1.2c-0.8,0-1.5,0.3-2,0.6l-0.4-1.3c0.5-0.4,1.6-0.7,2.7-0.7c2.1,0,3,1.1,3,2.2
		c0,1-0.6,1.7-1.7,2.1v0c1.2,0.3,2.1,1.1,2.1,2.3c0,1.5-1.3,2.8-3.7,2.8c-1.2,0-2.2-0.3-2.6-0.6L481.4,131z"/>
	<path class="st2" d="M549.1,275.1c0,4.7-3.8,8.5-8.5,8.5h-20.8c-4.7,0-8.5-3.8-8.5-8.5v-20.8c0-4.7,3.8-8.5,8.5-8.5h20.8
		c4.7,0,8.5,3.8,8.5,8.5V275.1z"/>
	<path class="st3" d="M530.2,273.3c-4.6,0-8.4-3.8-8.4-8.4c0-4.6,3.8-8.4,8.4-8.4s8.4,3.8,8.4,8.4
		C538.6,269.6,534.8,273.3,530.2,273.3 M522.4,264.9c0,4.3,3.5,7.8,7.8,7.8s7.8-3.5,7.8-7.8c0-4.3-3.5-7.8-7.8-7.8
		C525.9,257.1,522.4,260.6,522.4,264.9 M530.7,269.6v-2.3h-4.5v-1.1l4.2-5.9h1.9v5.7h1.2v1.3h-1.2v2.3H530.7z M530.7,266v-2.8
		c0-0.4,0-1,0-1.5h0c-0.3,0.5-0.5,1-0.8,1.4l-2.2,2.8v0H530.7z"/>
	<path class="st2" d="M601.3,330.9c0,4.7-3.8,8.5-8.5,8.5h-20.8c-4.7,0-8.5-3.8-8.5-8.5v-20.8c0-4.7,3.8-8.5,8.5-8.5h20.8
		c4.7,0,8.5,3.8,8.5,8.5V330.9z"/>
	<path class="st3" d="M582.4,329.1c-4.6,0-8.4-3.8-8.4-8.4c0-4.6,3.8-8.4,8.4-8.4c4.6,0,8.4,3.8,8.4,8.4
		C590.9,325.3,587.1,329.1,582.4,329.1 M574.6,320.6c0,4.3,3.5,7.8,7.8,7.8c4.3,0,7.8-3.5,7.8-7.8c0-4.3-3.5-7.8-7.8-7.8
		C578.1,312.8,574.6,316.4,574.6,320.6 M585.3,317.5h-3.7l-0.3,1.8c0.2,0,0.5-0.1,0.8-0.1c1.9,0,3.5,1,3.5,2.9
		c0,1.7-1.5,3.2-3.8,3.2c-1.1,0-2.1-0.3-2.5-0.6l0.4-1.3c0.4,0.2,1.2,0.5,2.1,0.5c1.1,0,2.1-0.7,2.1-1.6c0-1.1-0.8-1.8-2.6-1.8
		c-0.5,0-1,0.1-1.4,0.1l0.6-4.6h4.9V317.5z"/>
	<line class="st4" x1="256.7" y1="249.1" x2="267.3" y2="264.7"/>
	<path class="st5" d="M322.4,507.7c-1.1,0.2-2.9,0.2-5.5,0.2h-2.1v-9h6.7v1.5h-4.9v6h0.7c2.3,0,3.9-0.1,4.9-0.2L322.4,507.7z
		 M325.2,504.5v7.2h-1.8v-14.1h1.8v5.4h2.4v1.5H325.2z"/>
	<path class="st6" d="M322.4,507.7c-1.1,0.2-2.9,0.2-5.5,0.2h-2.1v-9h6.7v1.5h-4.9v6h0.7c2.3,0,3.9-0.1,4.9-0.2L322.4,507.7z
		 M325.2,504.5v7.2h-1.8v-14.1h1.8v5.4h2.4v1.5H325.2z"/>
	<path class="st5" d="M329.7,498.8h6.8v9h-6.8V498.8z M334.7,500.4h-3.2v5.9h3.2V500.4z M340.4,504.6v7.2h-1.8v-14.1h1.8v5.4h2.2
		v1.5H340.4z"/>
	<path class="st6" d="M329.7,498.8h6.8v9h-6.8V498.8z M334.7,500.4h-3.2v5.9h3.2V500.4z M340.4,504.6v7.2h-1.8v-14.1h1.8v5.4h2.2
		v1.5H340.4z"/>
	<path class="st5" d="M352,508.4c-1.6-1.1-2.7-2.2-3.4-3.4c-0.3,0.6-0.8,1.3-1.4,2.1c-0.7,0.7-1.2,1.3-1.8,1.6l-1.3-1.2
		c1-0.6,1.9-1.4,2.6-2.4c0.7-1,1-2,1-3v-1h-3.2v-1.5h3.2v-1.8h1.8v1.8h3.2v1.5h-3.2v1c0,0.9,0.3,1.8,1,2.8c0.7,0.9,1.5,1.6,2.6,2.1
		L352,508.4z M354.1,497.6h1.8v14.1h-1.8V497.6z"/>
	<path class="st6" d="M352,508.4c-1.6-1.1-2.7-2.2-3.4-3.4c-0.3,0.6-0.8,1.3-1.4,2.1c-0.7,0.7-1.2,1.3-1.8,1.6l-1.3-1.2
		c1-0.6,1.9-1.4,2.6-2.4c0.7-1,1-2,1-3v-1h-3.2v-1.5h3.2v-1.8h1.8v1.8h3.2v1.5h-3.2v1c0,0.9,0.3,1.8,1,2.8c0.7,0.9,1.5,1.6,2.6,2.1
		L352,508.4z M354.1,497.6h1.8v14.1h-1.8V497.6z"/>
	<polygon class="st5" points="364.8,498.4 359.6,511 357.7,511 363,498.4 	"/>
	<polygon class="st6" points="364.8,498.4 359.6,511 357.7,511 363,498.4 	"/>
	<path class="st5" d="M373.3,508.3c-1.4-0.9-2.4-2.1-3.2-3.5c-0.8,1.5-1.8,2.7-3.3,3.7l-1.4-1.3c1.1-0.6,2-1.4,2.7-2.5
		c0.7-1.1,1.1-2.2,1.1-3.4v-2.7h1.8v2.7c0,1.1,0.3,2.2,1,3.3c0.7,1.1,1.5,1.8,2.6,2.2L373.3,508.3z M375.6,497.6h1.8v14.1h-1.8
		V497.6z"/>
	<path class="st6" d="M373.3,508.3c-1.4-0.9-2.4-2.1-3.2-3.5c-0.8,1.5-1.8,2.7-3.3,3.7l-1.4-1.3c1.1-0.6,2-1.4,2.7-2.5
		c0.7-1.1,1.1-2.2,1.1-3.4v-2.7h1.8v2.7c0,1.1,0.3,2.2,1,3.3c0.7,1.1,1.5,1.8,2.6,2.2L373.3,508.3z M375.6,497.6h1.8v14.1h-1.8
		V497.6z"/>
	<path class="st5" d="M389.3,507.4c-0.9,0.2-2.8,0.3-5.5,0.3h-2.4v-8.9h1.8v7.4l2.3,0c1.4,0,2.6-0.1,3.6-0.3L389.3,507.4z
		 M391.8,504.6v7.2h-1.8v-14.1h1.8v5.4h2.3v1.5H391.8z"/>
	<path class="st6" d="M389.3,507.4c-0.9,0.2-2.8,0.3-5.5,0.3h-2.4v-8.9h1.8v7.4l2.3,0c1.4,0,2.6-0.1,3.6-0.3L389.3,507.4z
		 M391.8,504.6v7.2h-1.8v-14.1h1.8v5.4h2.3v1.5H391.8z"/>
	<path class="st5" d="M396.9,508.7l-1.4-1.3c3.2-1.7,5.1-4.1,5.7-7h-4.9v-1.5h7C403,503,400.8,506.3,396.9,508.7 M407,504.8v7h-1.8
		v-14.1h1.8v5.6h2.2v1.5H407z"/>
	<path class="st6" d="M396.9,508.7l-1.4-1.3c3.2-1.7,5.1-4.1,5.7-7h-4.9v-1.5h7C403,503,400.8,506.3,396.9,508.7z M407,504.8v7h-1.8
		v-14.1h1.8v5.6h2.2v1.5H407z"/>
	<path class="st5" d="M410.3,509.6l-0.2-1.5c1.5,0,2.8,0,3.9,0v-2.4c-0.9-0.2-1.6-0.6-2.2-1.2c-0.5-0.6-0.8-1.4-0.8-2.3
		c0-1.1,0.4-1.9,1.1-2.6c0.8-0.7,1.7-1,2.8-1c1.1,0,2,0.3,2.8,1c0.7,0.7,1.1,1.5,1.1,2.6c0,0.9-0.3,1.6-0.8,2.2
		c-0.5,0.6-1.3,1-2.2,1.2v2.4c1.4,0,2.7-0.1,3.9-0.2l0.1,1.5C416.8,509.5,413.6,509.6,410.3,509.6 M414.9,500.1
		c-0.6,0-1.1,0.2-1.5,0.6c-0.4,0.4-0.6,0.9-0.6,1.5c0,0.6,0.2,1.1,0.6,1.4c0.4,0.4,0.9,0.6,1.5,0.6c0.6,0,1.1-0.2,1.5-0.6
		c0.4-0.4,0.6-0.9,0.6-1.4c0-0.6-0.2-1.1-0.6-1.5C416,500.3,415.5,500.1,414.9,500.1 M422.2,504.8v7h-1.8v-14.1h1.8v5.6h2.2v1.5
		H422.2z"/>
	<path class="st6" d="M410.3,509.6l-0.2-1.5c1.5,0,2.8,0,3.9,0v-2.4c-0.9-0.2-1.6-0.6-2.2-1.2c-0.5-0.6-0.8-1.4-0.8-2.3
		c0-1.1,0.4-1.9,1.1-2.6c0.8-0.7,1.7-1,2.8-1c1.1,0,2,0.3,2.8,1c0.7,0.7,1.1,1.5,1.1,2.6c0,0.9-0.3,1.6-0.8,2.2
		c-0.5,0.6-1.3,1-2.2,1.2v2.4c1.4,0,2.7-0.1,3.9-0.2l0.1,1.5C416.8,509.5,413.6,509.6,410.3,509.6z M414.9,500.1
		c-0.6,0-1.1,0.2-1.5,0.6c-0.4,0.4-0.6,0.9-0.6,1.5c0,0.6,0.2,1.1,0.6,1.4c0.4,0.4,0.9,0.6,1.5,0.6c0.6,0,1.1-0.2,1.5-0.6
		c0.4-0.4,0.6-0.9,0.6-1.4c0-0.6-0.2-1.1-0.6-1.5C416,500.3,415.5,500.1,414.9,500.1z M422.2,504.8v7h-1.8v-14.1h1.8v5.6h2.2v1.5
		H422.2z"/>
	<path class="st5" d="M431.5,504.9v-6.6h1.8v1.9h3.1v-1.9h1.8v6.6H431.5z M437.8,511.7c-1.5,0-2.7-0.3-3.5-0.8
		c-0.8-0.5-1.2-1.2-1.2-2c0-0.8,0.4-1.5,1.2-2c0.8-0.5,2-0.8,3.5-0.8c1.5,0,2.6,0.3,3.5,0.8c0.8,0.5,1.2,1.2,1.2,2
		c0,0.9-0.4,1.5-1.2,2.1C440.4,511.5,439.3,511.7,437.8,511.7 M436.4,501.7h-3.1v1.6h3.1V501.7z M437.8,507.6
		c-1.9,0-2.8,0.4-2.8,1.3c0,0.9,0.9,1.3,2.8,1.3c1.9,0,2.8-0.4,2.8-1.3C440.6,508.1,439.6,507.6,437.8,507.6 M442.2,502.7v3.2h-1.8
		v-8.2h1.8v3.5h2.1v1.5H442.2z"/>
	<path class="st6" d="M431.5,504.9v-6.6h1.8v1.9h3.1v-1.9h1.8v6.6H431.5z M437.8,511.7c-1.5,0-2.7-0.3-3.5-0.8
		c-0.8-0.5-1.2-1.2-1.2-2c0-0.8,0.4-1.5,1.2-2c0.8-0.5,2-0.8,3.5-0.8c1.5,0,2.6,0.3,3.5,0.8c0.8,0.5,1.2,1.2,1.2,2
		c0,0.9-0.4,1.5-1.2,2.1C440.4,511.5,439.3,511.7,437.8,511.7z M436.4,501.7h-3.1v1.6h3.1V501.7z M437.8,507.6
		c-1.9,0-2.8,0.4-2.8,1.3c0,0.9,0.9,1.3,2.8,1.3c1.9,0,2.8-0.4,2.8-1.3C440.6,508.1,439.6,507.6,437.8,507.6z M442.2,502.7v3.2h-1.8
		v-8.2h1.8v3.5h2.1v1.5H442.2z"/>
	<path class="st5" d="M446.7,505.4v-6.7h6.8v1.1h2.7v-2.2h1.8v10.2h-1.8v-3.6h-2.7v1.1H446.7z M451.6,500.2h-3.2v3.6h3.2V500.2z
		 M448.8,511.3v-4.8h1.8v3.3h7.6v1.5H448.8z M453.4,502.8h2.7v-1.5h-2.7V502.8z"/>
	<path class="st6" d="M446.7,505.4v-6.7h6.8v1.1h2.7v-2.2h1.8v10.2h-1.8v-3.6h-2.7v1.1H446.7z M451.6,500.2h-3.2v3.6h3.2V500.2z
		 M448.8,511.3v-4.8h1.8v3.3h7.6v1.5H448.8z M453.4,502.8h2.7v-1.5h-2.7V502.8z"/>
	<polygon class="st5" points="318.3,33.4 318.3,31.8 323.9,31.8 323.9,29 320.4,29 320.4,22.4 329.3,22.4 329.3,23.9 322.2,23.9 
		322.2,27.5 329.5,27.5 329.5,29 325.8,29 325.8,31.8 331.4,31.8 331.4,33.4 	"/>
	<polygon class="st6" points="318.3,33.4 318.3,31.8 323.9,31.8 323.9,29 320.4,29 320.4,22.4 329.3,22.4 329.3,23.9 322.2,23.9 
		322.2,27.5 329.5,27.5 329.5,29 325.8,29 325.8,31.8 331.4,31.8 331.4,33.4 	"/>
	<path class="st5" d="M342.2,31.7c-1.4,0.2-4.1,0.4-8.1,0.4v-5.9h4.8v-2.4H334v-1.5h6.7v5.4h-4.8v2.9c2.9,0,4.9-0.1,6-0.3
		L342.2,31.7z M344.7,28.1v7.2h-1.8V21.2h1.8v5.4h2.2v1.5H344.7z"/>
	<path class="st6" d="M342.2,31.7c-1.4,0.2-4.1,0.4-8.1,0.4v-5.9h4.8v-2.4H334v-1.5h6.7v5.4h-4.8v2.9c2.9,0,4.9-0.1,6-0.3
		L342.2,31.7z M344.7,28.1v7.2h-1.8V21.2h1.8v5.4h2.2v1.5H344.7z"/>
	<polygon class="st5" points="348.3,33.4 348.3,31.8 353.9,31.8 353.9,28.6 350.2,28.6 350.2,22.3 352.1,22.3 352.1,27 359.8,27 
		359.8,28.6 355.8,28.6 355.8,31.8 361.4,31.8 361.4,33.4 	"/>
	<polygon class="st6" points="348.3,33.4 348.3,31.8 353.9,31.8 353.9,28.6 350.2,28.6 350.2,22.3 352.1,22.3 352.1,27 359.8,27 
		359.8,28.6 355.8,28.6 355.8,31.8 361.4,31.8 361.4,33.4 	"/>
	<path class="st5" d="M363.3,29.8v-1.5h5.6v-1.5h-3.6v-5h9.2v5h-3.7v1.5h5.6v1.5H363.3z M365.2,34.7v-4.1h1.8v2.6h7.6v1.5H365.2z
		 M372.6,23.3h-5.5v2h5.5V23.3z"/>
	<path class="st6" d="M363.3,29.8v-1.5h5.6v-1.5h-3.6v-5h9.2v5h-3.7v1.5h5.6v1.5H363.3z M365.2,34.7v-4.1h1.8v2.6h7.6v1.5H365.2z
		 M372.6,23.3h-5.5v2h5.5V23.3z"/>
	<path class="st5" d="M384.2,28.4v-6.6h1.8v1.9h3.1v-1.9h1.8v6.6H384.2z M390.5,35.2c-1.5,0-2.7-0.3-3.5-0.8c-0.8-0.5-1.2-1.2-1.2-2
		c0-0.8,0.4-1.5,1.2-2s2-0.8,3.5-0.8c1.5,0,2.6,0.3,3.5,0.8c0.8,0.5,1.2,1.2,1.2,2c0,0.9-0.4,1.5-1.2,2.1
		C393.1,35,392,35.2,390.5,35.2 M389.1,25.3H386v1.6h3.1V25.3z M390.5,31.2c-1.9,0-2.8,0.4-2.8,1.3c0,0.9,0.9,1.3,2.8,1.3
		c1.9,0,2.8-0.4,2.8-1.3C393.3,31.6,392.4,31.2,390.5,31.2 M395,26.2v3.2h-1.8v-8.2h1.8v3.5h2.1v1.5H395z"/>
	<path class="st6" d="M384.2,28.4v-6.6h1.8v1.9h3.1v-1.9h1.8v6.6H384.2z M390.5,35.2c-1.5,0-2.7-0.3-3.5-0.8c-0.8-0.5-1.2-1.2-1.2-2
		c0-0.8,0.4-1.5,1.2-2s2-0.8,3.5-0.8c1.5,0,2.6,0.3,3.5,0.8c0.8,0.5,1.2,1.2,1.2,2c0,0.9-0.4,1.5-1.2,2.1
		C393.1,35,392,35.2,390.5,35.2z M389.1,25.3H386v1.6h3.1V25.3z M390.5,31.2c-1.9,0-2.8,0.4-2.8,1.3c0,0.9,0.9,1.3,2.8,1.3
		c1.9,0,2.8-0.4,2.8-1.3C393.3,31.6,392.4,31.2,390.5,31.2z M395,26.2v3.2h-1.8v-8.2h1.8v3.5h2.1v1.5H395z"/>
	<path class="st5" d="M399.4,28.9v-6.7h6.8v1.1h2.7v-2.2h1.8v10.2h-1.8v-3.6h-2.7v1.1H399.4z M404.4,23.8h-3.2v3.6h3.2V23.8z
		 M401.5,34.8V30h1.8v3.3h7.6v1.5H401.5z M406.1,26.3h2.7v-1.5h-2.7V26.3z"/>
	<path class="st6" d="M399.4,28.9v-6.7h6.8v1.1h2.7v-2.2h1.8v10.2h-1.8v-3.6h-2.7v1.1H399.4z M404.4,23.8h-3.2v3.6h3.2V23.8z
		 M401.5,34.8V30h1.8v3.3h7.6v1.5H401.5z M406.1,26.3h2.7v-1.5h-2.7V26.3z"/>
	<path class="st5" d="M396.8,302.2v-1.5h5.6v-3.1h1.8v3.1h5.6v1.5H396.8z M408.3,298.1c-1-0.3-1.9-0.7-2.9-1.4
		c-1-0.7-1.7-1.3-2.1-1.9c-0.4,0.6-1,1.3-1.9,1.9c-0.9,0.6-1.9,1.1-3,1.4l-1.2-1.4c1.4-0.2,2.6-0.7,3.6-1.5c1-0.8,1.5-1.6,1.6-2.4
		h-4.2v-1.5h10.3v1.5h-4.2c0.1,0.8,0.6,1.6,1.5,2.4c0.9,0.7,2.2,1.3,3.7,1.6L408.3,298.1z"/>
	<path class="st6" d="M396.8,302.2v-1.5h5.6v-3.1h1.8v3.1h5.6v1.5H396.8z M408.3,298.1c-1-0.3-1.9-0.7-2.9-1.4
		c-1-0.7-1.7-1.3-2.1-1.9c-0.4,0.6-1,1.3-1.9,1.9c-0.9,0.6-1.9,1.1-3,1.4l-1.2-1.4c1.4-0.2,2.6-0.7,3.6-1.5c1-0.8,1.5-1.6,1.6-2.4
		h-4.2v-1.5h10.3v1.5h-4.2c0.1,0.8,0.6,1.6,1.5,2.4c0.9,0.7,2.2,1.3,3.7,1.6L408.3,298.1z"/>
	<path class="st5" d="M411.8,302.2v-1.5h5.6v-3.1h1.8v3.1h5.6v1.5H411.8z M423.3,298.1c-1-0.3-1.9-0.7-2.9-1.4
		c-1-0.7-1.7-1.3-2.1-1.9c-0.4,0.6-1,1.3-1.9,1.9c-0.9,0.6-1.9,1.1-3,1.4l-1.2-1.4c1.4-0.2,2.6-0.7,3.6-1.5c1-0.8,1.5-1.6,1.6-2.4
		h-4.2v-1.5h10.3v1.5h-4.2c0.1,0.8,0.6,1.6,1.5,2.4c0.9,0.7,2.2,1.3,3.7,1.6L423.3,298.1z"/>
	<path class="st6" d="M411.8,302.2v-1.5h5.6v-3.1h1.8v3.1h5.6v1.5H411.8z M423.3,298.1c-1-0.3-1.9-0.7-2.9-1.4
		c-1-0.7-1.7-1.3-2.1-1.9c-0.4,0.6-1,1.3-1.9,1.9c-0.9,0.6-1.9,1.1-3,1.4l-1.2-1.4c1.4-0.2,2.6-0.7,3.6-1.5c1-0.8,1.5-1.6,1.6-2.4
		h-4.2v-1.5h10.3v1.5h-4.2c0.1,0.8,0.6,1.6,1.5,2.4c0.9,0.7,2.2,1.3,3.7,1.6L423.3,298.1z"/>
	<path class="st5" d="M434.3,300.7c-1.4-1-2.4-2.1-3.2-3.4c-1,1.7-2,2.9-3.2,3.7l-1.3-1.2c0.9-0.4,1.7-1.2,2.5-2.3
		c0.7-1.1,1.1-2.2,1.1-3.2v-1.5h-3.1v-1.5h7.9v1.5h-3v1.4c0,1,0.4,2,1.1,3s1.5,1.7,2.4,2.1L434.3,300.7z M436.8,290h1.8v14.1h-1.8
		V290z"/>
	<path class="st6" d="M434.3,300.7c-1.4-1-2.4-2.1-3.2-3.4c-1,1.7-2,2.9-3.2,3.7l-1.3-1.2c0.9-0.4,1.7-1.2,2.5-2.3
		c0.7-1.1,1.1-2.2,1.1-3.2v-1.5h-3.1v-1.5h7.9v1.5h-3v1.4c0,1,0.4,2,1.1,3s1.5,1.7,2.4,2.1L434.3,300.7z M436.8,290h1.8v14.1h-1.8
		V290z"/>
	<polygon class="st5" points="169,244.6 169,243.1 174.7,243.1 174.7,240.3 171.1,240.3 171.1,233.6 180.1,233.6 180.1,235.2 
		173,235.2 173,238.7 180.3,238.7 180.3,240.3 176.5,240.3 176.5,243.1 182.1,243.1 182.1,244.6 	"/>
	<polygon class="st6" points="169,244.6 169,243.1 174.7,243.1 174.7,240.3 171.1,240.3 171.1,233.6 180.1,233.6 180.1,235.2 
		173,235.2 173,238.7 180.3,238.7 180.3,240.3 176.5,240.3 176.5,243.1 182.1,243.1 182.1,244.6 	"/>
	<path class="st5" d="M184,244.6v-1.5h3v-3.3h1.8v3.3h1.7v-3.3h1.8v3.3h4.7v1.5H184z M185.3,238.9l-0.5-1.6l8.9-0.4v-1.7h-8.1v-1.5
		h9.9v2.8c0,2.2-0.1,4-0.4,5.4l-1.7-0.2c0.1-1,0.2-2.1,0.2-3.3L185.3,238.9z"/>
	<path class="st6" d="M184,244.6v-1.5h3v-3.3h1.8v3.3h1.7v-3.3h1.8v3.3h4.7v1.5H184z M185.3,238.9l-0.5-1.6l8.9-0.4v-1.7h-8.1v-1.5
		h9.9v2.8c0,2.2-0.1,4-0.4,5.4l-1.7-0.2c0.1-1,0.2-2.1,0.2-3.3L185.3,238.9z"/>
	<path class="st5" d="M206.9,238.8v2.3h0.7c2.4,0,4.1-0.1,5.1-0.2l0.2,1.5c-1.1,0.2-2.9,0.2-5.5,0.2H205v-9h6.9v1.5h-5.1v2.2h4.5
		v1.5H206.9z M215.5,239.3v7.2h-1.8v-14.1h1.8v5.4h2.4v1.5H215.5z"/>
	<path class="st6" d="M206.9,238.8v2.3h0.7c2.4,0,4.1-0.1,5.1-0.2l0.2,1.5c-1.1,0.2-2.9,0.2-5.5,0.2H205v-9h6.9v1.5h-5.1v2.2h4.5
		v1.5H206.9z M215.5,239.3v7.2h-1.8v-14.1h1.8v5.4h2.4v1.5H215.5z"/>
	<path class="st5" d="M223,246.1v-5.1c-1.6,0-2.8,0.1-3.8,0.1l-0.2-1.6c4,0,7.2-0.1,9.7-0.2l0.1,1.6l-4,0.1v5.1H223z M223.9,238.7
		c-1.1,0-1.9-0.3-2.6-0.9c-0.7-0.6-1-1.3-1-2.2c0-0.9,0.3-1.6,1-2.2c0.7-0.6,1.5-0.9,2.6-0.9c1.1,0,1.9,0.3,2.6,0.9
		c0.7,0.6,1,1.3,1,2.2c0,0.9-0.3,1.6-1,2.2C225.8,238.5,224.9,238.7,223.9,238.7 M223.9,234.1c-0.6,0-1,0.1-1.3,0.4
		c-0.3,0.3-0.5,0.7-0.5,1.1c0,0.4,0.2,0.8,0.5,1.1c0.3,0.3,0.8,0.4,1.3,0.4c0.5,0,1-0.1,1.3-0.4c0.3-0.3,0.5-0.7,0.5-1.1
		c0-0.4-0.2-0.8-0.5-1.1C224.8,234.3,224.4,234.1,223.9,234.1 M226.6,243.5v-1.6h3v-9.5h1.8v14.1h-1.8v-3.1H226.6z"/>
	<path class="st6" d="M223,246.1v-5.1c-1.6,0-2.8,0.1-3.8,0.1l-0.2-1.6c4,0,7.2-0.1,9.7-0.2l0.1,1.6l-4,0.1v5.1H223z M223.9,238.7
		c-1.1,0-1.9-0.3-2.6-0.9c-0.7-0.6-1-1.3-1-2.2c0-0.9,0.3-1.6,1-2.2c0.7-0.6,1.5-0.9,2.6-0.9c1.1,0,1.9,0.3,2.6,0.9
		c0.7,0.6,1,1.3,1,2.2c0,0.9-0.3,1.6-1,2.2C225.8,238.5,224.9,238.7,223.9,238.7z M223.9,234.1c-0.6,0-1,0.1-1.3,0.4
		c-0.3,0.3-0.5,0.7-0.5,1.1c0,0.4,0.2,0.8,0.5,1.1c0.3,0.3,0.8,0.4,1.3,0.4c0.5,0,1-0.1,1.3-0.4c0.3-0.3,0.5-0.7,0.5-1.1
		c0-0.4-0.2-0.8-0.5-1.1C224.8,234.3,224.4,234.1,223.9,234.1z M226.6,243.5v-1.6h3v-9.5h1.8v14.1h-1.8v-3.1H226.6z"/>
	<path class="st5" d="M247.3,233.6c-0.1,2.1-0.7,4.1-1.9,5.8c-1.2,1.7-2.7,3.1-4.6,4.1l-1.3-1.4c1.3-0.5,2.6-1.4,3.7-2.7
		c1.2-1.3,1.9-2.7,2.1-4.3h-5v-1.5H247.3z M249.9,246.5v-7.3h-3.3v-1.5h3.3v-5.3h1.8v14.1H249.9z"/>
	<path class="st6" d="M247.3,233.6c-0.1,2.1-0.7,4.1-1.9,5.8c-1.2,1.7-2.7,3.1-4.6,4.1l-1.3-1.4c1.3-0.5,2.6-1.4,3.7-2.7
		c1.2-1.3,1.9-2.7,2.1-4.3h-5v-1.5H247.3z M249.9,246.5v-7.3h-3.3v-1.5h3.3v-5.3h1.8v14.1H249.9z"/>
	<path class="st5" d="M263.4,243.1c-0.9,0.1-1.7,0.2-2.4,0.2c-0.8,0-2.6,0-5.6,0v-6h5V235h-5v-1.5h6.8v5.4h-5v2.9
		c3.2,0,5.2-0.1,6-0.2L263.4,243.1z M264.6,232.4h1.8v14.1h-1.8V232.4z"/>
	<path class="st6" d="M263.4,243.1c-0.9,0.1-1.7,0.2-2.4,0.2c-0.8,0-2.6,0-5.6,0v-6h5V235h-5v-1.5h6.8v5.4h-5v2.9
		c3.2,0,5.2-0.1,6-0.2L263.4,243.1z M264.6,232.4h1.8v14.1h-1.8V232.4z"/>
	<path class="st5" d="M51.3,298.8v-1.5h5.6v-1.1h-3.6v-3.8h7.1v-0.8h-7.1v-1.5h9v3.6h-7.1v0.9h7.4v1.5h-3.9v1.1h5.6v1.5H51.3z
		 M62.7,304.1c-2.4-0.6-4-1.4-4.8-2.5c-0.4,0.5-1,1.1-2,1.5c-0.9,0.5-1.9,0.8-2.8,0.9l-1.2-1.4c1.5-0.2,2.7-0.6,3.6-1.1
		c0.9-0.6,1.4-1.2,1.4-1.9v-0.4h1.8v0.4c0,0.7,0.5,1.3,1.5,1.9c1,0.6,2.1,1,3.5,1.1L62.7,304.1z"/>
	<path class="st6" d="M51.3,298.8v-1.5h5.6v-1.1h-3.6v-3.8h7.1v-0.8h-7.1v-1.5h9v3.6h-7.1v0.9h7.4v1.5h-3.9v1.1h5.6v1.5H51.3z
		 M62.7,304.1c-2.4-0.6-4-1.4-4.8-2.5c-0.4,0.5-1,1.1-2,1.5c-0.9,0.5-1.9,0.8-2.8,0.9l-1.2-1.4c1.5-0.2,2.7-0.6,3.6-1.1
		c0.9-0.6,1.4-1.2,1.4-1.9v-0.4h1.8v0.4c0,0.7,0.5,1.3,1.5,1.9c1,0.6,2.1,1,3.5,1.1L62.7,304.1z"/>
	<path class="st5" d="M66.3,299v-1.5h5.6v-1.2h-4.3v-1.5h1.9l-0.1-2.2h1.8l0.1,2.2h3l0.1-2.2h1.8l-0.1,2.2h1.9v1.5h-4.3v1.2h5.6v1.5
		H66.3z M67.8,290.6h10.1v1.5H67.8V290.6z M68.2,303.6v-3.9h1.8v2.3h7.6v1.5H68.2z"/>
	<path class="st6" d="M66.3,299v-1.5h5.6v-1.2h-4.3v-1.5h1.9l-0.1-2.2h1.8l0.1,2.2h3l0.1-2.2h1.8l-0.1,2.2h1.9v1.5h-4.3v1.2h5.6v1.5
		H66.3z M67.8,290.6h10.1v1.5H67.8V290.6z M68.2,303.6v-3.9h1.8v2.3h7.6v1.5H68.2z"/>
	<path class="st5" d="M89.2,291.3c0,2-0.6,3.9-1.7,5.6c-1.1,1.7-2.7,3.1-4.7,4.2l-1.4-1.3c1.4-0.6,2.7-1.5,3.8-2.7
		c1.1-1.3,1.8-2.7,2-4.2h-5v-1.5H89.2z M91.3,290h1.8v14.1h-1.8V290z"/>
	<path class="st6" d="M89.2,291.3c0,2-0.6,3.9-1.7,5.6c-1.1,1.7-2.7,3.1-4.7,4.2l-1.4-1.3c1.4-0.6,2.7-1.5,3.8-2.7
		c1.1-1.3,1.8-2.7,2-4.2h-5v-1.5H89.2z M91.3,290h1.8v14.1h-1.8V290z"/>
	<path class="st2" d="M296,256h21.6l1.2-12.6h-5.6c-1.4-9-2.1-18.4-2.9-29l-7.2,0c-0.8,10.6-1.5,20-2.8,29h-5.6L296,256z"/>
	<polygon class="st2" points="311.4,214 311.4,209.7 310.4,209.7 310.4,209 303.1,209 303.1,209.8 302.1,209.8 302.1,214 	"/>
	<rect x="302.2" y="198.5" class="st2" width="9.3" height="9.9"/>
	<polygon class="st2" points="308.9,188.1 308.3,188.1 308.3,178.7 307.3,178.7 307.2,165 306.3,165 306.3,178.7 305.2,178.7 
		305.2,188.1 304.6,188.1 304.6,197.5 308.9,197.5 	"/>
	<path class="st2" d="M315.7,260.2v-2.7h-17.8v2.6h0c-3.3,14.6-7.7,27.3-19.1,45h9.6c3.2-5.7,7-12.4,14-14.3
		c1.3-0.3,2.8-0.6,4.4-0.6c1.6,0,3.1,0.2,4.4,0.6c7,1.9,10.7,8.4,13.9,14.3l9.8,0C323.5,287.5,319,274.7,315.7,260.2"/>
</g>
</svg>
