<?xml version="1.0" encoding="utf-8"?>
<!-- Generator: Adobe Illustrator 21.1.0, SVG Export Plug-In . SVG Version: 6.00 Build 0)  -->
<svg version="1.1" id="レイヤー_1" xmlns="http://www.w3.org/2000/svg" xmlns:xlink="http://www.w3.org/1999/xlink" x="0px"
	 y="0px" viewBox="0 0 611.3 529.3" style="enable-background:new 0 0 611.3 529.3;" xml:space="preserve">
<style type="text/css">
	.st0{clip-path:url(#SVGID_2_);fill:none;stroke:#848484;stroke-width:2;stroke-miterlimit:10;}
	.st1{clip-path:url(#SVGID_2_);fill:none;stroke:#848484;stroke-width:3;stroke-miterlimit:10;stroke-dasharray:19.891,7.956;}
	.st2{clip-path:url(#SVGID_2_);fill:#848484;}
	.st3{clip-path:url(#SVGID_2_);fill:#FFFFFF;}
	.st4{clip-path:url(#SVGID_2_);fill:none;stroke:#848484;stroke-miterlimit:10;}
	.st5{fill:#727171;}
	.st6{clip-path:url(#SVGID_4_);fill:#727171;}
	.st7{fill:#848484;}
	.st8{clip-path:url(#SVGID_6_);fill:#848484;}
	.st9{clip-path:url(#SVGID_6_);fill:#FFFFFF;}
</style>
<g>
	<defs>
		<rect id="SVGID_1_" width="611.3" height="529.3"/>
	</defs>
	<clipPath id="SVGID_2_">
		<use xlink:href="#SVGID_1_"  style="overflow:visible;"/>
	</clipPath>
	<path class="st0" d="M409,195.7c0-15.7,9.7-43.6,12.4-51c9.3-24.9,35.9-106.1,48.4-144.7"/>
	<path class="st0" d="M139.7,140.7v-29.5c0-15.7,9.7-43.6,12.4-51c4.3-11.4,12.2-34.7,20.7-60.3"/>
	<path class="st0" d="M530.2,529.3V195.7c0-15.7,9.7-43.6,12.4-51c6.3-16.7,20.3-59,32.7-96.6"/>
	<line class="st1" x1="581.7" y1="525.8" x2="581.7" y2="0.7"/>
	<line class="st0" x1="586.7" y1="402.2" x2="611.9" y2="402.2"/>
	<line class="st0" x1="0" y1="402.2" x2="576.7" y2="402.2"/>
	<line class="st0" x1="586.7" y1="264.7" x2="611.9" y2="264.7"/>
	<line class="st0" x1="322" y1="264.7" x2="576.7" y2="264.7"/>
	<line class="st0" x1="0" y1="264.7" x2="291.8" y2="264.7"/>
	<line class="st0" x1="586.7" y1="127.2" x2="611.9" y2="127.2"/>
	<line class="st0" x1="249.2" y1="127.2" x2="576.7" y2="127.2"/>
	<line class="st0" x1="0" y1="43.2" x2="158.3" y2="43.2"/>
	<path class="st0" d="M306.8,394.2l69.4-129.6l-1-30.1c0,0,1.2-38.9,37.8-38.9h53.2"/>
	<path class="st0" d="M238.8,227.8l0.6-58.1c0-15.7,9.7-43.6,12.4-51c7.6-20.1,26.4-77.3,39.9-118.7"/>
	<polyline class="st0" points="306.8,394.2 238.4,264.7 238.6,246.3 	"/>
	<path class="st0" d="M0,349.1C29.3,299.9,101,154,118.3,134.2c7.7-8.8,21.4-7.6,21.4,9.4c0,6.2,0,121,0,121l-1,183.7
		c0,0-1.2,38.9-37.8,38.9H0"/>
	<path class="st2" d="M300,438.3c0,4.7-3.8,8.5-8.5,8.5h-20.8c-4.7,0-8.5-3.8-8.5-8.5v-20.8c0-4.7,3.8-8.5,8.5-8.5h20.8
		c4.7,0,8.5,3.8,8.5,8.5V438.3z"/>
	<path class="st3" d="M281.1,436.5c-4.6,0-8.4-3.8-8.4-8.4s3.8-8.4,8.4-8.4c4.6,0,8.4,3.8,8.4,8.4
		C289.5,432.7,285.7,436.5,281.1,436.5 M273.2,428.1c0,4.3,3.5,7.8,7.8,7.8c4.3,0,7.8-3.5,7.8-7.8c0-4.3-3.5-7.8-7.8-7.8
		C276.7,420.2,273.2,423.8,273.2,428.1 M280.5,424.9L280.5,424.9l-1.7,0.8l-0.3-1.3l2.1-1h1.5v9.3h-1.7V424.9z"/>
	<path class="st2" d="M238.1,138.4c0,4.7-3.8,8.5-8.5,8.5h-20.8c-4.7,0-8.5-3.8-8.5-8.5v-20.8c0-4.7,3.8-8.5,8.5-8.5h20.8
		c4.7,0,8.5,3.8,8.5,8.5V138.4z"/>
	<path class="st3" d="M219.2,136.6c-4.6,0-8.4-3.8-8.4-8.4c0-4.6,3.8-8.4,8.4-8.4c4.6,0,8.4,3.8,8.4,8.4
		C227.6,132.9,223.8,136.6,219.2,136.6 M211.4,128.2c0,4.3,3.5,7.8,7.8,7.8c4.3,0,7.8-3.5,7.8-7.8c0-4.3-3.5-7.8-7.8-7.8
		C214.8,120.4,211.4,123.9,211.4,128.2 M216,132.8v-1.1l1.1-1c2.5-2.3,3.4-3.2,3.4-4.3c0-0.8-0.4-1.6-1.8-1.6
		c-0.8,0-1.6,0.4-2.1,0.8l-0.5-1.2c0.7-0.6,1.8-1,2.9-1c2.3,0,3.2,1.5,3.2,2.8c0,1.7-1.2,2.8-3.2,4.5l-0.8,0.6v0h4.2v1.4H216z"/>
	<path class="st2" d="M549.1,275.1c0,4.7-3.8,8.5-8.5,8.5h-20.8c-4.7,0-8.5-3.8-8.5-8.5v-20.8c0-4.7,3.8-8.5,8.5-8.5h20.8
		c4.7,0,8.5,3.8,8.5,8.5V275.1z"/>
	<path class="st3" d="M530.2,273.3c-4.6,0-8.4-3.8-8.4-8.4c0-4.6,3.8-8.4,8.4-8.4s8.4,3.8,8.4,8.4
		C538.6,269.6,534.8,273.3,530.2,273.3 M522.4,264.9c0,4.3,3.5,7.8,7.8,7.8s7.8-3.5,7.8-7.8c0-4.3-3.5-7.8-7.8-7.8
		C525.9,257.1,522.4,260.6,522.4,264.9 M530.7,269.6v-2.3h-4.5v-1.1l4.2-5.9h1.9v5.7h1.2v1.3h-1.2v2.3H530.7z M530.7,266v-2.8
		c0-0.4,0-1,0-1.5h0c-0.3,0.5-0.5,1-0.8,1.4l-2.2,2.8v0H530.7z"/>
	<path class="st2" d="M601.3,330.9c0,4.7-3.8,8.5-8.5,8.5h-20.8c-4.7,0-8.5-3.8-8.5-8.5v-20.8c0-4.7,3.8-8.5,8.5-8.5h20.8
		c4.7,0,8.5,3.8,8.5,8.5V330.9z"/>
	<path class="st3" d="M582.4,329.1c-4.6,0-8.4-3.8-8.4-8.4c0-4.6,3.8-8.4,8.4-8.4c4.6,0,8.4,3.8,8.4,8.4
		C590.9,325.3,587.1,329.1,582.4,329.1 M574.6,320.6c0,4.3,3.5,7.8,7.8,7.8c4.3,0,7.8-3.5,7.8-7.8c0-4.3-3.5-7.8-7.8-7.8
		C578.1,312.8,574.6,316.4,574.6,320.6 M585.3,317.5h-3.7l-0.3,1.8c0.2,0,0.5-0.1,0.8-0.1c1.9,0,3.5,1,3.5,2.9
		c0,1.7-1.5,3.2-3.8,3.2c-1.1,0-2.1-0.3-2.5-0.6l0.4-1.3c0.4,0.2,1.2,0.5,2.1,0.5c1.1,0,2.1-0.7,2.1-1.6c0-1.1-0.8-1.8-2.6-1.8
		c-0.5,0-1,0.1-1.4,0.1l0.6-4.6h4.9V317.5z"/>
	<line class="st4" x1="256.7" y1="249.1" x2="267.3" y2="264.7"/>
	<line class="st0" x1="466.2" y1="512.5" x2="466.2" y2="529.3"/>
	<path class="st0" d="M527,0c-12.5,38.6-39.1,119.8-48.4,144.7c-2.8,7.4-12.4,35.3-12.4,51v297.5"/>
	<line class="st0" x1="306.8" y1="512.5" x2="306.8" y2="529.3"/>
	<line class="st0" x1="306.8" y1="493.1" x2="306.8" y2="394.2"/>
</g>
<polygon class="st5" points="287.6,497.6 289.3,497.6 289.3,502.4 294.6,502.4 294.6,497.6 296.3,497.6 296.3,509.3 294.6,509.3 
	294.6,504 289.3,504 289.3,509.3 287.6,509.3 "/>
<g>
	<defs>
		<rect id="SVGID_3_" width="611.3" height="529.3"/>
	</defs>
	<clipPath id="SVGID_4_">
		<use xlink:href="#SVGID_3_"  style="overflow:visible;"/>
	</clipPath>
	<path class="st6" d="M300.6,501.6c0.8-0.5,2-0.8,3.2-0.8c3.1,0,3.5,2.1,3.5,3.7v2.7c0,0.7,0,1.6,0.2,2.1h-1.6l-0.2-1.2h0
		c-0.5,0.7-1.6,1.3-3,1.3c-1.9,0-2.8-1.3-2.8-2.4c0-2,1.9-3.2,5.6-3.1c0-0.9-0.3-1.9-2.1-1.9c-0.9,0-1.8,0.3-2.5,0.7L300.6,501.6z
		 M305.7,505c-2.1,0-3.9,0.5-3.9,1.7c0,0.9,0.7,1.4,1.6,1.4c1.2,0,2.4-0.8,2.4-1.7V505z"/>
	<polygon class="st6" points="315.4,509.3 315.4,499.2 311.4,499.2 311.4,497.7 321.3,497.7 321.3,499.2 317.2,499.2 317.2,509.3 	
		"/>
	<path class="st6" d="M325,501.6c0.8-0.5,2-0.8,3.2-0.8c3.1,0,3.5,2.1,3.5,3.7v2.7c0,0.7,0,1.6,0.2,2.1h-1.6l-0.2-1.2h0
		c-0.5,0.7-1.6,1.3-3,1.3c-1.9,0-2.8-1.3-2.8-2.4c0-2,1.9-3.2,5.6-3.1c0-0.9-0.3-1.9-2.1-1.9c-0.9,0-1.8,0.3-2.5,0.7L325,501.6z
		 M330,505c-2.1,0-3.9,0.5-3.9,1.7c0,0.9,0.7,1.4,1.6,1.4c1.2,0,2.4-0.8,2.4-1.7V505z"/>
	<path class="st6" d="M336.8,509.3h-1.6l0.7-8.4h2.1l1.5,3.9c0.2,0.6,0.6,1.5,0.8,2.3h0c0.2-0.7,0.7-1.9,1-2.7l1.3-3.5h2.1l0.6,8.4
		h-1.6l-0.2-3.8c0-0.9-0.1-1.9-0.1-3.1h0c-0.2,0.7-0.6,1.7-1,3l-1.5,3.8h-1.2l-1.4-3.8c-0.3-0.8-0.7-2.3-1-3.1h-0.1
		c0,1-0.1,2-0.1,3.1L336.8,509.3z"/>
	<path class="st6" d="M349,501.6c0.8-0.5,2-0.8,3.2-0.8c3.1,0,3.5,2.1,3.5,3.7v2.7c0,0.7,0,1.6,0.2,2.1h-1.6l-0.2-1.2h0
		c-0.5,0.7-1.6,1.3-3,1.3c-1.9,0-2.8-1.3-2.8-2.4c0-2,1.9-3.2,5.6-3.1c0-0.9-0.3-1.9-2.1-1.9c-0.9,0-1.8,0.3-2.5,0.7L349,501.6z
		 M354,505c-2.1,0-3.9,0.5-3.9,1.7c0,0.9,0.7,1.4,1.6,1.4c1.2,0,2.4-0.8,2.4-1.7V505z"/>
	<polygon class="st6" points="360,502.3 360,500.9 368.6,500.9 368.6,502.3 365.1,502.3 365.1,509.3 363.4,509.3 363.4,502.3 	"/>
	<path class="st6" d="M372.5,509.3v-8.4h1.6v3.2c0,1.3,0,2.4-0.1,3.4h0.1c0.5-0.9,0.9-1.7,1.4-2.6l2.6-4.1h2v8.4h-1.6v-3.2
		c0-1.4,0-2.2,0.1-3.5h-0.1c-0.5,0.8-0.9,1.6-1.5,2.5c-0.8,1.4-1.9,3.1-2.6,4.1H372.5z"/>
	<path class="st6" d="M384.9,509.3v-8.4h1.6v3.2c0,1.3,0,2.4-0.1,3.4h0.1c0.5-0.9,0.9-1.7,1.4-2.6l2.6-4.1h2v8.4h-1.6v-3.2
		c0-1.4,0-2.2,0.1-3.5h-0.1c-0.5,0.8-0.9,1.6-1.5,2.5c-0.8,1.4-1.9,3.1-2.6,4.1H384.9z"/>
	<path class="st6" d="M405.1,499.5c-0.6-0.3-1.4-0.5-2.5-0.5c-2.7,0-4.6,1.7-4.6,4.5c0,2.6,1.7,4.4,4.5,4.4c1,0,1.9-0.2,2.6-0.5
		l0.3,1.4c-0.6,0.3-1.7,0.6-3.3,0.6c-3.8,0-6.1-2.3-6.1-5.8c0-3.5,2.5-6,6.4-6c1.4,0,2.5,0.3,3,0.5L405.1,499.5z"/>
	<path class="st6" d="M409.2,509.3v-8.4h1.6v3.2c0,1.3,0,2.4-0.1,3.4h0.1c0.5-0.9,0.9-1.7,1.4-2.6l2.6-4.1h2v8.4h-1.6v-3.2
		c0-1.4,0-2.2,0.1-3.5h-0.1c-0.5,0.8-0.9,1.6-1.5,2.5c-0.8,1.4-1.9,3.1-2.6,4.1H409.2z"/>
	<polygon class="st6" points="421.2,509.3 421.2,500.9 422.9,500.9 422.9,504.2 427.1,504.2 427.1,500.9 428.8,500.9 428.8,509.3 
		427.1,509.3 427.1,505.6 422.9,505.6 422.9,509.3 	"/>
	<path class="st6" d="M433.7,501.6c0.8-0.5,2-0.8,3.2-0.8c3.1,0,3.5,2.1,3.5,3.7v2.7c0,0.7,0,1.6,0.2,2.1H439l-0.2-1.2h0
		c-0.5,0.7-1.6,1.3-3,1.3c-1.9,0-2.8-1.3-2.8-2.4c0-2,1.9-3.2,5.6-3.1c0-0.9-0.3-1.9-2.1-1.9c-0.9,0-1.8,0.3-2.5,0.7L433.7,501.6z
		 M438.7,505c-2.1,0-3.9,0.5-3.9,1.7c0,0.9,0.7,1.4,1.6,1.4c1.2,0,2.4-0.8,2.4-1.7V505z"/>
	<polygon class="st6" points="445.8,509.3 445.8,500.9 452.5,500.9 452.5,502.3 447.5,502.3 447.5,509.3 	"/>
	<path class="st6" d="M457.7,501.6c0.8-0.5,2-0.8,3.2-0.8c3.1,0,3.5,2.1,3.5,3.7v2.7c0,0.7,0,1.6,0.2,2.1H463l-0.2-1.2h0
		c-0.5,0.7-1.6,1.3-3,1.3c-1.9,0-2.8-1.3-2.8-2.4c0-2,1.9-3.2,5.6-3.1c0-0.9-0.3-1.9-2.1-1.9c-0.9,0-1.8,0.3-2.5,0.7L457.7,501.6z
		 M462.7,505c-2.1,0-3.9,0.5-3.9,1.7c0,0.9,0.7,1.4,1.6,1.4c1.2,0,2.4-0.8,2.4-1.7V505z"/>
	<path class="st6" d="M474.7,504.8c1.4,0.2,2.4,0.9,2.4,2c0,2.2-3.2,2.5-5.1,2.5c-1,0-2.1-0.1-2.6-0.1V501c0.7-0.1,1.8-0.2,2.9-0.2
		c1.6,0,4.3,0.2,4.3,2.1C476.7,503.9,475.8,504.6,474.7,504.8L474.7,504.8z M472.4,504.4c1.3,0,2.6-0.3,2.6-1.2
		c0-0.8-0.9-1.2-2.6-1.2c-0.6,0-0.9,0-1.3,0.1v2.4H472.4z M471.2,505.5v2.7c0.4,0,0.8,0.1,1.3,0.1c1.2,0,3-0.3,3-1.4
		c0-1.1-1.4-1.4-3.1-1.4H471.2z"/>
	<path class="st6" d="M481.7,501.6c0.8-0.5,2-0.8,3.2-0.8c3.1,0,3.5,2.1,3.5,3.7v2.7c0,0.7,0,1.6,0.2,2.1H487l-0.2-1.2h0
		c-0.5,0.7-1.6,1.3-3,1.3c-1.9,0-2.8-1.3-2.8-2.4c0-2,1.9-3.2,5.6-3.1c0-0.9-0.3-1.9-2.1-1.9c-0.9,0-1.8,0.3-2.5,0.7L481.7,501.6z
		 M486.7,505c-2.1,0-3.9,0.5-3.9,1.7c0,0.9,0.7,1.4,1.6,1.4c1.2,0,2.4-0.8,2.4-1.7V505z"/>
	<polygon class="st6" points="307.4,21.2 309.2,21.2 309.2,26 314.5,26 314.5,21.2 316.2,21.2 316.2,32.8 314.5,32.8 314.5,27.5 
		309.2,27.5 309.2,32.8 307.4,32.8 	"/>
	<path class="st6" d="M320.5,25.1c0.8-0.5,2-0.8,3.2-0.8c3.1,0,3.5,2.1,3.5,3.7v2.7c0,0.7,0,1.6,0.2,2.1h-1.6l-0.2-1.2h0
		c-0.5,0.7-1.6,1.3-3,1.3c-1.9,0-2.8-1.3-2.8-2.4c0-2,1.9-3.2,5.6-3.1c0-0.9-0.3-1.9-2.1-1.9c-0.9,0-1.8,0.3-2.5,0.7L320.5,25.1z
		 M325.5,28.6c-2.1,0-3.9,0.5-3.9,1.7c0,0.9,0.7,1.4,1.6,1.4c1.2,0,2.4-0.8,2.4-1.7V28.6z"/>
	<polygon class="st6" points="335.3,32.8 335.3,22.7 331.2,22.7 331.2,21.2 341.1,21.2 341.1,22.7 337,22.7 337,32.8 	"/>
	<path class="st6" d="M343.9,28.7c0-2.7,1.9-4.4,4.4-4.4c2.6,0,4.2,1.8,4.2,4.2c0,3.1-2.3,4.4-4.4,4.4
		C345.6,32.9,343.9,31.2,343.9,28.7 M350.7,28.6c0-1.4-0.8-3-2.5-3c-1.8,0-2.6,1.5-2.6,3.1c0,1.7,1,3,2.5,3
		C349.6,31.6,350.7,30.5,350.7,28.6"/>
	<path class="st6" d="M356.3,36.2v-9c0-1,0-1.9-0.1-2.8h1.6l0.1,1.5h0c0.6-1,1.6-1.6,3-1.6c2.1,0,3.7,1.8,3.7,4.2
		c0,3-1.9,4.5-3.9,4.5c-1.1,0-2.1-0.4-2.6-1.3h0v4.5H356.3z M358,29.3c0,1.4,1.2,2.2,2.3,2.2c1.5,0,2.5-1.2,2.5-3
		c0-1.6-0.9-2.9-2.4-2.9c-1.6,0-2.4,1.5-2.4,2.3V29.3z"/>
	<path class="st6" d="M368.8,25.1c0.8-0.5,2-0.8,3.2-0.8c3.1,0,3.5,2.1,3.5,3.7v2.7c0,0.7,0,1.6,0.2,2.1h-1.6l-0.2-1.2h0
		c-0.5,0.7-1.6,1.3-3,1.3c-1.9,0-2.8-1.3-2.8-2.4c0-2,1.9-3.2,5.6-3.1c0-0.9-0.3-1.9-2.1-1.9c-0.9,0-1.8,0.3-2.5,0.7L368.8,25.1z
		 M373.9,28.6c-2.1,0-3.9,0.5-3.9,1.7c0,0.9,0.7,1.4,1.6,1.4c1.2,0,2.4-0.8,2.4-1.7V28.6z"/>
	<polygon class="st6" points="380.4,32.8 380.4,24.4 382.1,24.4 382.1,27.8 386.3,27.8 386.3,24.4 388,24.4 388,32.8 386.3,32.8 
		386.3,29.1 382.1,29.1 382.1,32.8 	"/>
	<path class="st6" d="M391.9,28.7c0-2.7,1.9-4.4,4.4-4.4c2.6,0,4.2,1.8,4.2,4.2c0,3.1-2.3,4.4-4.4,4.4
		C393.6,32.9,391.9,31.2,391.9,28.7 M398.7,28.6c0-1.4-0.8-3-2.5-3c-1.8,0-2.6,1.5-2.6,3.1c0,1.7,1,3,2.5,3
		C397.6,31.6,398.7,30.5,398.7,28.6"/>
	<path class="st6" d="M404.7,32.8h-1.6l0.7-8.4h2.1l1.5,3.9c0.2,0.6,0.6,1.5,0.8,2.3h0c0.2-0.7,0.7-1.9,1-2.7l1.3-3.5h2.1l0.6,8.4
		h-1.6l-0.2-3.8c0-0.9-0.1-1.9-0.1-3.1h0c-0.2,0.7-0.6,1.7-1,3l-1.5,3.8h-1.2L406,29c-0.3-0.8-0.7-2.3-1-3.1H405c0,1-0.1,2-0.1,3.1
		L404.7,32.8z"/>
	<path class="st6" d="M415.9,28.7c0-2.7,1.9-4.4,4.4-4.4c2.6,0,4.2,1.8,4.2,4.2c0,3.1-2.3,4.4-4.4,4.4
		C417.6,32.9,415.9,31.2,415.9,28.7 M422.7,28.6c0-1.4-0.8-3-2.5-3c-1.8,0-2.6,1.5-2.6,3.1c0,1.7,1,3,2.5,3
		C421.6,31.6,422.7,30.5,422.7,28.6"/>
	<polygon class="st6" points="428.4,32.8 428.4,24.4 430.1,24.4 430.1,27.8 434.3,27.8 434.3,24.4 436,24.4 436,32.8 434.3,32.8 
		434.3,29.1 430.1,29.1 430.1,32.8 	"/>
	<path class="st6" d="M388.1,337.7h-2.1l-1.6-2.5c-0.7-1.1-1.1-1.8-1.4-2.4h0c-0.4,0.8-0.8,1.5-1.3,2.4l-1.5,2.5h-2l3.8-5.9
		l-3.7-5.8h2.1l1.7,2.8c0.5,0.8,0.8,1.4,1.1,2h0c0.3-0.7,0.6-1.2,1.1-2l1.7-2.8h2l-3.8,5.7L388.1,337.7z"/>
	<path class="st6" d="M391.2,341.1v-9c0-1,0-2-0.1-2.8h1.6l0.1,1.5h0c0.6-1,1.6-1.6,3-1.6c2.1,0,3.7,1.8,3.7,4.2
		c0,3-1.9,4.5-3.9,4.5c-1.1,0-2.1-0.5-2.6-1.3h0v4.5H391.2z M393,334.2c0,1.4,1.2,2.2,2.3,2.2c1.5,0,2.5-1.2,2.5-3
		c0-1.6-0.9-2.9-2.4-2.9c-1.6,0-2.4,1.5-2.4,2.3V334.2z"/>
	<path class="st6" d="M403.8,329.9c0.8-0.5,2-0.8,3.2-0.8c3.1,0,3.5,2.1,3.5,3.7v2.7c0,0.7,0,1.6,0.2,2.1h-1.6l-0.2-1.2h0
		c-0.5,0.7-1.6,1.3-3,1.3c-1.9,0-2.8-1.3-2.8-2.4c0-2,1.9-3.2,5.6-3.1c0-0.9-0.3-1.9-2.1-1.9c-0.9,0-1.8,0.3-2.5,0.7L403.8,329.9z
		 M408.8,333.4c-2.1,0-3.9,0.5-3.9,1.7c0,0.9,0.7,1.4,1.6,1.4c1.2,0,2.4-0.8,2.4-1.7V333.4z"/>
	<path class="st6" d="M415.6,337.7H414l0.7-8.4h2.1l1.5,3.9c0.2,0.6,0.6,1.5,0.8,2.3h0c0.2-0.7,0.7-1.9,1-2.7l1.3-3.5h2.1l0.6,8.4
		h-1.6l-0.2-3.8c0-0.9-0.1-1.9-0.1-3.1h0c-0.2,0.7-0.6,1.7-1,3l-1.5,3.8h-1.2l-1.4-3.8c-0.3-0.8-0.7-2.3-1-3.1H416
		c0,1-0.1,2-0.1,3.1L415.6,337.7z"/>
	<path class="st6" d="M350.1,346.1h7.8v10.1l1,0l-0.1,4.1h-1.3l-0.1-2.7h-8.1l-0.1,2.7h-1.3l-0.1-4.1l0.9,0c1-1.9,1.5-3.5,1.5-7.1
		V346.1z M351.7,347.5v2c0,3.1-0.6,5.2-1.4,6.7h5.8v-8.6H351.7z"/>
	<path class="st6" d="M361.6,356c0.7,0.3,1.9,0.6,3,0.6c1.8,0,2.9-0.6,2.9-1.3c0-1-1.6-1.3-3.3-1.3h-1.1v-1.1h0.9
		c2.3,0,3.1-0.8,3.1-1.3c0-0.7-0.9-1.1-2.3-1.1c-0.9,0-2,0.2-2.8,0.6l-0.4-1c1-0.5,2.2-0.7,3.5-0.7c1.9,0,3.7,0.7,3.7,2.1
		c0,1-1.2,1.7-2.4,1.9v0c1.6,0.1,2.9,0.9,2.9,2.1c0,1.8-2.3,2.5-4.7,2.5c-1.2,0-2.5-0.3-3.4-0.7L361.6,356z"/>
	<path class="st6" d="M373,353.5c0-2.7,1.9-4.4,4.4-4.4c2.6,0,4.2,1.8,4.2,4.2c0,3.1-2.3,4.4-4.4,4.4C374.7,357.8,373,356,373,353.5
		 M379.9,353.4c0-1.4-0.8-3-2.5-3c-1.8,0-2.6,1.5-2.6,3.1c0,1.7,1,3,2.5,3C378.7,356.5,379.9,355.3,379.9,353.4"/>
	<path class="st6" d="M386.7,349.3h6.5v7l1,0l-0.1,3.8h-1.3l-0.1-2.5h-6.8l-0.1,2.5h-1.3l-0.1-3.7l0.8,0c0.9-1.2,1.4-2.8,1.4-4.9
		V349.3z M388.2,350.6v1.2c0,1.1-0.2,3.1-1.2,4.5h4.5v-5.7H388.2z"/>
	<path class="st6" d="M397.6,356c0.7,0.3,1.9,0.6,3,0.6c1.8,0,2.9-0.6,2.9-1.3c0-1-1.6-1.3-3.3-1.3h-1.1v-1.1h0.9
		c2.3,0,3.1-0.8,3.1-1.3c0-0.7-0.9-1.1-2.3-1.1c-0.9,0-2,0.2-2.8,0.6l-0.4-1c1-0.5,2.2-0.7,3.5-0.7c1.9,0,3.7,0.7,3.7,2.1
		c0,1-1.2,1.7-2.4,1.9v0c1.6,0.1,2.9,0.9,2.9,2.1c0,1.8-2.3,2.5-4.7,2.5c-1.2,0-2.5-0.3-3.4-0.7L397.6,356z"/>
	<path class="st6" d="M416.8,357.2c-0.6,0.3-1.6,0.6-3,0.6c-2.7,0-4.4-1.7-4.4-4.1c0-2.5,1.6-4.5,4.2-4.5c2.9,0,3.7,2.3,3.7,4
		c0,0.3,0,0.6-0.1,0.8h-6.1c0,1.6,1.3,2.5,2.9,2.5c1.2,0,1.9-0.2,2.5-0.4L416.8,357.2z M412.5,347c0,0.5-0.3,0.9-0.9,0.9
		c-0.5,0-0.9-0.5-0.9-0.9c0-0.5,0.4-0.9,0.9-0.9C412.2,346.1,412.5,346.5,412.5,347 M415.6,352.7c0-0.7-0.3-2.3-2.1-2.3
		c-1.6,0-2.3,1.4-2.4,2.3H415.6z M414.5,347c0-0.5,0.4-0.9,0.9-0.9c0.5,0,0.9,0.4,0.9,0.9c0,0.5-0.3,0.9-0.9,0.9
		C414.8,347.9,414.5,347.5,414.5,347"/>
	<path class="st6" d="M422.7,349.3h6.5v7l1,0l-0.1,3.8h-1.3l-0.1-2.5h-6.8l-0.1,2.5h-1.3l-0.1-3.7l0.8,0c0.9-1.2,1.4-2.8,1.4-4.9
		V349.3z M424.2,350.6v1.2c0,1.1-0.2,3.1-1.2,4.5h4.5v-5.7H424.2z"/>
	<path class="st6" d="M433.6,356c0.7,0.3,1.9,0.6,3,0.6c1.8,0,2.9-0.6,2.9-1.3c0-1-1.6-1.3-3.3-1.3h-1.1v-1.1h0.9
		c2.3,0,3.1-0.8,3.1-1.3c0-0.7-0.9-1.1-2.3-1.1c-0.9,0-2,0.2-2.8,0.6l-0.4-1c1-0.5,2.2-0.7,3.5-0.7c1.9,0,3.7,0.7,3.7,2.1
		c0,1-1.2,1.7-2.4,1.9v0c1.6,0.1,2.9,0.9,2.9,2.1c0,1.8-2.3,2.5-4.7,2.5c-1.2,0-2.5-0.3-3.4-0.7L433.6,356z"/>
	<path class="st6" d="M445.5,357.7v-8.4h1.6v3.2c0,1.3,0,2.4-0.1,3.4h0.1c0.5-0.9,0.9-1.7,1.4-2.6l2.6-4.1h2v8.4h-1.6v-3.2
		c0-1.4,0-2.2,0.1-3.4h-0.1c-0.5,0.8-0.9,1.6-1.5,2.5c-0.8,1.4-1.9,3.1-2.6,4.1H445.5z"/>
	<path class="st6" d="M161.3,232.4h1.8l-3,6.1c-0.8,1.5-1.6,3.3-2.4,4.2c-0.9,0.9-1.8,1.4-3,1.4c-0.5,0-0.8,0-1.1-0.1l0.1-1.4
		c0.2,0,0.4,0,0.7,0c1.2,0,2-0.8,2.6-1.7c0.1-0.2,0.2-0.3,0.2-0.4c0-0.1,0-0.1-0.1-0.2l-4.8-7.9h2l2.7,4.9c0.4,0.7,0.7,1.3,1,1.9
		h0.1c0.2-0.5,0.5-1.2,0.8-1.9L161.3,232.4z"/>
	<path class="st6" d="M164.5,242.8c1.4-0.3,1.5-1.7,1.5-3.7v-3.4h7.1v8.4h-1.7v-7h-3.7v2.1c0,2.3-0.3,3.9-1.4,4.6
		c-0.4,0.3-0.9,0.5-1.5,0.5L164.5,242.8z"/>
	<path class="st6" d="M176.5,244v-8.4h1.6v3.2c0,1.3,0,2.4-0.1,3.4h0.1c0.5-0.9,0.9-1.7,1.4-2.6l2.6-4.1h2v8.4h-1.6v-3.2
		c0-1.4,0-2.2,0.1-3.5h-0.1c-0.5,0.8-0.9,1.6-1.5,2.5c-0.8,1.4-1.9,3.1-2.6,4.1H176.5z"/>
	<polygon class="st6" points="187.6,244 187.6,235.6 189.3,235.6 189.3,242.6 193.5,242.6 193.5,235.6 195.3,235.6 195.3,242.7 
		196.1,242.8 196,246.5 194.7,246.5 194.6,244 	"/>
	<path class="st6" d="M199.5,236.3c0.8-0.5,2-0.8,3.2-0.8c3.1,0,3.5,2.1,3.5,3.7v2.7c0,0.7,0,1.6,0.2,2.1h-1.6l-0.2-1.2h0
		c-0.5,0.7-1.6,1.3-3,1.3c-1.9,0-2.8-1.3-2.8-2.4c0-2,1.9-3.2,5.6-3.1c0-0.9-0.3-1.9-2.1-1.9c-0.9,0-1.8,0.3-2.5,0.7L199.5,236.3z
		 M204.5,239.8c-2.1,0-3.9,0.5-3.9,1.7c0,0.9,0.7,1.4,1.6,1.4c1.2,0,2.4-0.8,2.4-1.7V239.8z"/>
	<polygon class="st6" points="212.8,244 212.8,234 208.7,234 208.7,232.5 218.6,232.5 218.6,234 214.5,234 214.5,244 	"/>
	<path class="st6" d="M220.6,239.9c0-2.7,1.9-4.4,4.4-4.4c2.6,0,4.2,1.8,4.2,4.2c0,3.1-2.3,4.4-4.4,4.4
		C222.4,244.1,220.6,242.4,220.6,239.9 M227.5,239.8c0-1.4-0.8-3-2.5-3c-1.8,0-2.6,1.5-2.6,3.1c0,1.7,1,3,2.6,3
		C226.3,242.9,227.5,241.7,227.5,239.8"/>
	<path class="st6" d="M232.6,244v-8.4h1.7v3.6h0.4l3.4-3.6h2.2l-4.1,3.8c1.5,0.2,2.3,1.1,3,2.5c0.3,0.6,0.7,1.5,1.1,2.2h-1.8
		c-0.3-0.4-0.7-1.1-1-1.8c-0.9-1.8-2.3-1.8-3.2-1.8v3.6H232.6z"/>
	<path class="st6" d="M243.6,244v-8.4h1.6v3.2c0,1.3,0,2.4-0.1,3.4h0.1c0.5-0.9,0.9-1.7,1.4-2.6l2.6-4.1h2v8.4h-1.6v-3.2
		c0-1.4,0-2.2,0.1-3.5h-0.1c-0.5,0.8-0.9,1.6-1.5,2.5c-0.8,1.4-1.9,3.1-2.6,4.1H243.6z"/>
	<path class="st6" d="M254.9,244v-8.4h1.6v3.2c0,1.3,0,2.4-0.1,3.4h0.1c0.5-0.9,0.9-1.7,1.4-2.5l2.6-4.1h2v8.4h-1.6v-3.2
		c0-1.4,0-2.2,0.1-3.5h-0.1c-0.5,0.8-0.9,1.6-1.5,2.5c-0.8,1.4-1.9,3.1-2.6,4.1H254.9z M257.4,232.4c0,0.3,0.1,0.6,0.3,0.9
		c0.2,0.2,0.5,0.4,0.9,0.4c0.9,0,1.2-0.5,1.3-1.2h1.1c-0.1,1.4-1,2.1-2.5,2.1c-1.6,0-2.3-0.9-2.4-2.1H257.4z"/>
	<path class="st6" d="M273,237.3c-0.4-0.2-1-0.4-1.9-0.4c-1.9,0-3,1.3-3,3c0,1.8,1.3,2.9,3,2.9c0.9,0,1.5-0.2,2-0.4l0.3,1.3
		c-0.4,0.2-1.4,0.5-2.6,0.5c-2.7,0-4.4-1.7-4.4-4.2c0-2.6,1.9-4.4,4.8-4.4c1,0,1.7,0.2,2.2,0.5L273,237.3z"/>
	<path class="st6" d="M277.6,244v-8.4h1.7v3.6h0.4l3.5-3.6h2.2l-4.1,3.8c1.5,0.2,2.3,1.1,3,2.5c0.3,0.6,0.7,1.5,1.1,2.2h-1.8
		c-0.3-0.4-0.7-1.1-1-1.8c-0.9-1.8-2.3-1.8-3.2-1.8v3.6H277.6z"/>
	<path class="st6" d="M288.1,239.9c0-2.7,1.9-4.4,4.4-4.4c2.6,0,4.2,1.8,4.2,4.2c0,3.1-2.3,4.4-4.4,4.4
		C289.9,244.1,288.1,242.4,288.1,239.9 M295,239.8c0-1.4-0.8-3-2.5-3c-1.8,0-2.6,1.5-2.6,3.1c0,1.7,1,3,2.5,3
		C293.8,242.9,295,241.7,295,239.8"/>
	<path class="st6" d="M299.9,244v-8.4h1.6v3.2c0,1.3,0,2.4-0.1,3.4h0.1c0.5-0.9,0.9-1.7,1.4-2.5l2.6-4.1h2v8.4h-1.6v-3.2
		c0-1.4,0-2.2,0.1-3.5h-0.1c-0.5,0.8-0.9,1.6-1.5,2.5c-0.8,1.4-1.9,3.1-2.6,4.1H299.9z M302.4,232.4c0,0.3,0.1,0.6,0.3,0.9
		c0.2,0.2,0.5,0.4,0.9,0.4c0.9,0,1.2-0.5,1.3-1.2h1.1c-0.1,1.4-1,2.1-2.5,2.1c-1.6,0-2.3-0.9-2.4-2.1H302.4z"/>
	<path class="st6" d="M311.9,237.2c0.6-1,1.8-1.7,3-1.7c2.2,0,3.8,1.6,3.8,4.2c0,2.6-1.5,4.4-4.2,4.4c-3,0-4.3-2.5-4.3-5.4
		c0-5.4,3.3-6.3,5.3-6.6c0.7-0.1,1.7-0.3,2.3-0.4l-0.1,1.4c-0.4,0.2-1.2,0.3-1.8,0.3C314.4,233.7,312.2,234.2,311.9,237.2
		L311.9,237.2z M314.5,236.8c-1.3,0-2.4,1.1-2.4,2.9c0,1.2,0.6,3.2,2.5,3.2c1.8,0,2.4-1.5,2.4-3C317,238.5,316.4,236.8,314.5,236.8"
		/>
	<path class="st6" d="M322.4,236.3c0.8-0.5,2-0.8,3.2-0.8c3.1,0,3.5,2.1,3.5,3.7v2.7c0,0.7,0,1.6,0.2,2.1h-1.6l-0.2-1.2h0
		c-0.5,0.7-1.6,1.3-3,1.3c-1.9,0-2.8-1.3-2.8-2.4c0-2,1.9-3.2,5.6-3.1c0-0.9-0.3-1.9-2.1-1.9c-0.9,0-1.8,0.3-2.5,0.7L322.4,236.3z
		 M327.5,239.8c-2.1,0-3.9,0.5-3.9,1.7c0,0.9,0.7,1.4,1.6,1.4c1.2,0,2.4-0.8,2.4-1.7V239.8z"/>
	<polygon class="st6" points="331.5,244 331.5,235.6 333.2,235.6 333.2,242.6 336.2,242.6 336.2,235.6 337.9,235.6 337.9,242.6 
		340.9,242.6 340.9,235.6 342.6,235.6 342.6,244 	"/>
	<polygon class="st6" points="344.5,244 344.5,235.6 346.2,235.6 346.2,239 350.4,239 350.4,235.6 352.1,235.6 352.1,244 350.4,244 
		350.4,240.4 346.2,240.4 346.2,244 	"/>
	<path class="st6" d="M355.7,244v-8.4h1.6v3.2c0,1.3,0,2.4-0.1,3.4h0.1c0.5-0.9,0.9-1.7,1.4-2.6l2.6-4.1h2v8.4h-1.6v-3.2
		c0-1.4,0-2.2,0.1-3.5h-0.1c-0.5,0.8-0.9,1.6-1.5,2.5c-0.8,1.4-1.9,3.1-2.6,4.1H355.7z"/>
	<path class="st6" d="M36.8,301.7v-11.4c0.8-0.1,2-0.2,3.5-0.2c1.7,0,3,0.3,3.9,1c0.7,0.6,1.2,1.4,1.2,2.5c0,2.9-2.6,3.8-5.2,3.8
		c-0.6,0-1.1,0-1.6-0.1v4.4H36.8z M38.5,295.8c0.5,0.1,1,0.2,1.7,0.2c2.1,0,3.4-0.9,3.4-2.4c0-1.6-1.5-2.2-3.2-2.2
		c-0.9,0-1.5,0.1-1.9,0.1V295.8z"/>
	<path class="st6" d="M48.5,297.5c0-2.7,1.9-4.4,4.4-4.4c2.6,0,4.2,1.8,4.2,4.2c0,3.1-2.3,4.4-4.4,4.4
		C50.3,301.8,48.5,300,48.5,297.5 M55.4,297.4c0-1.4-0.8-3-2.5-3s-2.6,1.5-2.6,3.1c0,1.7,1,3,2.5,3
		C54.2,300.5,55.4,299.3,55.4,297.4"/>
	<polygon class="st6" points="61,301.7 61,293.3 68.7,293.3 68.7,301.7 67,301.7 67,294.7 62.7,294.7 62.7,301.7 	"/>
	<polygon class="st6" points="73,301.7 73,293.3 80.7,293.3 80.7,301.7 79,301.7 79,294.7 74.7,294.7 74.7,301.7 	"/>
	<path class="st6" d="M84.5,297.5c0-2.7,1.9-4.4,4.4-4.4c2.6,0,4.2,1.8,4.2,4.2c0,3.1-2.3,4.4-4.4,4.4
		C86.3,301.8,84.5,300,84.5,297.5 M91.4,297.4c0-1.4-0.8-3-2.5-3c-1.8,0-2.6,1.5-2.6,3.1c0,1.7,1,3,2.6,3
		C90.2,300.5,91.4,299.3,91.4,297.4"/>
	<polygon class="st6" points="97.1,301.7 97.1,293.2 98.8,293.2 98.8,296.6 103,296.6 103,293.2 104.7,293.2 104.7,301.7 103,301.7 
		103,298 98.8,298 98.8,301.7 	"/>
	<polygon class="st6" points="109.7,301.7 109.7,293.3 116.3,293.3 116.3,294.7 111.4,294.7 111.4,301.7 	"/>
	<path class="st6" d="M121.1,301.7v-8.4h1.6v3.2c0,1.3,0,2.4-0.1,3.4h0.1c0.5-0.9,0.9-1.7,1.4-2.5l2.6-4.1h2v8.4h-1.6v-3.2
		c0-1.4,0-2.2,0.1-3.4h-0.1c-0.5,0.8-0.9,1.6-1.5,2.5c-0.8,1.4-1.9,3.1-2.6,4.1H121.1z"/>
</g>
<path class="st7" d="M302.1,227.8h9.3H302.1z"/>
<path class="st7" d="M295.3,249.1h22.9H295.3z"/>
<polyline class="st7" points="318.3,249.1 317.6,256 296,256 295.3,249.1 "/>
<g>
	<defs>
		<rect id="SVGID_5_" width="611.3" height="529.3"/>
	</defs>
	<clipPath id="SVGID_6_">
		<use xlink:href="#SVGID_5_"  style="overflow:visible;"/>
	</clipPath>
	<path class="st8" d="M311.4,227.8c-0.4-4.2-0.7-8.7-1.1-13.3l-7.2,0c-0.3,4.7-0.7,9.1-1,13.3"/>
	<polygon class="st8" points="302.1,209.8 302.1,214 311.4,214 311.4,209.7 310.4,209.7 310.4,209 303.1,209 303.1,209.8 	"/>
	<rect x="302.2" y="198.5" class="st8" width="9.3" height="9.9"/>
	<polygon class="st8" points="308.9,188.1 308.3,188.1 308.3,178.7 307.3,178.7 307.2,165 306.3,165 306.3,178.7 305.2,178.7 
		305.2,188.1 304.6,188.1 304.6,197.5 308.9,197.5 	"/>
	<path class="st8" d="M278.8,305.2h9.6c3.2-5.7,7-12.4,14-14.3c1.3-0.3,2.8-0.6,4.4-0.6c1.6,0,3.1,0.2,4.4,0.6
		c7,1.9,10.7,8.4,13.9,14.3l9.8,0c-11.3-17.7-15.9-30.5-19.2-45v-2.7h-17.8v2.6h0C294.5,274.7,290.1,287.5,278.8,305.2"/>
	<path class="st8" d="M503.1,138.4c0,4.7-3.8,8.5-8.5,8.5h-20.8c-4.7,0-8.5-3.8-8.5-8.5v-20.8c0-4.7,3.8-8.5,8.5-8.5h20.8
		c4.7,0,8.5,3.8,8.5,8.5V138.4z"/>
	<path class="st9" d="M484.2,136.6c-4.6,0-8.4-3.8-8.4-8.4c0-4.6,3.8-8.4,8.4-8.4c4.6,0,8.4,3.8,8.4,8.4
		C492.6,132.9,488.8,136.6,484.2,136.6 M476.4,128.2c0,4.3,3.5,7.8,7.8,7.8c4.3,0,7.8-3.5,7.8-7.8c0-4.3-3.5-7.8-7.8-7.8
		C479.8,120.4,476.4,123.9,476.4,128.2 M481.4,131c0.4,0.3,1.3,0.6,2.2,0.6c1.5,0,2-0.9,2-1.4c0-1.2-1.2-1.6-2.3-1.6h-0.8v-1.3h0.8
		c0.9,0,2-0.3,2-1.3c0-0.6-0.4-1.2-1.6-1.2c-0.8,0-1.5,0.3-2,0.6l-0.4-1.3c0.5-0.4,1.6-0.7,2.7-0.7c2.1,0,3,1.1,3,2.2
		c0,1-0.6,1.7-1.7,2.1v0c1.2,0.3,2.1,1.1,2.1,2.3c0,1.5-1.3,2.8-3.7,2.8c-1.2,0-2.2-0.3-2.6-0.6L481.4,131z"/>
</g>
</svg>
