<?xml version="1.0" encoding="utf-8"?>
<!-- Generator: Adobe Illustrator 21.1.0, SVG Export Plug-In . SVG Version: 6.00 Build 0)  -->
<svg version="1.1" id="レイヤー_1" xmlns="http://www.w3.org/2000/svg" xmlns:xlink="http://www.w3.org/1999/xlink" x="0px"
	 y="0px" viewBox="0 0 611.3 529.3" style="enable-background:new 0 0 611.3 529.3;" xml:space="preserve">
<style type="text/css">
	.st0{clip-path:url(#SVGID_2_);fill:none;stroke:#848484;stroke-width:2;stroke-miterlimit:10;}
	.st1{clip-path:url(#SVGID_2_);fill:none;stroke:#848484;stroke-width:3;stroke-miterlimit:10;stroke-dasharray:19.891,7.956;}
	.st2{clip-path:url(#SVGID_2_);fill:#848484;}
	.st3{clip-path:url(#SVGID_2_);fill:#FFFFFF;}
	.st4{clip-path:url(#SVGID_2_);fill:none;stroke:#848484;stroke-miterlimit:10;}
	.st5{clip-path:url(#SVGID_2_);fill:#727171;}
</style>
<g>
	<defs>
		<rect id="SVGID_1_" width="611.3" height="529.3"/>
	</defs>
	<clipPath id="SVGID_2_">
		<use xlink:href="#SVGID_1_"  style="overflow:visible;"/>
	</clipPath>
	<path class="st0" d="M466.2,529.3V195.7c0-15.7,9.7-43.6,12.4-51C487.9,119.8,514.5,38.6,527,0"/>
	<path class="st0" d="M409,195.7c0-15.7,9.7-43.6,12.4-51c9.3-24.9,35.9-106.1,48.4-144.7"/>
	<path class="st0" d="M139.7,140.7v-29.5c0-15.7,9.7-43.6,12.4-51c4.3-11.4,12.2-34.7,20.7-60.3"/>
	<path class="st0" d="M530.2,529.3V195.7c0-15.7,9.7-43.6,12.4-51c6.3-16.7,20.3-59,32.7-96.6"/>
	<line class="st1" x1="581.7" y1="525.8" x2="581.7" y2="0.7"/>
	<line class="st0" x1="586.7" y1="402.2" x2="611.9" y2="402.2"/>
	<line class="st0" x1="0" y1="402.2" x2="576.7" y2="402.2"/>
	<line class="st0" x1="586.7" y1="264.7" x2="611.9" y2="264.7"/>
	<line class="st0" x1="322" y1="264.7" x2="576.7" y2="264.7"/>
	<line class="st0" x1="0" y1="264.7" x2="291.8" y2="264.7"/>
	<line class="st0" x1="586.7" y1="127.2" x2="611.9" y2="127.2"/>
	<line class="st0" x1="249.2" y1="127.2" x2="576.7" y2="127.2"/>
	<line class="st0" x1="0" y1="43.2" x2="158.3" y2="43.2"/>
	<path class="st0" d="M306.8,394.2l69.4-129.6l-1-30.1c0,0,1.2-38.9,37.8-38.9h53.2"/>
	<path class="st0" d="M238.8,227.8l0.6-58.1c0-15.7,9.7-43.6,12.4-51c7.6-20.1,26.4-77.3,39.9-118.7"/>
	<polyline class="st0" points="306.8,394.2 238.4,264.7 238.6,246.3 	"/>
	<path class="st0" d="M0,349.1C29.3,299.9,101,154,118.3,134.2c7.7-8.8,21.4-7.6,21.4,9.4c0,6.2,0,121,0,121l-1,183.7
		c0,0-1.2,38.9-37.8,38.9H0"/>
	<line class="st0" x1="306.8" y1="394.2" x2="306.8" y2="529.3"/>
	<path class="st2" d="M300,438.3c0,4.7-3.8,8.5-8.5,8.5h-20.8c-4.7,0-8.5-3.8-8.5-8.5v-20.8c0-4.7,3.8-8.5,8.5-8.5h20.8
		c4.7,0,8.5,3.8,8.5,8.5V438.3z"/>
	<path class="st3" d="M281.1,436.5c-4.6,0-8.4-3.8-8.4-8.4s3.8-8.4,8.4-8.4c4.6,0,8.4,3.8,8.4,8.4
		C289.5,432.7,285.7,436.5,281.1,436.5 M273.2,428.1c0,4.3,3.5,7.8,7.8,7.8c4.3,0,7.8-3.5,7.8-7.8c0-4.3-3.5-7.8-7.8-7.8
		C276.7,420.2,273.2,423.8,273.2,428.1 M280.5,424.9L280.5,424.9l-1.7,0.8l-0.3-1.3l2.1-1h1.5v9.3h-1.7V424.9z"/>
	<path class="st2" d="M238.1,138.4c0,4.7-3.8,8.5-8.5,8.5h-20.8c-4.7,0-8.5-3.8-8.5-8.5v-20.8c0-4.7,3.8-8.5,8.5-8.5h20.8
		c4.7,0,8.5,3.8,8.5,8.5V138.4z"/>
	<path class="st3" d="M219.2,136.6c-4.6,0-8.4-3.8-8.4-8.4c0-4.6,3.8-8.4,8.4-8.4c4.6,0,8.4,3.8,8.4,8.4
		C227.6,132.9,223.8,136.6,219.2,136.6 M211.4,128.2c0,4.3,3.5,7.8,7.8,7.8c4.3,0,7.8-3.5,7.8-7.8c0-4.3-3.5-7.8-7.8-7.8
		C214.8,120.4,211.4,123.9,211.4,128.2 M216,132.8v-1.1l1.1-1c2.5-2.3,3.4-3.2,3.4-4.3c0-0.8-0.4-1.6-1.8-1.6
		c-0.8,0-1.6,0.4-2.1,0.8l-0.5-1.2c0.7-0.6,1.8-1,2.9-1c2.3,0,3.2,1.5,3.2,2.8c0,1.7-1.2,2.8-3.2,4.5l-0.8,0.6v0h4.2v1.4H216z"/>
	<path class="st2" d="M503.1,138.4c0,4.7-3.8,8.5-8.5,8.5h-20.8c-4.7,0-8.5-3.8-8.5-8.5v-20.8c0-4.7,3.8-8.5,8.5-8.5h20.8
		c4.7,0,8.5,3.8,8.5,8.5V138.4z"/>
	<path class="st3" d="M484.2,136.6c-4.6,0-8.4-3.8-8.4-8.4c0-4.6,3.8-8.4,8.4-8.4c4.6,0,8.4,3.8,8.4,8.4
		C492.6,132.9,488.8,136.6,484.2,136.6 M476.4,128.2c0,4.3,3.5,7.8,7.8,7.8c4.3,0,7.8-3.5,7.8-7.8c0-4.3-3.5-7.8-7.8-7.8
		C479.8,120.4,476.4,123.9,476.4,128.2 M481.4,131c0.4,0.3,1.3,0.6,2.2,0.6c1.5,0,2-0.9,2-1.4c0-1.2-1.2-1.6-2.3-1.6h-0.8v-1.3h0.8
		c0.9,0,2-0.3,2-1.3c0-0.6-0.4-1.2-1.6-1.2c-0.8,0-1.5,0.3-2,0.6l-0.4-1.3c0.5-0.4,1.6-0.7,2.7-0.7c2.1,0,3,1.1,3,2.2
		c0,1-0.6,1.7-1.7,2.1v0c1.2,0.3,2.1,1.1,2.1,2.3c0,1.5-1.3,2.8-3.7,2.8c-1.2,0-2.2-0.3-2.6-0.6L481.4,131z"/>
	<path class="st2" d="M549.1,275.1c0,4.7-3.8,8.5-8.5,8.5h-20.8c-4.7,0-8.5-3.8-8.5-8.5v-20.8c0-4.7,3.8-8.5,8.5-8.5h20.8
		c4.7,0,8.5,3.8,8.5,8.5V275.1z"/>
	<path class="st3" d="M530.2,273.3c-4.6,0-8.4-3.8-8.4-8.4c0-4.6,3.8-8.4,8.4-8.4s8.4,3.8,8.4,8.4
		C538.6,269.6,534.8,273.3,530.2,273.3 M522.4,264.9c0,4.3,3.5,7.8,7.8,7.8s7.8-3.5,7.8-7.8c0-4.3-3.5-7.8-7.8-7.8
		C525.9,257.1,522.4,260.6,522.4,264.9 M530.7,269.6v-2.3h-4.5v-1.1l4.2-5.9h1.9v5.7h1.2v1.3h-1.2v2.3H530.7z M530.7,266v-2.8
		c0-0.4,0-1,0-1.5h0c-0.3,0.5-0.5,1-0.8,1.4l-2.2,2.8v0H530.7z"/>
	<path class="st2" d="M601.3,330.9c0,4.7-3.8,8.5-8.5,8.5h-20.8c-4.7,0-8.5-3.8-8.5-8.5v-20.8c0-4.7,3.8-8.5,8.5-8.5h20.8
		c4.7,0,8.5,3.8,8.5,8.5V330.9z"/>
	<path class="st3" d="M582.4,329.1c-4.6,0-8.4-3.8-8.4-8.4c0-4.6,3.8-8.4,8.4-8.4c4.6,0,8.4,3.8,8.4,8.4
		C590.9,325.3,587.1,329.1,582.4,329.1 M574.6,320.6c0,4.3,3.5,7.8,7.8,7.8c4.3,0,7.8-3.5,7.8-7.8c0-4.3-3.5-7.8-7.8-7.8
		C578.1,312.8,574.6,316.4,574.6,320.6 M585.3,317.5h-3.7l-0.3,1.8c0.2,0,0.5-0.1,0.8-0.1c1.9,0,3.5,1,3.5,2.9
		c0,1.7-1.5,3.2-3.8,3.2c-1.1,0-2.1-0.3-2.5-0.6l0.4-1.3c0.4,0.2,1.2,0.5,2.1,0.5c1.1,0,2.1-0.7,2.1-1.6c0-1.1-0.8-1.8-2.6-1.8
		c-0.5,0-1,0.1-1.4,0.1l0.6-4.6h4.9V317.5z"/>
	<line class="st4" x1="256.7" y1="249.1" x2="267.3" y2="264.7"/>
	<path class="st5" d="M323.3,509.2h-1.4V503c0-0.6-0.2-0.9-0.5-0.9c-0.3,0-0.7,0.5-1.1,1.6c-0.5,1.1-1.1,2.9-2,5.6h-1.9v-5.7
		c-0.2,0.1-0.3,0.1-0.5,0.1c-0.4,0-0.7-0.1-1-0.4c-0.3-0.3-0.4-0.6-0.4-1c0-0.4,0.1-0.7,0.4-1c0.3-0.3,0.6-0.4,1-0.4
		c0.6,0,1,0.2,1.4,0.5c0.3,0.4,0.5,0.8,0.5,1.4v5.2c0.7-2.1,1.2-3.4,1.4-4.1c0.2-0.6,0.5-1.2,0.8-1.7c0.3-0.5,0.6-0.9,0.8-1.1
		c0.3-0.2,0.6-0.3,0.9-0.3c0.5,0,0.9,0.2,1.2,0.6s0.4,0.9,0.4,1.6V509.2z M315.8,502.7c0.2,0,0.3-0.1,0.4-0.2
		c0.1-0.1,0.2-0.2,0.2-0.4c0-0.2-0.1-0.3-0.2-0.4c-0.1-0.1-0.2-0.2-0.4-0.2c-0.2,0-0.3,0.1-0.4,0.2c-0.1,0.1-0.2,0.2-0.2,0.4
		c0,0.1,0.1,0.3,0.2,0.4C315.5,502.7,315.6,502.7,315.8,502.7"/>
	<path class="st5" d="M330.5,509.2h-1.4V504c0-0.6-0.1-1.1-0.5-1.4c-0.3-0.3-0.7-0.5-1.2-0.5c-0.8,0-1.6,0.2-2.5,0.7h-0.1v-1.5
		c0.9-0.3,1.7-0.5,2.6-0.5c2,0,3.1,1,3.1,3.1V509.2z"/>
	<path class="st5" d="M337.9,506.8c0,0.9-0.2,1.5-0.6,2c-0.4,0.4-0.9,0.7-1.6,0.7c-0.4,0-0.8-0.1-1.2-0.4c-0.4-0.3-0.7-0.7-0.9-1.3
		l-1.7-3.6h1.4c0.9,1.9,1.4,2.9,1.5,3.1c0.1,0.2,0.2,0.4,0.4,0.6c0.2,0.2,0.3,0.3,0.5,0.3c0.5,0,0.7-0.4,0.7-1.3v-3.3
		c-0.2,0.1-0.3,0.1-0.5,0.1c-0.4,0-0.7-0.1-1-0.4c-0.3-0.3-0.4-0.6-0.4-1c0-0.4,0.1-0.7,0.4-1c0.3-0.3,0.6-0.4,1-0.4
		c0.6,0,1,0.2,1.4,0.5c0.3,0.4,0.5,0.8,0.5,1.4V506.8z M336,502.7c0.1,0,0.3-0.1,0.4-0.2c0.1-0.1,0.2-0.2,0.2-0.4
		c0-0.2-0.1-0.3-0.2-0.4c-0.1-0.1-0.2-0.2-0.4-0.2c-0.2,0-0.3,0.1-0.4,0.2c-0.1,0.1-0.2,0.2-0.2,0.4c0,0.1,0.1,0.3,0.2,0.4
		C335.7,502.7,335.9,502.7,336,502.7"/>
	<path class="st5" d="M344.4,506.6c0.2-0.1,0.3-0.1,0.5-0.1c0.4,0,0.7,0.1,1,0.4c0.3,0.3,0.4,0.6,0.4,1c0,0.4-0.1,0.7-0.4,1
		c-0.3,0.3-0.6,0.4-1,0.4c-0.6,0-1-0.2-1.4-0.5c-0.3-0.4-0.5-0.8-0.5-1.4v-8.2c0-0.5-0.1-0.8-0.3-0.8c-0.1,0-0.1,0.1-0.2,0.2
		c-0.1,0.1-0.1,0.4-0.2,0.9c-0.2,0.8-0.3,1.4-0.5,1.7c-0.2,0.3-0.4,0.4-0.7,0.4c-0.3,0-0.5-0.1-0.7-0.4c-0.2-0.2-0.3-0.8-0.4-1.6
		c-0.1-0.5-0.1-0.8-0.2-0.9c-0.1-0.1-0.1-0.2-0.2-0.2h-0.2v-1.3h0.2c0.3,0,0.6,0.1,0.8,0.4c0.2,0.3,0.4,0.9,0.5,1.8
		c0.1,0.5,0.1,0.8,0.2,0.8c0.1,0,0.2-0.3,0.3-0.8c0.1-0.9,0.3-1.5,0.6-1.8c0.2-0.3,0.5-0.4,0.9-0.4c0.5,0,0.8,0.2,1.1,0.5
		c0.3,0.4,0.4,0.9,0.4,1.5V506.6z M345,508.5c0.2,0,0.3-0.1,0.4-0.2c0.1-0.1,0.2-0.2,0.2-0.4c0-0.1-0.1-0.3-0.2-0.4
		c-0.1-0.1-0.2-0.2-0.4-0.2c-0.2,0-0.3,0.1-0.4,0.2c-0.1,0.1-0.2,0.2-0.2,0.4c0,0.2,0.1,0.3,0.2,0.4
		C344.7,508.5,344.8,508.5,345,508.5"/>
	<path class="st5" d="M355,509.2h-6.9v-1.3h1.2v-4.4c-0.2,0.1-0.3,0.1-0.5,0.1c-0.4,0-0.7-0.1-1-0.4c-0.3-0.3-0.4-0.6-0.4-1
		c0-0.4,0.1-0.7,0.4-1c0.3-0.3,0.6-0.4,1-0.4c0.6,0,1,0.2,1.4,0.5c0.3,0.4,0.5,0.8,0.5,1.4v5.1h2.9v-10.8h1.4V509.2z M348.8,502.7
		c0.2,0,0.3-0.1,0.4-0.2c0.1-0.1,0.2-0.2,0.2-0.4c0-0.2-0.1-0.3-0.2-0.4c-0.1-0.1-0.2-0.2-0.4-0.2c-0.2,0-0.3,0.1-0.4,0.2
		c-0.1,0.1-0.2,0.2-0.2,0.4c0,0.1,0.1,0.3,0.2,0.4C348.5,502.7,348.7,502.7,348.8,502.7"/>
	<path class="st5" d="M365.8,509.2h-1.4V503c0-0.6-0.2-0.9-0.5-0.9c-0.3,0-0.7,0.5-1.1,1.6c-0.5,1.1-1.1,2.9-2,5.6h-1.9v-5.7
		c-0.2,0.1-0.3,0.1-0.5,0.1c-0.4,0-0.7-0.1-1-0.4c-0.3-0.3-0.4-0.6-0.4-1c0-0.4,0.1-0.7,0.4-1c0.3-0.3,0.6-0.4,1-0.4
		c0.6,0,1,0.2,1.4,0.5c0.3,0.4,0.5,0.8,0.5,1.4v5.2c0.7-2.1,1.2-3.4,1.4-4.1c0.2-0.6,0.5-1.2,0.8-1.7c0.3-0.5,0.6-0.9,0.8-1.1
		c0.3-0.2,0.6-0.3,0.9-0.3c0.5,0,0.9,0.2,1.2,0.6s0.4,0.9,0.4,1.6V509.2z M358.3,502.7c0.2,0,0.3-0.1,0.4-0.2
		c0.1-0.1,0.2-0.2,0.2-0.4c0-0.2-0.1-0.3-0.2-0.4c-0.1-0.1-0.2-0.2-0.4-0.2c-0.2,0-0.3,0.1-0.4,0.2c-0.1,0.1-0.2,0.2-0.2,0.4
		c0,0.1,0.1,0.3,0.2,0.4C358,502.7,358.1,502.7,358.3,502.7"/>
	<path class="st5" d="M373.1,509.2h-1.4V504c0-0.6-0.1-1.1-0.5-1.4c-0.3-0.3-0.7-0.5-1.2-0.5c-0.8,0-1.6,0.2-2.5,0.7h-0.1v-1.5
		c0.9-0.3,1.7-0.5,2.6-0.5c2,0,3.1,1,3.1,3.1V509.2z"/>
	<path class="st5" d="M382,509.2h-1.3c-0.9-0.9-1.8-1.5-2.7-1.7v0.2c0,0.5-0.2,0.9-0.5,1.2c-0.3,0.3-0.7,0.4-1.1,0.4
		c-0.4,0-0.8-0.1-1-0.4c-0.3-0.2-0.4-0.5-0.4-0.9c0-0.4,0.1-0.7,0.4-1c0.3-0.3,0.7-0.5,1.2-0.5v-3.1c-0.2,0.1-0.3,0.1-0.5,0.1
		c-0.4,0-0.7-0.1-1-0.4c-0.3-0.3-0.4-0.6-0.4-1c0-0.4,0.1-0.7,0.4-1c0.3-0.3,0.6-0.4,1-0.4c0.6,0,1,0.2,1.4,0.5
		c0.3,0.4,0.5,0.8,0.5,1.4v3.8c0.9,0.2,1.8,0.6,2.6,1.3V501h1.4V509.2z M376.1,502.7c0.2,0,0.3-0.1,0.4-0.2c0.1-0.1,0.2-0.2,0.2-0.4
		c0-0.2-0.1-0.3-0.2-0.4c-0.1-0.1-0.2-0.2-0.4-0.2c-0.2,0-0.3,0.1-0.4,0.2c-0.1,0.1-0.2,0.2-0.2,0.4c0,0.1,0.1,0.3,0.2,0.4
		C375.8,502.7,376,502.7,376.1,502.7 M376.7,507.9v-0.6c-0.2,0-0.4,0.1-0.6,0.2c-0.1,0.1-0.2,0.3-0.2,0.4c0,0.1,0,0.3,0.1,0.3
		c0.1,0.1,0.2,0.1,0.3,0.1C376.5,508.5,376.7,508.3,376.7,507.9"/>
	<path class="st5" d="M389.3,509.2h-1.4V504c0-0.6-0.1-1.1-0.5-1.4c-0.3-0.3-0.7-0.5-1.2-0.5c-0.8,0-1.6,0.2-2.5,0.7h-0.1v-1.5
		c0.9-0.3,1.7-0.5,2.6-0.5c2,0,3.1,1,3.1,3.1V509.2z"/>
	<path class="st5" d="M397.7,509.2h-1.5c-0.2-0.6-0.4-1.1-0.6-1.6c-0.2-0.5-0.5-0.9-0.7-1.3c-0.3,0.4-0.7,0.7-1.2,0.7
		c-0.4,0-0.7-0.1-1-0.4c-0.3-0.3-0.4-0.6-0.4-1c0-0.4,0.1-0.7,0.4-1c0.3-0.3,0.6-0.4,1-0.4c0.6,0,1,0.2,1.4,0.6
		c0.4,0.4,0.8,1.1,1.2,2v-2.8c0-0.7-0.2-1.2-0.5-1.6c-0.3-0.4-0.8-0.6-1.5-0.6c-1,0-2,0.3-3,1h-0.1v-1.5c1.1-0.4,2.1-0.6,3-0.6
		c1.1,0,1.9,0.3,2.5,0.9c0.6,0.6,0.9,1.4,0.9,2.5V509.2z M393.7,506.2c0.1,0,0.3-0.1,0.4-0.2c0.1-0.1,0.2-0.2,0.2-0.4
		c0-0.2-0.1-0.3-0.2-0.4c-0.1-0.1-0.2-0.2-0.4-0.2c-0.2,0-0.3,0.1-0.4,0.2c-0.1,0.1-0.2,0.2-0.2,0.4c0,0.2,0.1,0.3,0.2,0.4
		C393.4,506.1,393.5,506.2,393.7,506.2"/>
	<path class="st5" d="M397.1,500.3h-6c0.2-0.6,0.4-1,0.5-1.2c0.2-0.2,0.4-0.5,0.7-0.7c0.3-0.2,0.6-0.4,0.9-0.5
		c0.3-0.1,0.6-0.2,0.9-0.2c0.6,0,1.2,0.2,1.7,0.6c0.5,0.4,0.9,0.9,1.1,1.5L397.1,500.3z M396,499.5c-0.1-0.3-0.3-0.5-0.7-0.6
		c-0.3-0.2-0.7-0.2-1.1-0.2c-0.4,0-0.8,0.1-1.1,0.2c-0.3,0.2-0.6,0.4-0.7,0.6H396z"/>
	<polygon class="st5" points="404.2,497.8 399.9,511.6 398.7,511.6 403,497.8 	"/>
	<path class="st5" d="M413.7,499.9c0,0.5-0.2,1-0.5,1.5c-0.3,0.4-0.8,0.7-1.3,0.9c0.3,0.1,0.6,0.3,0.8,0.6c0.2,0.3,0.3,0.6,0.3,0.9
		v5.6h-6.3v-1.3h0.9V506c0-0.4,0.1-0.7,0.2-0.9c0.1-0.2,0.2-0.5,0.4-0.8c0.2-0.3,0.4-0.6,0.4-0.8c0.1-0.2,0.1-0.4,0.1-0.5
		c0-0.8-0.3-1.2-1-1.2c-0.1,0-0.2,0-0.3,0.1c0.4,0.3,0.6,0.7,0.6,1.1c0,0.4-0.1,0.7-0.4,1c-0.3,0.3-0.6,0.4-1,0.4
		c-0.4,0-0.7-0.1-1-0.4c-0.3-0.3-0.4-0.6-0.4-1c0-0.6,0.2-1.2,0.7-1.6c0.5-0.4,1.1-0.6,1.8-0.6c0.7,0,1.3,0.2,1.7,0.6
		c0.4,0.4,0.6,0.9,0.6,1.6c0,0.2,0,0.4-0.1,0.7c-0.1,0.2-0.2,0.6-0.5,1c-0.3,0.5-0.5,1-0.5,1.3v1.9h2.6v-4c0-0.7-0.2-1.1-0.7-1.3
		V502c0.5-0.2,0.8-0.4,1.1-0.8c0.2-0.4,0.4-0.8,0.4-1.3H413.7z M406.6,503.5c0.2,0,0.3-0.1,0.4-0.2c0.1-0.1,0.2-0.2,0.2-0.4
		c0-0.1-0.1-0.3-0.2-0.4c-0.1-0.1-0.2-0.2-0.4-0.2c-0.2,0-0.3,0.1-0.4,0.2c-0.1,0.1-0.2,0.2-0.2,0.4c0,0.2,0.1,0.3,0.2,0.4
		C406.3,503.5,406.4,503.5,406.6,503.5"/>
	<path class="st5" d="M412.3,500.3h-6c0.2-0.6,0.4-1,0.5-1.2c0.2-0.2,0.4-0.5,0.7-0.7c0.3-0.2,0.6-0.4,0.9-0.5
		c0.3-0.1,0.6-0.2,0.9-0.2c0.6,0,1.2,0.2,1.7,0.6c0.5,0.4,0.9,0.9,1.1,1.5L412.3,500.3z M411.1,499.5c-0.1-0.3-0.3-0.5-0.7-0.6
		c-0.3-0.2-0.7-0.2-1.1-0.2c-0.4,0-0.8,0.1-1.1,0.2c-0.3,0.2-0.6,0.4-0.7,0.6H411.1z"/>
	<path class="st5" d="M421.8,506.6c0.5,0.3,0.8,0.7,0.8,1.3c0,0.4-0.1,0.7-0.4,1c-0.3,0.3-0.6,0.4-1,0.4s-0.7-0.1-1-0.4
		c-0.3-0.3-0.4-0.6-0.4-1c0-0.1,0-0.1,0-0.2c-0.7,0.3-1.4,0.8-2.1,1.5h-1.3v-5.7c-0.2,0.1-0.3,0.1-0.5,0.1c-0.4,0-0.7-0.1-1-0.4
		c-0.3-0.3-0.4-0.6-0.4-1c0-0.4,0.1-0.7,0.4-1c0.3-0.3,0.6-0.4,1-0.4c0.6,0,1,0.2,1.4,0.5c0.3,0.4,0.5,0.8,0.5,1.4v5.1
		c0.8-0.7,1.7-1.1,2.6-1.3V501h1.4V506.6z M415.9,502.7c0.1,0,0.3-0.1,0.4-0.2c0.1-0.1,0.2-0.2,0.2-0.4c0-0.2-0.1-0.3-0.2-0.4
		c-0.1-0.1-0.2-0.2-0.4-0.2c-0.2,0-0.3,0.1-0.4,0.2c-0.1,0.1-0.2,0.2-0.2,0.4c0,0.1,0.1,0.3,0.2,0.4
		C415.6,502.7,415.7,502.7,415.9,502.7 M421.2,508.5c0.2,0,0.3-0.1,0.4-0.2c0.1-0.1,0.2-0.2,0.2-0.4c0-0.2-0.1-0.3-0.2-0.4
		c-0.1-0.1-0.2-0.2-0.4-0.2c-0.2,0-0.3,0.1-0.4,0.2c-0.1,0.1-0.2,0.2-0.2,0.4c0,0.2,0.1,0.3,0.2,0.4
		C420.9,508.4,421,508.5,421.2,508.5"/>
	<path class="st5" d="M429.2,509.2h-1.4V504c0-0.6-0.1-1.1-0.5-1.4c-0.3-0.3-0.7-0.5-1.2-0.5c-0.8,0-1.6,0.2-2.5,0.7h-0.1v-1.5
		c0.9-0.3,1.7-0.5,2.6-0.5c2,0,3.1,1,3.1,3.1V509.2z"/>
	<path class="st5" d="M438.2,509.2h-1.4v-4.7c0-0.9-0.2-1.5-0.5-1.9c-0.3-0.4-0.8-0.5-1.5-0.5c-1,0-1.7,0.4-1.9,1.3h1.4v1
		c-0.9,0.3-1.3,1-1.3,2.2v2.7h-1.4v-2.5c0-1.3,0.4-2.1,1.3-2.3h-1.4v-0.1c0-1.1,0.3-1.9,0.9-2.6c0.6-0.6,1.4-1,2.4-1
		c1.2,0,2,0.3,2.5,0.9c0.5,0.6,0.8,1.5,0.8,2.8V509.2z"/>
	<path class="st5" d="M445.4,509.2h-1.4V504c0-0.6-0.1-1.1-0.5-1.4c-0.3-0.3-0.7-0.5-1.2-0.5c-0.8,0-1.6,0.2-2.5,0.7h-0.1v-1.5
		c0.9-0.3,1.7-0.5,2.6-0.5c2,0,3.1,1,3.1,3.1V509.2z"/>
	<path class="st5" d="M452.7,507.4c0,0.6-0.2,1.1-0.5,1.4c-0.3,0.4-0.8,0.5-1.4,0.5c-0.4,0-0.7-0.1-1-0.4c-0.3-0.3-0.4-0.6-0.4-1
		c0-0.4,0.1-0.7,0.4-1c0.3-0.3,0.6-0.4,1-0.4c0.2,0,0.4,0,0.5,0.1V504c0-0.6-0.1-1.1-0.4-1.4c-0.3-0.3-0.7-0.5-1.2-0.5
		c-0.8,0-1.6,0.2-2.5,0.7h-0.1v-1.5c0.9-0.3,1.7-0.5,2.6-0.5c2,0,3.1,1,3.1,3.1V507.4z M450.8,508.5c0.2,0,0.3-0.1,0.4-0.2
		c0.1-0.1,0.2-0.2,0.2-0.4c0-0.1-0.1-0.3-0.2-0.4c-0.1-0.1-0.2-0.2-0.4-0.2c-0.2,0-0.3,0.1-0.4,0.2c-0.1,0.1-0.2,0.2-0.2,0.4
		c0,0.2,0.1,0.3,0.2,0.4C450.5,508.5,450.7,508.5,450.8,508.5"/>
	<rect x="451.6" y="497.8" class="st5" width="0.8" height="2.5"/>
	<path class="st5" d="M460,509.2h-1.4V504c0-0.6-0.1-1.1-0.5-1.4c-0.3-0.3-0.7-0.5-1.2-0.5c-0.8,0-1.6,0.2-2.5,0.7h-0.1v-1.5
		c0.9-0.3,1.7-0.5,2.6-0.5c2,0,3.1,1,3.1,3.1V509.2z"/>
	<path class="st5" d="M313,32.7h-1.4v-6.2c0-0.6-0.2-0.9-0.5-0.9c-0.3,0-0.7,0.5-1.1,1.6c-0.5,1.1-1.1,2.9-2,5.6H306V27
		c-0.2,0.1-0.3,0.1-0.5,0.1c-0.4,0-0.7-0.1-1-0.4c-0.3-0.3-0.4-0.6-0.4-1c0-0.4,0.1-0.7,0.4-1c0.3-0.3,0.6-0.4,1-0.4
		c0.6,0,1,0.2,1.4,0.5c0.3,0.4,0.5,0.8,0.5,1.4v5.2c0.7-2.1,1.2-3.4,1.4-4.1c0.2-0.6,0.5-1.2,0.8-1.7c0.3-0.5,0.6-0.9,0.8-1.1
		c0.3-0.2,0.6-0.3,0.9-0.3c0.5,0,0.9,0.2,1.2,0.6s0.4,0.9,0.4,1.6V32.7z M305.5,26.3c0.2,0,0.3-0.1,0.4-0.2c0.1-0.1,0.2-0.2,0.2-0.4
		c0-0.2-0.1-0.3-0.2-0.4c-0.1-0.1-0.2-0.2-0.4-0.2c-0.2,0-0.3,0.1-0.4,0.2c-0.1,0.1-0.2,0.2-0.2,0.4c0,0.1,0.1,0.3,0.2,0.4
		C305.2,26.2,305.3,26.3,305.5,26.3"/>
	<path class="st5" d="M320.3,32.7h-1.4v-5.3c0-0.6-0.1-1.1-0.5-1.4c-0.3-0.3-0.7-0.5-1.2-0.5c-0.8,0-1.6,0.2-2.5,0.7h-0.1v-1.5
		c0.9-0.3,1.7-0.5,2.6-0.5c2,0,3.1,1,3.1,3.1V32.7z"/>
	<path class="st5" d="M327.7,30.3c0,0.9-0.2,1.5-0.6,2c-0.4,0.4-0.9,0.7-1.6,0.7c-0.4,0-0.8-0.1-1.2-0.4c-0.4-0.3-0.7-0.7-0.9-1.3
		l-1.7-3.6h1.4c0.9,1.8,1.4,2.9,1.5,3.1c0.1,0.2,0.2,0.4,0.4,0.6c0.2,0.2,0.3,0.3,0.5,0.3c0.5,0,0.7-0.4,0.7-1.3V27
		c-0.2,0.1-0.3,0.1-0.5,0.1c-0.4,0-0.7-0.1-1-0.4c-0.3-0.3-0.4-0.6-0.4-1c0-0.4,0.1-0.7,0.4-1c0.3-0.3,0.6-0.4,1-0.4
		c0.6,0,1,0.2,1.4,0.5c0.3,0.4,0.5,0.8,0.5,1.4V30.3z M325.7,26.3c0.1,0,0.3-0.1,0.4-0.2c0.1-0.1,0.2-0.2,0.2-0.4
		c0-0.2-0.1-0.3-0.2-0.4c-0.1-0.1-0.2-0.2-0.4-0.2c-0.2,0-0.3,0.1-0.4,0.2c-0.1,0.1-0.2,0.2-0.2,0.4c0,0.1,0.1,0.3,0.2,0.4
		C325.5,26.2,325.6,26.3,325.7,26.3"/>
	<path class="st5" d="M334.2,30.2c0.2-0.1,0.3-0.1,0.5-0.1c0.4,0,0.7,0.1,1,0.4c0.3,0.3,0.4,0.6,0.4,1s-0.1,0.7-0.4,1
		c-0.3,0.3-0.6,0.4-1,0.4c-0.6,0-1-0.2-1.4-0.5c-0.3-0.4-0.5-0.8-0.5-1.4v-8.2c0-0.5-0.1-0.8-0.3-0.8c-0.1,0-0.1,0.1-0.2,0.2
		c-0.1,0.1-0.1,0.4-0.2,0.9c-0.2,0.8-0.3,1.4-0.5,1.7c-0.2,0.3-0.4,0.4-0.7,0.4c-0.3,0-0.5-0.1-0.7-0.4c-0.2-0.2-0.3-0.8-0.4-1.6
		c-0.1-0.5-0.1-0.8-0.2-0.9c-0.1-0.1-0.1-0.2-0.2-0.2h-0.2v-1.3h0.2c0.3,0,0.6,0.1,0.8,0.4c0.2,0.3,0.4,0.9,0.5,1.8
		c0.1,0.5,0.1,0.8,0.2,0.8c0.1,0,0.2-0.3,0.3-0.8c0.1-0.9,0.3-1.5,0.6-1.8c0.2-0.3,0.5-0.5,0.9-0.5c0.5,0,0.8,0.2,1.1,0.5
		c0.3,0.4,0.4,0.9,0.4,1.5V30.2z M334.7,32c0.2,0,0.3-0.1,0.4-0.2c0.1-0.1,0.2-0.2,0.2-0.4c0-0.1-0.1-0.3-0.2-0.4
		c-0.1-0.1-0.2-0.2-0.4-0.2c-0.2,0-0.3,0.1-0.4,0.2c-0.1,0.1-0.2,0.2-0.2,0.4c0,0.2,0.1,0.3,0.2,0.4C334.4,32,334.5,32,334.7,32"/>
	<path class="st5" d="M344.8,32.7h-6.9v-1.3h1.2V27c-0.2,0.1-0.3,0.1-0.5,0.1c-0.4,0-0.7-0.1-1-0.4c-0.3-0.3-0.4-0.6-0.4-1
		c0-0.4,0.1-0.7,0.4-1c0.3-0.3,0.6-0.4,1-0.4c0.6,0,1,0.2,1.4,0.5c0.3,0.4,0.5,0.8,0.5,1.4v5.1h2.9V20.7h1.4V32.7z M338.6,26.3
		c0.2,0,0.3-0.1,0.4-0.2c0.1-0.1,0.2-0.2,0.2-0.4c0-0.2-0.1-0.3-0.2-0.4c-0.1-0.1-0.2-0.2-0.4-0.2c-0.2,0-0.3,0.1-0.4,0.2
		c-0.1,0.1-0.2,0.2-0.2,0.4c0,0.1,0.1,0.3,0.2,0.4C338.3,26.2,338.4,26.3,338.6,26.3"/>
	<polygon class="st5" points="354.4,32.7 354.4,23.1 350.7,23.1 350.7,21.8 359.5,21.8 359.5,23.1 355.8,23.1 355.8,32.7 	"/>
	<path class="st5" d="M367.2,28.6c0,1.4-0.3,2.4-1,3.2c-0.7,0.8-1.5,1.1-2.7,1.1c-1.1,0-2-0.4-2.7-1.2c-0.7-0.8-1-1.8-1-3.2
		c0-1.4,0.3-2.4,1-3.2c0.7-0.8,1.6-1.1,2.7-1.1c1.1,0,2,0.4,2.7,1.1C366.9,26.2,367.2,27.3,367.2,28.6 M365.8,28.6
		c0-1.1-0.2-1.8-0.6-2.4c-0.4-0.5-0.9-0.8-1.6-0.8c-0.7,0-1.3,0.3-1.7,0.8c-0.4,0.5-0.6,1.3-0.6,2.4c0,1,0.2,1.8,0.6,2.3
		c0.4,0.5,0.9,0.8,1.7,0.8c0.7,0,1.3-0.3,1.6-0.8C365.6,30.5,365.8,29.7,365.8,28.6"/>
	<path class="st5" d="M372.9,26L372.9,26c-0.2,0-0.3,0-0.4-0.1c-0.1,0-0.3,0-0.4,0c-0.4,0-0.7,0.1-1.1,0.2c-0.4,0.2-0.7,0.4-1,0.7
		v5.8h-1.4v-8.2h1.4v1.2c0.5-0.4,0.9-0.8,1.3-0.9c0.4-0.2,0.7-0.3,1.1-0.3c0.1,0,0.2,0,0.3,0c0.1,0,0.1,0,0.2,0V26z"/>
	<path class="st5" d="M378.6,31.9c-0.1,0.1-0.3,0.2-0.5,0.3c-0.2,0.1-0.4,0.3-0.5,0.4c-0.2,0.1-0.5,0.2-0.7,0.3
		c-0.2,0.1-0.5,0.1-1,0.1c-0.3,0-0.7-0.1-1-0.2c-0.3-0.1-0.6-0.3-0.8-0.5c-0.2-0.2-0.4-0.5-0.5-0.8c-0.1-0.3-0.2-0.7-0.2-1
		c0-0.6,0.1-1,0.4-1.4c0.2-0.4,0.6-0.7,1.1-0.9c0.5-0.2,1-0.4,1.6-0.4c0.6-0.1,1.3-0.1,2-0.2v-0.3c0-0.3,0-0.6-0.1-0.8
		c-0.1-0.2-0.2-0.4-0.4-0.5c-0.2-0.1-0.4-0.2-0.6-0.2c-0.3,0-0.5-0.1-0.8-0.1c-0.3,0-0.7,0-1.1,0.1c-0.4,0.1-0.9,0.2-1.3,0.4h-0.1
		v-1.4c0.3-0.1,0.6-0.2,1.1-0.2c0.5-0.1,0.9-0.1,1.4-0.1c0.6,0,1,0,1.4,0.1c0.4,0.1,0.7,0.2,1,0.5c0.3,0.2,0.5,0.5,0.7,0.9
		c0.1,0.4,0.2,0.8,0.2,1.3v5.6h-1.4V31.9z M378.6,30.7v-2.3c-0.3,0-0.7,0.1-1.2,0.1c-0.5,0.1-0.9,0.1-1.2,0.2
		c-0.4,0.1-0.7,0.3-0.9,0.5c-0.2,0.2-0.4,0.6-0.4,1c0,0.5,0.1,0.8,0.4,1.1c0.3,0.2,0.6,0.4,1.2,0.4c0.4,0,0.8-0.1,1.2-0.3
		C377.9,31.2,378.3,31,378.6,30.7"/>
	<path class="st5" d="M388.3,32.7h-1.4v-4.7c0-0.4,0-0.7-0.1-1.1c0-0.3-0.1-0.6-0.2-0.8c-0.1-0.2-0.3-0.4-0.5-0.5
		c-0.2-0.1-0.5-0.1-0.8-0.1c-0.3,0-0.7,0.1-1.1,0.3c-0.4,0.2-0.7,0.4-1.1,0.7v6.1h-1.4v-8.2h1.4v0.9c0.4-0.4,0.8-0.6,1.2-0.8
		c0.4-0.2,0.8-0.3,1.3-0.3c0.8,0,1.4,0.3,1.9,0.8c0.5,0.5,0.7,1.3,0.7,2.3V32.7z"/>
	<path class="st5" d="M397,28.6c0,1.4-0.3,2.4-1,3.2c-0.7,0.8-1.5,1.1-2.7,1.1c-1.1,0-2-0.4-2.7-1.2s-1-1.8-1-3.2
		c0-1.4,0.3-2.4,1-3.2c0.7-0.8,1.6-1.1,2.7-1.1c1.1,0,2,0.4,2.7,1.1C396.6,26.2,397,27.3,397,28.6 M395.5,28.6
		c0-1.1-0.2-1.8-0.6-2.4c-0.4-0.5-0.9-0.8-1.6-0.8c-0.7,0-1.3,0.3-1.7,0.8c-0.4,0.5-0.6,1.3-0.6,2.4c0,1,0.2,1.8,0.6,2.3
		c0.4,0.5,0.9,0.8,1.7,0.8c0.7,0,1.3-0.3,1.6-0.8C395.4,30.5,395.5,29.7,395.5,28.6"/>
	<path class="st5" d="M407.7,32.7V28c0-0.4,0-0.7,0-1c0-0.3-0.1-0.6-0.2-0.8c-0.1-0.2-0.2-0.3-0.4-0.4c-0.2-0.1-0.4-0.1-0.7-0.1
		c-0.3,0-0.6,0.1-0.9,0.3c-0.3,0.2-0.7,0.4-1,0.8c0,0.1,0,0.2,0,0.3c0,0.1,0,0.3,0,0.4v5.4H403V28c0-0.4,0-0.7,0-1
		c0-0.3-0.1-0.6-0.2-0.8c-0.1-0.2-0.2-0.3-0.4-0.4c-0.2-0.1-0.4-0.1-0.7-0.1c-0.3,0-0.6,0.1-0.9,0.3c-0.3,0.2-0.6,0.4-1,0.7v6.1
		h-1.4v-8.2h1.4v0.9c0.4-0.4,0.7-0.6,1.1-0.8c0.4-0.2,0.7-0.3,1.2-0.3c0.5,0,0.9,0.1,1.3,0.3c0.4,0.2,0.7,0.6,0.9,1.1
		c0.4-0.5,0.8-0.8,1.2-1.1c0.4-0.2,0.8-0.4,1.3-0.4c0.4,0,0.7,0.1,1,0.2c0.3,0.1,0.5,0.3,0.8,0.5c0.2,0.2,0.4,0.6,0.5,0.9
		c0.1,0.4,0.2,0.8,0.2,1.4v5.4H407.7z"/>
	<path class="st5" d="M417.7,28.6c0,1.4-0.3,2.4-1,3.2c-0.7,0.8-1.5,1.1-2.7,1.1c-1.1,0-2-0.4-2.7-1.2s-1-1.8-1-3.2
		c0-1.4,0.3-2.4,1-3.2c0.7-0.8,1.6-1.1,2.7-1.1c1.1,0,2,0.4,2.7,1.1C417.4,26.2,417.7,27.3,417.7,28.6 M416.3,28.6
		c0-1.1-0.2-1.8-0.6-2.4c-0.4-0.5-0.9-0.8-1.6-0.8c-0.7,0-1.3,0.3-1.7,0.8c-0.4,0.5-0.6,1.3-0.6,2.4c0,1,0.2,1.8,0.6,2.3
		c0.4,0.5,0.9,0.8,1.7,0.8c0.7,0,1.3-0.3,1.6-0.8C416.1,30.5,416.3,29.7,416.3,28.6"/>
	<path class="st5" d="M425.6,32.7h-1.4v-4.7c0-0.4,0-0.7-0.1-1.1c0-0.3-0.1-0.6-0.2-0.8c-0.1-0.2-0.3-0.4-0.5-0.5
		c-0.2-0.1-0.5-0.1-0.8-0.1c-0.3,0-0.7,0.1-1.1,0.3c-0.4,0.2-0.7,0.4-1.1,0.7v6.1h-1.4v-8.2h1.4v0.9c0.4-0.4,0.8-0.6,1.2-0.8
		c0.4-0.2,0.8-0.3,1.3-0.3c0.8,0,1.4,0.3,1.9,0.8c0.5,0.5,0.7,1.3,0.7,2.3V32.7z"/>
	<path class="st5" d="M395.2,299.7c0,0.6-0.2,1.1-0.5,1.4c-0.3,0.4-0.8,0.5-1.4,0.5c-0.4,0-0.7-0.1-1-0.4c-0.3-0.3-0.4-0.6-0.4-1
		c0-0.4,0.1-0.7,0.4-1c0.3-0.3,0.6-0.4,1-0.4c0.2,0,0.4,0,0.5,0.1v-2.7c0-0.6-0.1-1.1-0.4-1.4c-0.3-0.3-0.7-0.5-1.2-0.5
		c-0.8,0-1.6,0.2-2.5,0.7h-0.1v-1.5c0.9-0.3,1.7-0.5,2.6-0.5c2,0,3.1,1,3.1,3.1V299.7z M393.3,300.9c0.2,0,0.3-0.1,0.4-0.2
		c0.1-0.1,0.2-0.2,0.2-0.4c0-0.1-0.1-0.3-0.2-0.4c-0.1-0.1-0.2-0.2-0.4-0.2c-0.2,0-0.3,0.1-0.4,0.2c-0.1,0.1-0.2,0.2-0.2,0.4
		c0,0.2,0.1,0.3,0.2,0.4C393,300.8,393.2,300.9,393.3,300.9"/>
	<path class="st5" d="M397.5,290.2c-0.2,0.8-0.7,1.4-1.5,1.9s-1.6,0.7-2.5,0.7c-0.7,0-1.3-0.2-1.7-0.5c-0.4-0.3-0.6-0.7-0.6-1.2
		c0-0.4,0.1-0.7,0.4-1c0.3-0.3,0.6-0.4,1-0.4c0.4,0,0.7,0.1,1,0.4c0.3,0.3,0.4,0.6,0.4,1c0,0.4-0.1,0.7-0.3,0.9
		c0.6,0,1.3-0.2,1.8-0.6c0.6-0.4,0.9-0.8,1-1.3H397.5z M392.7,291.7c0.1,0,0.3-0.1,0.4-0.2c0.1-0.1,0.2-0.2,0.2-0.4
		c0-0.2-0.1-0.3-0.2-0.4c-0.1-0.1-0.2-0.2-0.4-0.2c-0.2,0-0.3,0.1-0.4,0.2c-0.1,0.1-0.2,0.2-0.2,0.4c0,0.2,0.1,0.3,0.2,0.4
		C392.4,291.6,392.5,291.7,392.7,291.7"/>
	<path class="st5" d="M404.4,301.6h-1.4v-4.7c0-1.6-0.7-2.4-2.2-2.4c-0.7,0-1.2,0.2-1.6,0.6c-0.4,0.4-0.6,0.9-0.6,1.6
		c0,0.6,0.1,1.3,0.3,2.1c0.1,0.2,0.1,0.7,0.3,1.5l0.8-0.7c0.3-0.3,0.4-0.5,0.5-0.7c-0.3-0.1-0.6-0.3-0.8-0.5
		c-0.2-0.2-0.3-0.5-0.3-0.9c0-0.4,0.1-0.7,0.4-1c0.3-0.3,0.6-0.4,1-0.4c0.4,0,0.7,0.1,1,0.4c0.3,0.3,0.4,0.6,0.4,1.1
		c0,0.5-0.2,0.9-0.5,1.5c-0.3,0.5-0.9,1.2-1.8,1.9c-0.3,0.2-0.5,0.4-0.7,0.6H398V301c0-0.4-0.1-1-0.3-1.9c-0.2-1-0.3-1.8-0.3-2.3
		c0-1.1,0.3-1.9,0.9-2.6c0.6-0.7,1.5-1,2.6-1c2.4,0,3.5,1.2,3.5,3.7V301.6z M400.9,298c0.2,0,0.3-0.1,0.4-0.2
		c0.1-0.1,0.2-0.2,0.2-0.4c0-0.2-0.1-0.3-0.2-0.4c-0.1-0.1-0.2-0.2-0.4-0.2c-0.2,0-0.3,0.1-0.4,0.2c-0.1,0.1-0.2,0.2-0.2,0.4
		c0,0.1,0.1,0.3,0.2,0.4C400.6,298,400.8,298,400.9,298"/>
	<path class="st5" d="M410.6,299c0.2-0.1,0.3-0.1,0.5-0.1c0.4,0,0.7,0.1,1,0.4c0.3,0.3,0.4,0.6,0.4,1c0,0.4-0.1,0.7-0.4,1
		c-0.3,0.3-0.6,0.4-1,0.4c-0.6,0-1-0.2-1.4-0.5c-0.3-0.4-0.5-0.8-0.5-1.4v-5.4c0-0.7-0.1-1.2-0.3-1.5c-0.2-0.3-0.5-0.4-0.9-0.4
		c-0.2,0-0.5,0-0.7,0c-0.3,0-0.5,0.1-0.7,0.1l-0.5,0.1h-0.1v-0.5c0-0.9,0.2-1.5,0.6-2c0.4-0.5,1.2-0.7,2.2-0.7l1.6,0.1
		c0.2,0,0.4,0,0.7-0.1l0.6-0.1h0.1v1.3c-0.4,0.1-0.9,0.1-1.3,0.1l-1.6-0.1c-0.5,0-0.9,0.1-1.1,0.2c-0.3,0.2-0.4,0.4-0.4,0.6
		c0.2,0,0.4,0,0.7,0c1,0,1.7,0.2,2,0.6c0.3,0.4,0.5,1.2,0.5,2.3V299z M411.2,300.9c0.2,0,0.3-0.1,0.4-0.2c0.1-0.1,0.2-0.2,0.2-0.4
		c0-0.2-0.1-0.3-0.2-0.4c-0.1-0.1-0.2-0.2-0.4-0.2c-0.2,0-0.3,0.1-0.4,0.2c-0.1,0.1-0.2,0.2-0.2,0.4c0,0.2,0.1,0.3,0.2,0.4
		C410.9,300.8,411,300.9,411.2,300.9"/>
	<path class="st5" d="M423,292.3c0,0.5-0.2,1-0.5,1.5c-0.3,0.4-0.8,0.7-1.3,0.9c0.3,0.1,0.6,0.3,0.8,0.6c0.2,0.3,0.3,0.6,0.3,0.9
		v5.6h-6.6v-1.3h1.2v-2.1c0-0.2,0-0.5,0.1-0.7c0.1-0.3,0.2-0.6,0.5-1c0.2-0.3,0.3-0.6,0.4-0.7c0.1-0.2,0.1-0.3,0.1-0.5
		c0-0.4-0.2-0.7-0.6-0.9l-0.8,0.6l-0.8-0.6c-0.2,0.1-0.4,0.2-0.6,0.5c0.4,0,0.7,0.2,1,0.5c0.3,0.3,0.4,0.6,0.4,0.9
		c0,0.4-0.1,0.7-0.4,1c-0.3,0.3-0.6,0.4-1,0.4c-0.5,0-0.8-0.2-1.2-0.5c-0.3-0.4-0.5-0.8-0.5-1.3c0-0.6,0.2-1.1,0.6-1.6
		c0.4-0.5,0.9-0.8,1.6-0.9l0.8,0.6l0.8-0.6c0.6,0.1,1,0.4,1.4,0.7c0.3,0.4,0.5,0.8,0.5,1.3c0,0.2,0,0.4-0.1,0.7
		c-0.1,0.2-0.2,0.5-0.5,0.9c-0.2,0.3-0.3,0.6-0.4,0.8c-0.1,0.2-0.1,0.3-0.1,0.5v2.2h2.6v-4c0-0.7-0.2-1.1-0.7-1.3v-0.6
		c0.5-0.2,0.8-0.4,1-0.8c0.2-0.4,0.4-0.8,0.4-1.3H423z M415.3,296.8c0.2,0,0.3-0.1,0.4-0.2c0.1-0.1,0.2-0.2,0.2-0.4
		c0-0.1-0.1-0.3-0.2-0.4c-0.1-0.1-0.2-0.2-0.4-0.2c-0.2,0-0.3,0.1-0.4,0.2c-0.1,0.1-0.2,0.2-0.2,0.4c0,0.2,0.1,0.3,0.2,0.4
		C415,296.7,415.1,296.8,415.3,296.8"/>
	<path class="st5" d="M428.3,299c0.1-0.1,0.3-0.1,0.5-0.1c0.4,0,0.7,0.1,1,0.4c0.3,0.3,0.4,0.6,0.4,1c0,0.4-0.1,0.7-0.4,1
		c-0.3,0.3-0.6,0.4-1,0.4c-0.6,0-1-0.2-1.4-0.5c-0.3-0.4-0.5-0.8-0.5-1.4v-5.4c0-0.7-0.1-1.2-0.3-1.5c-0.2-0.3-0.5-0.4-0.9-0.4
		c-0.2,0-0.4,0-0.7,0c-0.3,0-0.5,0.1-0.7,0.1l-0.5,0.1h-0.1v-0.5c0-0.9,0.2-1.5,0.6-2c0.4-0.5,1.2-0.7,2.2-0.7l1.6,0.1
		c0.2,0,0.4,0,0.7-0.1l0.6-0.1h0.1v1.3c-0.4,0.1-0.9,0.1-1.3,0.1l-1.6-0.1c-0.5,0-0.9,0.1-1.1,0.2c-0.3,0.2-0.4,0.4-0.4,0.6
		c0.2,0,0.4,0,0.7,0c1,0,1.7,0.2,2,0.6c0.3,0.4,0.5,1.2,0.5,2.3V299z M428.9,300.9c0.1,0,0.3-0.1,0.4-0.2c0.1-0.1,0.2-0.2,0.2-0.4
		c0-0.2-0.1-0.3-0.2-0.4c-0.1-0.1-0.2-0.2-0.4-0.2c-0.2,0-0.3,0.1-0.4,0.2c-0.1,0.1-0.2,0.2-0.2,0.4c0,0.2,0.1,0.3,0.2,0.4
		C428.6,300.8,428.7,300.9,428.9,300.9"/>
	<path class="st5" d="M437.9,301.6h-1.5c-0.2-0.6-0.4-1.1-0.6-1.6c-0.2-0.5-0.5-0.9-0.7-1.3c-0.3,0.5-0.7,0.7-1.2,0.7
		c-0.4,0-0.7-0.1-1-0.4c-0.3-0.3-0.4-0.6-0.4-1c0-0.4,0.1-0.7,0.4-1c0.3-0.3,0.6-0.4,1-0.4c0.6,0,1,0.2,1.4,0.6
		c0.4,0.4,0.8,1.1,1.2,2v-2.8c0-0.7-0.2-1.2-0.5-1.6c-0.3-0.4-0.8-0.6-1.5-0.6c-1,0-2,0.3-3,1h-0.1v-1.5c1.1-0.4,2.1-0.6,3-0.6
		c1.1,0,1.9,0.3,2.5,0.9c0.6,0.6,0.9,1.4,0.9,2.5V301.6z M433.9,298.5c0.1,0,0.3-0.1,0.4-0.2c0.1-0.1,0.2-0.2,0.2-0.4
		c0-0.2-0.1-0.3-0.2-0.4c-0.1-0.1-0.2-0.2-0.4-0.2c-0.2,0-0.3,0.1-0.4,0.2c-0.1,0.1-0.2,0.2-0.2,0.4c0,0.2,0.1,0.3,0.2,0.4
		C433.6,298.5,433.7,298.5,433.9,298.5"/>
	<path class="st5" d="M446.2,301.6h-1.5c-0.2-0.6-0.4-1.1-0.6-1.6c-0.2-0.5-0.5-0.9-0.7-1.3c-0.3,0.5-0.7,0.7-1.2,0.7
		c-0.4,0-0.7-0.1-1-0.4c-0.3-0.3-0.4-0.6-0.4-1c0-0.4,0.1-0.7,0.4-1c0.3-0.3,0.6-0.4,1-0.4c0.6,0,1,0.2,1.4,0.6
		c0.4,0.4,0.8,1.1,1.2,2v-2.8c0-0.7-0.2-1.2-0.5-1.6c-0.3-0.4-0.8-0.6-1.4-0.6c-1,0-2,0.3-3,1h-0.1v-1.5c1.1-0.4,2.1-0.6,3-0.6
		c1.1,0,1.9,0.3,2.5,0.9c0.6,0.6,0.9,1.4,0.9,2.5V301.6z M442.2,298.5c0.2,0,0.3-0.1,0.4-0.2c0.1-0.1,0.2-0.2,0.2-0.4
		c0-0.2-0.1-0.3-0.2-0.4c-0.1-0.1-0.2-0.2-0.4-0.2c-0.2,0-0.3,0.1-0.4,0.2c-0.1,0.1-0.2,0.2-0.2,0.4c0,0.2,0.1,0.3,0.2,0.4
		C441.9,298.5,442.1,298.5,442.2,298.5"/>
	<path class="st5" d="M445.7,292.7h-6c0.2-0.6,0.4-1,0.5-1.2c0.2-0.2,0.4-0.5,0.7-0.7c0.3-0.2,0.6-0.4,0.9-0.5
		c0.3-0.1,0.6-0.2,0.9-0.2c0.6,0,1.2,0.2,1.7,0.6c0.5,0.4,0.9,0.9,1.1,1.5L445.7,292.7z M444.5,291.9c-0.1-0.3-0.3-0.5-0.7-0.6
		c-0.3-0.2-0.7-0.2-1.1-0.2c-0.4,0-0.8,0.1-1.1,0.2c-0.3,0.2-0.6,0.4-0.7,0.6H444.5z"/>
	<path class="st5" d="M167,244h-1.4v-4.7c0-0.9-0.2-1.5-0.5-1.9c-0.3-0.4-0.8-0.5-1.5-0.5c-1,0-1.6,0.4-1.9,1.3h1.4v1
		c-0.4,0.2-0.8,0.4-1,0.7c-0.2,0.3-0.3,0.8-0.3,1.3v0.3c0.1-0.1,0.3-0.1,0.5-0.1c0.4,0,0.7,0.1,1,0.4c0.3,0.3,0.4,0.6,0.4,1
		c0,0.4-0.1,0.7-0.4,1c-0.3,0.3-0.6,0.4-1,0.4c-0.6,0-1-0.2-1.4-0.5c-0.3-0.4-0.5-0.8-0.5-1.4v-0.9c0-1.1,0.4-1.8,1.3-2.1h-1.4v-0.1
		c0-1.1,0.3-1.9,0.9-2.6c0.6-0.7,1.4-1,2.4-1c1.2,0,2,0.3,2.5,0.9c0.5,0.6,0.8,1.5,0.8,2.8V244z M162.4,243.3c0.1,0,0.3-0.1,0.4-0.2
		c0.1-0.1,0.2-0.2,0.2-0.4c0-0.1-0.1-0.3-0.2-0.4c-0.1-0.1-0.2-0.2-0.4-0.2c-0.2,0-0.3,0.1-0.4,0.2c-0.1,0.1-0.2,0.2-0.2,0.4
		c0,0.2,0.1,0.3,0.2,0.4C162.1,243.2,162.3,243.3,162.4,243.3"/>
	<path class="st5" d="M176,241.4c0.5,0.3,0.8,0.7,0.8,1.3c0,0.4-0.1,0.7-0.4,1c-0.3,0.3-0.6,0.4-1,0.4c-0.4,0-0.7-0.1-1-0.4
		c-0.3-0.3-0.4-0.6-0.4-1c0-0.1,0-0.1,0-0.2c-0.7,0.3-1.4,0.8-2.1,1.5h-1.3v-5.7c-0.1,0.1-0.3,0.1-0.5,0.1c-0.4,0-0.7-0.1-1-0.4
		c-0.3-0.3-0.4-0.6-0.4-1c0-0.4,0.1-0.7,0.4-1c0.3-0.3,0.6-0.4,1-0.4c0.6,0,1,0.2,1.4,0.5c0.3,0.4,0.5,0.8,0.5,1.4v5.1
		c0.8-0.7,1.7-1.1,2.6-1.3v-5.5h1.4V241.4z M170.1,237.5c0.2,0,0.3-0.1,0.4-0.2c0.1-0.1,0.2-0.2,0.2-0.4c0-0.2-0.1-0.3-0.2-0.4
		c-0.1-0.1-0.2-0.2-0.4-0.2c-0.2,0-0.3,0.1-0.4,0.2c-0.1,0.1-0.2,0.2-0.2,0.4c0,0.1,0.1,0.3,0.2,0.4
		C169.8,237.4,169.9,237.5,170.1,237.5 M175.4,243.2c0.2,0,0.3-0.1,0.4-0.2c0.1-0.1,0.2-0.2,0.2-0.4c0-0.2-0.1-0.3-0.2-0.4
		c-0.1-0.1-0.2-0.2-0.4-0.2c-0.2,0-0.3,0.1-0.4,0.2c-0.1,0.1-0.2,0.2-0.2,0.4c0,0.2,0.1,0.3,0.2,0.4
		C175.1,243.2,175.2,243.2,175.4,243.2"/>
	<path class="st5" d="M185.2,241.4c0.5,0.3,0.8,0.7,0.8,1.3c0,0.4-0.1,0.7-0.4,1c-0.3,0.3-0.6,0.4-1,0.4c-0.4,0-0.7-0.1-1-0.4
		c-0.3-0.3-0.4-0.6-0.4-1c0-0.1,0-0.1,0-0.2c-0.7,0.3-1.4,0.8-2.1,1.5h-1.3v-5.7c-0.2,0.1-0.3,0.1-0.5,0.1c-0.4,0-0.7-0.1-1-0.4
		c-0.3-0.3-0.4-0.6-0.4-1c0-0.4,0.1-0.7,0.4-1c0.3-0.3,0.6-0.4,1-0.4c0.6,0,1,0.2,1.4,0.5c0.3,0.4,0.5,0.8,0.5,1.4v5.1
		c0.8-0.7,1.7-1.1,2.6-1.3v-5.5h1.4V241.4z M179.2,237.5c0.2,0,0.3-0.1,0.4-0.2c0.1-0.1,0.2-0.2,0.2-0.4c0-0.2-0.1-0.3-0.2-0.4
		c-0.1-0.1-0.2-0.2-0.4-0.2s-0.3,0.1-0.4,0.2s-0.2,0.2-0.2,0.4c0,0.1,0.1,0.3,0.2,0.4C179,237.4,179.1,237.5,179.2,237.5
		 M184.5,243.2c0.2,0,0.3-0.1,0.4-0.2c0.1-0.1,0.2-0.2,0.2-0.4c0-0.2-0.1-0.3-0.2-0.4c-0.1-0.1-0.2-0.2-0.4-0.2
		c-0.2,0-0.3,0.1-0.4,0.2c-0.1,0.1-0.2,0.2-0.2,0.4c0,0.2,0.1,0.3,0.2,0.4C184.3,243.2,184.4,243.2,184.5,243.2"/>
	<polygon class="st5" points="194.9,244 194.9,234.3 191.3,234.3 191.3,233.1 200,233.1 200,234.3 196.4,234.3 196.4,244 	"/>
	<path class="st5" d="M207.8,239.9c0,1.4-0.3,2.4-1,3.2c-0.7,0.8-1.5,1.1-2.7,1.1c-1.1,0-2-0.4-2.7-1.2c-0.7-0.8-1-1.8-1-3.2
		c0-1.4,0.3-2.4,1-3.2c0.7-0.8,1.6-1.1,2.7-1.1c1.1,0,2,0.4,2.7,1.1C207.4,237.4,207.8,238.5,207.8,239.9 M206.3,239.9
		c0-1.1-0.2-1.8-0.6-2.4c-0.4-0.5-0.9-0.8-1.6-0.8c-0.7,0-1.3,0.3-1.7,0.8c-0.4,0.5-0.6,1.3-0.6,2.4c0,1,0.2,1.8,0.6,2.3
		c0.4,0.5,0.9,0.8,1.7,0.8c0.7,0,1.3-0.3,1.6-0.8C206.1,241.7,206.3,240.9,206.3,239.9"/>
	<polygon class="st5" points="215.9,244 214.1,244 211.1,240 210.5,240.5 210.5,244 209.2,244 209.2,232.6 210.5,232.6 210.5,239.2 
		213.8,235.8 215.5,235.8 212.1,239.2 	"/>
	<polygon class="st5" points="223.1,235.8 218.7,247 217.2,247 218.7,243.6 215.7,235.8 217.2,235.8 219.4,241.8 221.6,235.8 	"/>
	<path class="st5" d="M230.8,239.9c0,1.4-0.3,2.4-1,3.2c-0.7,0.8-1.5,1.1-2.7,1.1c-1.1,0-2-0.4-2.7-1.2c-0.7-0.8-1-1.8-1-3.2
		c0-1.4,0.3-2.4,1-3.2c0.7-0.8,1.6-1.1,2.7-1.1c1.1,0,2,0.4,2.7,1.1C230.5,237.4,230.8,238.5,230.8,239.9 M229.4,239.9
		c0-1.1-0.2-1.8-0.6-2.4c-0.4-0.5-0.9-0.8-1.6-0.8c-0.7,0-1.3,0.3-1.7,0.8c-0.4,0.5-0.6,1.3-0.6,2.4c0,1,0.2,1.8,0.6,2.3
		c0.4,0.5,0.9,0.8,1.7,0.8c0.7,0,1.3-0.3,1.6-0.8C229.2,241.7,229.4,240.9,229.4,239.9"/>
	<polygon class="st5" points="239.6,244 239.6,234.3 235.9,234.3 235.9,233.1 244.7,233.1 244.7,234.3 241,234.3 241,244 	"/>
	<path class="st5" d="M252.4,239.9c0,1.4-0.3,2.4-1,3.2c-0.7,0.8-1.5,1.1-2.7,1.1c-1.1,0-2-0.4-2.7-1.2c-0.7-0.8-1-1.8-1-3.2
		c0-1.4,0.3-2.4,1-3.2c0.7-0.8,1.6-1.1,2.7-1.1c1.1,0,2,0.4,2.7,1.1C252.1,237.4,252.4,238.5,252.4,239.9 M251,239.9
		c0-1.1-0.2-1.8-0.6-2.4c-0.4-0.5-0.9-0.8-1.6-0.8c-0.7,0-1.3,0.3-1.7,0.8c-0.4,0.5-0.6,1.3-0.6,2.4c0,1,0.2,1.8,0.6,2.3
		c0.4,0.5,0.9,0.8,1.7,0.8c0.7,0,1.3-0.3,1.6-0.8C250.8,241.7,251,240.9,251,239.9"/>
	<polygon class="st5" points="263.8,235.8 261.7,244 260.4,244 258.4,237.7 256.4,244 255.2,244 253.1,235.8 254.5,235.8 
		255.9,242.1 257.9,235.8 259,235.8 261,242.1 262.4,235.8 	"/>
	<path class="st5" d="M268.5,244.2c-1.3,0-2.3-0.4-3-1.1c-0.7-0.7-1.1-1.8-1.1-3.1c0-1.3,0.4-2.4,1-3.2c0.7-0.8,1.6-1.2,2.7-1.2
		c0.5,0,1,0.1,1.3,0.2c0.4,0.1,0.7,0.4,1,0.7c0.3,0.3,0.5,0.7,0.7,1.1c0.2,0.5,0.2,1,0.2,1.7v0.7h-5.7c0,1,0.2,1.7,0.7,2.2
		c0.5,0.5,1.1,0.8,2,0.8c0.3,0,0.6,0,0.9-0.1c0.3-0.1,0.6-0.2,0.8-0.3c0.2-0.1,0.5-0.2,0.6-0.3c0.2-0.1,0.3-0.2,0.4-0.3h0.1v1.5
		c-0.2,0.1-0.4,0.1-0.6,0.2c-0.2,0.1-0.5,0.2-0.6,0.2c-0.3,0.1-0.5,0.1-0.7,0.2C269.1,244.1,268.9,244.2,268.5,244.2 M270.1,239
		c0-0.4-0.1-0.7-0.1-1c-0.1-0.3-0.2-0.5-0.3-0.7c-0.2-0.2-0.4-0.4-0.6-0.5c-0.3-0.1-0.6-0.2-0.9-0.2c-0.4,0-0.7,0.1-0.9,0.2
		c-0.3,0.1-0.5,0.3-0.7,0.5c-0.2,0.2-0.4,0.5-0.5,0.7c-0.1,0.3-0.2,0.6-0.2,0.9H270.1z"/>
	<path class="st5" d="M277.2,237.3L277.2,237.3c-0.2,0-0.3,0-0.4-0.1c-0.1,0-0.3,0-0.4,0c-0.4,0-0.7,0.1-1.1,0.2
		c-0.4,0.2-0.7,0.4-1,0.7v5.8h-1.4v-8.2h1.4v1.2c0.5-0.4,0.9-0.8,1.3-0.9c0.4-0.2,0.7-0.3,1.1-0.3c0.1,0,0.2,0,0.3,0
		c0.1,0,0.1,0,0.2,0V237.3z"/>
	<path class="st5" d="M53.9,294.4c-0.4,0.1-0.9,0.1-1.4,0.1l-1.6-0.1c-0.5,0-0.9,0.1-1.1,0.2c-0.3,0.2-0.4,0.4-0.4,0.6
		c0.2,0,0.4,0,0.7,0c1.1,0,1.8,0.2,2.2,0.7c0.4,0.4,0.6,1.2,0.6,2.2v1.6c0,0.6-0.2,1.1-0.5,1.4c-0.3,0.4-0.8,0.5-1.4,0.5
		c-0.4,0-0.7-0.1-1-0.4c-0.3-0.3-0.4-0.6-0.4-1c0-0.4,0.1-0.7,0.4-1c0.3-0.3,0.6-0.4,1-0.4c0.2,0,0.4,0,0.5,0.1v-0.9
		c0-0.7-0.1-1.1-0.4-1.4c-0.2-0.3-0.6-0.4-1.1-0.4c-0.2,0-0.4,0-0.7,0c-0.3,0-0.5,0.1-0.7,0.1l-0.5,0.1h0V296c0-0.9,0.2-1.5,0.6-2
		c0.4-0.5,1.2-0.7,2.2-0.7l1.6,0.1c0.2,0,0.4,0,0.7-0.1l0.6-0.1h0.1V294.4z M51,300.9c0.2,0,0.3-0.1,0.4-0.2
		c0.1-0.1,0.2-0.2,0.2-0.4c0-0.2-0.1-0.3-0.2-0.4c-0.1-0.1-0.2-0.2-0.4-0.2c-0.2,0-0.3,0.1-0.4,0.2c-0.1,0.1-0.2,0.2-0.2,0.4
		c0,0.2,0.1,0.3,0.2,0.4C50.7,300.8,50.9,300.9,51,300.9"/>
	<path class="st5" d="M62.5,301.6h-6.9v-1.3h1.2v-4.4c-0.2,0.1-0.3,0.1-0.5,0.1c-0.4,0-0.7-0.1-1-0.4c-0.3-0.3-0.4-0.6-0.4-1
		c0-0.4,0.1-0.7,0.4-1c0.3-0.3,0.6-0.4,1-0.4c0.6,0,1,0.2,1.4,0.5c0.3,0.4,0.5,0.8,0.5,1.4v5.1h2.9v-10.8h1.4V301.6z M56.2,295.1
		c0.2,0,0.3-0.1,0.4-0.2c0.1-0.1,0.2-0.2,0.2-0.4c0-0.2-0.1-0.3-0.2-0.4c-0.1-0.1-0.2-0.2-0.4-0.2c-0.2,0-0.3,0.1-0.4,0.2
		c-0.1,0.1-0.2,0.2-0.2,0.4c0,0.1,0.1,0.3,0.2,0.4C55.9,295.1,56.1,295.1,56.2,295.1"/>
	<path class="st5" d="M71.9,301.6H65v-1.3h1.2v-4.4c-0.2,0.1-0.3,0.1-0.5,0.1c-0.4,0-0.7-0.1-1-0.4c-0.3-0.3-0.4-0.6-0.4-1
		c0-0.4,0.1-0.7,0.4-1c0.3-0.3,0.6-0.4,1-0.4c0.6,0,1,0.2,1.4,0.5c0.3,0.4,0.5,0.8,0.5,1.4v5.1h2.9v-10.8h1.4V301.6z M65.7,295.1
		c0.2,0,0.3-0.1,0.4-0.2c0.1-0.1,0.2-0.2,0.2-0.4c0-0.2-0.1-0.3-0.2-0.4c-0.1-0.1-0.2-0.2-0.4-0.2c-0.2,0-0.3,0.1-0.4,0.2
		c-0.1,0.1-0.2,0.2-0.2,0.4c0,0.1,0.1,0.3,0.2,0.4C65.4,295.1,65.5,295.1,65.7,295.1"/>
	<path class="st5" d="M79.3,299.2c0,0.9-0.2,1.5-0.6,2c-0.4,0.4-0.9,0.7-1.6,0.7c-0.4,0-0.8-0.1-1.2-0.4c-0.4-0.3-0.7-0.7-0.9-1.3
		l-1.7-3.6h1.4c0.9,1.9,1.4,2.9,1.5,3.1c0.1,0.2,0.2,0.4,0.4,0.6c0.2,0.2,0.3,0.3,0.5,0.3c0.5,0,0.7-0.4,0.7-1.3v-3.3
		c-0.2,0.1-0.3,0.1-0.5,0.1c-0.4,0-0.7-0.1-1-0.4c-0.3-0.3-0.4-0.6-0.4-1c0-0.4,0.1-0.7,0.4-1c0.3-0.3,0.6-0.4,1-0.4
		c0.6,0,1,0.2,1.4,0.5c0.3,0.4,0.5,0.8,0.5,1.4V299.2z M77.4,295.1c0.1,0,0.3-0.1,0.4-0.2c0.1-0.1,0.2-0.2,0.2-0.4
		c0-0.2-0.1-0.3-0.2-0.4c-0.1-0.1-0.2-0.2-0.4-0.2c-0.2,0-0.3,0.1-0.4,0.2c-0.1,0.1-0.2,0.2-0.2,0.4c0,0.1,0.1,0.3,0.2,0.4
		C77.1,295.1,77.2,295.1,77.4,295.1"/>
	<path class="st5" d="M89.3,301.6H88v-4c0-0.6-0.1-0.9-0.3-1.1c-1,1-2.2,2.7-3.4,5.1h-1.4v-5.7c-0.2,0.1-0.3,0.1-0.5,0.1
		c-0.4,0-0.7-0.1-1-0.4c-0.3-0.3-0.4-0.6-0.4-1c0-0.4,0.1-0.7,0.4-1c0.3-0.3,0.6-0.4,1-0.4c0.6,0,1,0.2,1.4,0.5
		c0.3,0.4,0.5,0.8,0.5,1.4v4.6c1-1.8,1.9-3.1,2.8-3.9c-0.2-0.1-0.4-0.3-0.5-0.5c-0.1-0.2-0.2-0.5-0.2-0.7c0-0.4,0.1-0.7,0.4-1
		c0.3-0.3,0.6-0.4,1-0.4c0.4,0,0.7,0.1,1,0.4c0.3,0.3,0.4,0.6,0.4,1c0,0.6-0.2,1-0.7,1.2c0.6,0.3,0.8,0.9,0.8,1.8V301.6z
		 M82.4,295.1c0.2,0,0.3-0.1,0.4-0.2c0.1-0.1,0.2-0.2,0.2-0.4c0-0.2-0.1-0.3-0.2-0.4c-0.1-0.1-0.2-0.2-0.4-0.2
		c-0.2,0-0.3,0.1-0.4,0.2c-0.1,0.1-0.2,0.2-0.2,0.4c0,0.1,0.1,0.3,0.2,0.4C82.1,295.1,82.2,295.1,82.4,295.1 M87.8,295.1
		c0.2,0,0.3-0.1,0.4-0.2c0.1-0.1,0.2-0.2,0.2-0.4c0-0.2-0.1-0.3-0.2-0.4c-0.1-0.1-0.2-0.2-0.4-0.2c-0.2,0-0.3,0.1-0.4,0.2
		c-0.1,0.1-0.2,0.2-0.2,0.4c0,0.1,0.1,0.3,0.2,0.4C87.5,295.1,87.7,295.1,87.8,295.1"/>
	<path class="st5" d="M96.7,299.2c0,0.9-0.2,1.5-0.6,2c-0.4,0.4-0.9,0.7-1.6,0.7c-0.4,0-0.8-0.1-1.2-0.4c-0.4-0.3-0.7-0.7-0.9-1.3
		l-1.7-3.6h1.4c0.9,1.9,1.4,2.9,1.5,3.1c0.1,0.2,0.2,0.4,0.4,0.6c0.2,0.2,0.3,0.3,0.5,0.3c0.5,0,0.7-0.4,0.7-1.3v-3.3
		c-0.2,0.1-0.3,0.1-0.5,0.1c-0.4,0-0.7-0.1-1-0.4c-0.3-0.3-0.4-0.6-0.4-1c0-0.4,0.1-0.7,0.4-1c0.3-0.3,0.6-0.4,1-0.4
		c0.6,0,1,0.2,1.4,0.5c0.3,0.4,0.5,0.8,0.5,1.4V299.2z M94.8,295.1c0.1,0,0.3-0.1,0.4-0.2c0.1-0.1,0.2-0.2,0.2-0.4
		c0-0.2-0.1-0.3-0.2-0.4c-0.1-0.1-0.2-0.2-0.4-0.2c-0.2,0-0.3,0.1-0.4,0.2c-0.1,0.1-0.2,0.2-0.2,0.4c0,0.1,0.1,0.3,0.2,0.4
		C94.5,295.1,94.6,295.1,94.8,295.1"/>
	<path class="st5" d="M96.2,292.7h-6c0.2-0.6,0.4-1,0.5-1.2c0.2-0.2,0.4-0.5,0.7-0.7c0.3-0.2,0.6-0.4,0.9-0.5
		c0.3-0.1,0.6-0.2,0.9-0.2c0.6,0,1.2,0.2,1.7,0.6c0.5,0.4,0.9,0.9,1.1,1.5L96.2,292.7z M95,291.9c-0.1-0.3-0.3-0.5-0.7-0.6
		c-0.3-0.2-0.7-0.2-1.1-0.2c-0.4,0-0.8,0.1-1.1,0.2c-0.3,0.2-0.6,0.4-0.7,0.6H95z"/>
	<path class="st2" d="M296,256h21.6l1.2-12.6h-5.6c-1.4-9-2.1-18.4-2.9-29l-7.2,0c-0.8,10.6-1.5,20-2.8,29h-5.6L296,256z"/>
	<polygon class="st2" points="311.4,214 311.4,209.7 310.4,209.7 310.4,209 303.1,209 303.1,209.8 302.1,209.8 302.1,214 	"/>
	<rect x="302.2" y="198.5" class="st2" width="9.3" height="9.9"/>
	<polygon class="st2" points="308.9,188.1 308.3,188.1 308.3,178.7 307.3,178.7 307.2,165 306.3,165 306.3,178.7 305.2,178.7 
		305.2,188.1 304.6,188.1 304.6,197.5 308.9,197.5 	"/>
	<path class="st2" d="M315.7,260.2v-2.7h-17.8v2.6h0c-3.3,14.6-7.7,27.3-19.1,45h9.6c3.2-5.7,7-12.4,14-14.3
		c1.3-0.3,2.8-0.6,4.4-0.6c1.6,0,3.1,0.2,4.4,0.6c7,1.9,10.7,8.4,13.9,14.3l9.8,0C323.5,287.5,319,274.7,315.7,260.2"/>
</g>
</svg>
