<?xml version="1.0" encoding="utf-8"?>
<!-- Generator: Adobe Illustrator 21.1.0, SVG Export Plug-In . SVG Version: 6.00 Build 0)  -->
<svg version="1.1" id="レイヤー_1" xmlns="http://www.w3.org/2000/svg" xmlns:xlink="http://www.w3.org/1999/xlink" x="0px"
	 y="0px" viewBox="0 0 611.3 529.3" style="enable-background:new 0 0 611.3 529.3;" xml:space="preserve">
<style type="text/css">
	.st0{clip-path:url(#SVGID_2_);fill:none;stroke:#848484;stroke-width:2;stroke-miterlimit:10;}
	.st1{clip-path:url(#SVGID_2_);fill:none;stroke:#848484;stroke-width:3;stroke-miterlimit:10;stroke-dasharray:19.891,7.956;}
	.st2{clip-path:url(#SVGID_2_);fill:#848484;}
	.st3{clip-path:url(#SVGID_2_);fill:#FFFFFF;}
	.st4{clip-path:url(#SVGID_2_);fill:none;stroke:#848484;stroke-miterlimit:10;}
	.st5{fill:#727171;}
	.st6{fill:none;stroke:#727171;stroke-width:0.5;stroke-miterlimit:10;}
	.st7{clip-path:url(#SVGID_4_);fill:#727171;}
	.st8{clip-path:url(#SVGID_4_);fill:none;stroke:#727171;stroke-width:0.5;stroke-miterlimit:10;}
	.st9{clip-path:url(#SVGID_4_);fill:#848484;}
</style>
<g>
	<defs>
		<rect id="SVGID_1_" width="611.3" height="529.3"/>
	</defs>
	<clipPath id="SVGID_2_">
		<use xlink:href="#SVGID_1_"  style="overflow:visible;"/>
	</clipPath>
	<path class="st0" d="M466.2,529.3V195.7c0-15.7,9.7-43.6,12.4-51C487.9,119.8,514.5,38.6,527,0"/>
	<path class="st0" d="M409,195.7c0-15.7,9.7-43.6,12.4-51c9.3-24.9,35.9-106.1,48.4-144.7"/>
	<path class="st0" d="M139.7,140.7v-29.5c0-15.7,9.7-43.6,12.4-51c4.3-11.4,12.2-34.7,20.7-60.3"/>
	<path class="st0" d="M530.2,529.3V195.7c0-15.7,9.7-43.6,12.4-51c6.3-16.7,20.3-59,32.7-96.6"/>
	<line class="st1" x1="581.7" y1="525.8" x2="581.7" y2="0.7"/>
	<line class="st0" x1="586.7" y1="402.2" x2="611.9" y2="402.2"/>
	<line class="st0" x1="0" y1="402.2" x2="576.7" y2="402.2"/>
	<line class="st0" x1="586.7" y1="264.7" x2="611.9" y2="264.7"/>
	<line class="st0" x1="322" y1="264.7" x2="576.7" y2="264.7"/>
	<line class="st0" x1="0" y1="264.7" x2="291.8" y2="264.7"/>
	<line class="st0" x1="586.7" y1="127.2" x2="611.9" y2="127.2"/>
	<line class="st0" x1="249.2" y1="127.2" x2="576.7" y2="127.2"/>
	<line class="st0" x1="0" y1="43.2" x2="158.3" y2="43.2"/>
	<path class="st0" d="M306.8,394.2l69.4-129.6l-1-30.1c0,0,1.2-38.9,37.8-38.9h53.2"/>
	<path class="st0" d="M238.8,227.8l0.6-58.1c0-15.7,9.7-43.6,12.4-51c7.6-20.1,26.4-77.3,39.9-118.7"/>
	<polyline class="st0" points="306.8,394.2 238.4,264.7 238.6,246.3 	"/>
	<path class="st0" d="M0,349.1C29.3,299.9,101,154,118.3,134.2c7.7-8.8,21.4-7.6,21.4,9.4c0,6.2,0,121,0,121l-1,183.7
		c0,0-1.2,38.9-37.8,38.9H0"/>
	<line class="st0" x1="306.8" y1="394.2" x2="306.8" y2="529.3"/>
	<path class="st2" d="M300,438.3c0,4.7-3.8,8.5-8.5,8.5h-20.8c-4.7,0-8.5-3.8-8.5-8.5v-20.8c0-4.7,3.8-8.5,8.5-8.5h20.8
		c4.7,0,8.5,3.8,8.5,8.5V438.3z"/>
	<path class="st3" d="M281.1,436.5c-4.6,0-8.4-3.8-8.4-8.4s3.8-8.4,8.4-8.4c4.6,0,8.4,3.8,8.4,8.4
		C289.5,432.7,285.7,436.5,281.1,436.5 M273.2,428.1c0,4.3,3.5,7.8,7.8,7.8c4.3,0,7.8-3.5,7.8-7.8c0-4.3-3.5-7.8-7.8-7.8
		C276.7,420.2,273.2,423.8,273.2,428.1 M280.5,424.9L280.5,424.9l-1.7,0.8l-0.3-1.3l2.1-1h1.5v9.3h-1.7V424.9z"/>
	<path class="st2" d="M238.1,138.4c0,4.7-3.8,8.5-8.5,8.5h-20.8c-4.7,0-8.5-3.8-8.5-8.5v-20.8c0-4.7,3.8-8.5,8.5-8.5h20.8
		c4.7,0,8.5,3.8,8.5,8.5V138.4z"/>
	<path class="st3" d="M219.2,136.6c-4.6,0-8.4-3.8-8.4-8.4c0-4.6,3.8-8.4,8.4-8.4c4.6,0,8.4,3.8,8.4,8.4
		C227.6,132.9,223.8,136.6,219.2,136.6 M211.4,128.2c0,4.3,3.5,7.8,7.8,7.8c4.3,0,7.8-3.5,7.8-7.8c0-4.3-3.5-7.8-7.8-7.8
		C214.8,120.4,211.4,123.9,211.4,128.2 M216,132.8v-1.1l1.1-1c2.5-2.3,3.4-3.2,3.4-4.3c0-0.8-0.4-1.6-1.8-1.6
		c-0.8,0-1.6,0.4-2.1,0.8l-0.5-1.2c0.7-0.6,1.8-1,2.9-1c2.3,0,3.2,1.5,3.2,2.8c0,1.7-1.2,2.8-3.2,4.5l-0.8,0.6v0h4.2v1.4H216z"/>
	<path class="st2" d="M503.1,138.4c0,4.7-3.8,8.5-8.5,8.5h-20.8c-4.7,0-8.5-3.8-8.5-8.5v-20.8c0-4.7,3.8-8.5,8.5-8.5h20.8
		c4.7,0,8.5,3.8,8.5,8.5V138.4z"/>
	<path class="st3" d="M484.2,136.6c-4.6,0-8.4-3.8-8.4-8.4c0-4.6,3.8-8.4,8.4-8.4c4.6,0,8.4,3.8,8.4,8.4
		C492.6,132.9,488.8,136.6,484.2,136.6 M476.4,128.2c0,4.3,3.5,7.8,7.8,7.8c4.3,0,7.8-3.5,7.8-7.8c0-4.3-3.5-7.8-7.8-7.8
		C479.8,120.4,476.4,123.9,476.4,128.2 M481.4,131c0.4,0.3,1.3,0.6,2.2,0.6c1.5,0,2-0.9,2-1.4c0-1.2-1.2-1.6-2.3-1.6h-0.8v-1.3h0.8
		c0.9,0,2-0.3,2-1.3c0-0.6-0.4-1.2-1.6-1.2c-0.8,0-1.5,0.3-2,0.6l-0.4-1.3c0.5-0.4,1.6-0.7,2.7-0.7c2.1,0,3,1.1,3,2.2
		c0,1-0.6,1.7-1.7,2.1v0c1.2,0.3,2.1,1.1,2.1,2.3c0,1.5-1.3,2.8-3.7,2.8c-1.2,0-2.2-0.3-2.6-0.6L481.4,131z"/>
	<path class="st2" d="M549.1,275.1c0,4.7-3.8,8.5-8.5,8.5h-20.8c-4.7,0-8.5-3.8-8.5-8.5v-20.8c0-4.7,3.8-8.5,8.5-8.5h20.8
		c4.7,0,8.5,3.8,8.5,8.5V275.1z"/>
	<path class="st3" d="M530.2,273.3c-4.6,0-8.4-3.8-8.4-8.4c0-4.6,3.8-8.4,8.4-8.4s8.4,3.8,8.4,8.4
		C538.6,269.6,534.8,273.3,530.2,273.3 M522.4,264.9c0,4.3,3.5,7.8,7.8,7.8s7.8-3.5,7.8-7.8c0-4.3-3.5-7.8-7.8-7.8
		C525.9,257.1,522.4,260.6,522.4,264.9 M530.7,269.6v-2.3h-4.5v-1.1l4.2-5.9h1.9v5.7h1.2v1.3h-1.2v2.3H530.7z M530.7,266v-2.8
		c0-0.4,0-1,0-1.5h0c-0.3,0.5-0.5,1-0.8,1.4l-2.2,2.8v0H530.7z"/>
	<path class="st2" d="M601.3,330.9c0,4.7-3.8,8.5-8.5,8.5h-20.8c-4.7,0-8.5-3.8-8.5-8.5v-20.8c0-4.7,3.8-8.5,8.5-8.5h20.8
		c4.7,0,8.5,3.8,8.5,8.5V330.9z"/>
	<path class="st3" d="M582.4,329.1c-4.6,0-8.4-3.8-8.4-8.4c0-4.6,3.8-8.4,8.4-8.4c4.6,0,8.4,3.8,8.4,8.4
		C590.9,325.3,587.1,329.1,582.4,329.1 M574.6,320.6c0,4.3,3.5,7.8,7.8,7.8c4.3,0,7.8-3.5,7.8-7.8c0-4.3-3.5-7.8-7.8-7.8
		C578.1,312.8,574.6,316.4,574.6,320.6 M585.3,317.5h-3.7l-0.3,1.8c0.2,0,0.5-0.1,0.8-0.1c1.9,0,3.5,1,3.5,2.9
		c0,1.7-1.5,3.2-3.8,3.2c-1.1,0-2.1-0.3-2.5-0.6l0.4-1.3c0.4,0.2,1.2,0.5,2.1,0.5c1.1,0,2.1-0.7,2.1-1.6c0-1.1-0.8-1.8-2.6-1.8
		c-0.5,0-1,0.1-1.4,0.1l0.6-4.6h4.9V317.5z"/>
	<line class="st4" x1="256.7" y1="249.1" x2="267.3" y2="264.7"/>
</g>
<path class="st5" d="M349.2,510h-1.3v-1.1h-8.7v1.1h-1.3v-12.7h11.4V510z M342.9,498.6h-3.6v3.8h3.6V498.6z M342.9,503.6h-3.6v4h3.6
	V503.6z M347.9,498.6h-3.6v3.8h3.6V498.6z M347.9,503.6h-3.6v4h3.6V503.6z"/>
<path class="st6" d="M349.2,510h-1.3v-1.1h-8.7v1.1h-1.3v-12.7h11.4V510z M342.9,498.6h-3.6v3.8h3.6V498.6z M342.9,503.6h-3.6v4h3.6
	V503.6z M347.9,498.6h-3.6v3.8h3.6V498.6z M347.9,503.6h-3.6v4h3.6V503.6z"/>
<g>
	<defs>
		<rect id="SVGID_3_" width="611.3" height="529.3"/>
	</defs>
	<clipPath id="SVGID_4_">
		<use xlink:href="#SVGID_3_"  style="overflow:visible;"/>
	</clipPath>
	<path class="st7" d="M357.9,508.8h-1.3V508h-3v1h-1.2v-11.6h5.5V508.8z M354.5,498.7h-0.9v3.2h0.9V498.7z M354.5,503.2h-0.9v3.5
		h0.9V503.2z M356.6,498.7h-0.9v3.2h0.9V498.7z M356.6,503.2h-0.9v3.5h0.9V503.2z M365.1,498.6h-2.4v10c0,0.3-0.1,0.6-0.3,0.8
		c-0.2,0.2-0.4,0.4-0.7,0.5c-0.2,0.1-0.7,0.1-1.3,0.1c-0.4,0-0.6,0-0.9,0l-0.4-1.3c1.1,0,1.8,0,2-0.1c0.2-0.1,0.3-0.2,0.3-0.5v-9.5
		h-3v-1.3h6.7V498.6z"/>
	<path class="st8" d="M357.9,508.8h-1.3V508h-3v1h-1.2v-11.6h5.5V508.8z M354.5,498.7h-0.9v3.2h0.9V498.7z M354.5,503.2h-0.9v3.5
		h0.9V503.2z M356.6,498.7h-0.9v3.2h0.9V498.7z M356.6,503.2h-0.9v3.5h0.9V503.2z M365.1,498.6h-2.4v10c0,0.3-0.1,0.6-0.3,0.8
		c-0.2,0.2-0.4,0.4-0.7,0.5c-0.2,0.1-0.7,0.1-1.3,0.1c-0.4,0-0.6,0-0.9,0l-0.4-1.3c1.1,0,1.8,0,2-0.1c0.2-0.1,0.3-0.2,0.3-0.5v-9.5
		h-3v-1.3h6.7V498.6z"/>
	<path class="st7" d="M374.8,503.5c0,0.3-0.1,0.6-0.3,0.8c-0.2,0.3-0.5,0.4-0.9,0.4c-0.4,0-0.7-0.1-0.9-0.4
		c-0.2-0.3-0.3-0.6-0.3-0.9c0-0.3,0.1-0.6,0.3-0.9c0.2-0.2,0.5-0.4,0.9-0.4s0.7,0.1,0.9,0.4C374.6,502.9,374.8,503.2,374.8,503.5"/>
	<path class="st8" d="M374.8,503.5c0,0.3-0.1,0.6-0.3,0.8c-0.2,0.3-0.5,0.4-0.9,0.4c-0.4,0-0.7-0.1-0.9-0.4
		c-0.2-0.3-0.3-0.6-0.3-0.9c0-0.3,0.1-0.6,0.3-0.9c0.2-0.2,0.5-0.4,0.9-0.4s0.7,0.1,0.9,0.4C374.6,502.9,374.8,503.2,374.8,503.5z"
		/>
	<path class="st7" d="M387.9,509.9h-1.3v-0.8h-2.8v0.8h-1.3v-6.7h5.4V509.9z M386.6,504.4h-2.8v3.5h2.8V504.4z M393.2,501.9h-9.2
		v-4.7h9.2V501.9z M391.8,498.4h-6.5v2.3h6.5V498.4z M394.6,509.9h-1.3v-0.8h-2.8v0.8h-1.3v-6.7h5.4V509.9z M393.3,504.4h-2.8v3.5
		h2.8V504.4z"/>
	<path class="st8" d="M387.9,509.9h-1.3v-0.8h-2.8v0.8h-1.3v-6.7h5.4V509.9z M386.6,504.4h-2.8v3.5h2.8V504.4z M393.2,501.9h-9.2
		v-4.7h9.2V501.9z M391.8,498.4h-6.5v2.3h6.5V498.4z M394.6,509.9h-1.3v-0.8h-2.8v0.8h-1.3v-6.7h5.4V509.9z M393.3,504.4h-2.8v3.5
		h2.8V504.4z"/>
	<path class="st7" d="M399.9,503c0,1.9-0.2,3.3-0.5,4.4c-0.3,1.1-0.8,2-1.4,2.8l-1.1-0.9c0.6-0.9,1-1.7,1.3-2.6
		c0.2-0.9,0.4-2.2,0.4-4.1v-5.8h1.4V503z M404.4,509H403v-11.4h1.4V509z M409.2,510h-1.4v-13.1h1.4V510z"/>
	<path class="st8" d="M399.9,503c0,1.9-0.2,3.3-0.5,4.4c-0.3,1.1-0.8,2-1.4,2.8l-1.1-0.9c0.6-0.9,1-1.7,1.3-2.6
		c0.2-0.9,0.4-2.2,0.4-4.1v-5.8h1.4V503z M404.4,509H403v-11.4h1.4V509z M409.2,510h-1.4v-13.1h1.4V510z"/>
	<path class="st7" d="M425,500.3h-7.8c0,0.9-0.1,1.6-0.2,2.2h6.5c-0.1,1.8-0.2,3.3-0.3,4.4c-0.1,1.2-0.3,1.9-0.4,2.1
		c-0.2,0.3-0.4,0.5-0.7,0.6c-0.3,0.2-0.9,0.2-1.7,0.2c-0.5,0-1.1,0-1.7-0.1l-0.4-1.3c0.8,0.1,1.4,0.1,2,0.1c0.6,0,1-0.1,1.1-0.2
		c0.1-0.1,0.3-0.5,0.4-1.3c0.1-0.7,0.2-1.9,0.3-3.5h-5.1c-0.3,2.5-1.7,4.6-4.3,6.3l-0.8-1.1c0.8-0.5,1.6-1.1,2.3-1.9
		c0.7-0.8,1.1-1.6,1.3-2.6c0.2-1,0.3-2.3,0.4-4.1H412V499h5.9c-0.3-0.6-0.7-1.2-1.1-1.8l1.4-0.4c0.5,0.9,0.9,1.6,1.2,2.2h5.6V500.3z
		"/>
	<path class="st8" d="M425,500.3h-7.8c0,0.9-0.1,1.6-0.2,2.2h6.5c-0.1,1.8-0.2,3.3-0.3,4.4c-0.1,1.2-0.3,1.9-0.4,2.1
		c-0.2,0.3-0.4,0.5-0.7,0.6c-0.3,0.2-0.9,0.2-1.7,0.2c-0.5,0-1.1,0-1.7-0.1l-0.4-1.3c0.8,0.1,1.4,0.1,2,0.1c0.6,0,1-0.1,1.1-0.2
		c0.1-0.1,0.3-0.5,0.4-1.3c0.1-0.7,0.2-1.9,0.3-3.5h-5.1c-0.3,2.5-1.7,4.6-4.3,6.3l-0.8-1.1c0.8-0.5,1.6-1.1,2.3-1.9
		c0.7-0.8,1.1-1.6,1.3-2.6c0.2-1,0.3-2.3,0.4-4.1H412V499h5.9c-0.3-0.6-0.7-1.2-1.1-1.8l1.4-0.4c0.5,0.9,0.9,1.6,1.2,2.2h5.6V500.3z
		"/>
	<path class="st7" d="M439.5,508.7c0,0.3-0.1,0.6-0.3,0.8c-0.2,0.2-0.5,0.3-0.8,0.3l-2.4,0l-0.5-1.3c0.7,0,1.5,0,2.3,0
		c0.3,0,0.5-0.1,0.5-0.4V500h-9.2v10h-1.3v-11.2h2.9c0.5-0.7,0.9-1.4,1.2-2l1.4,0.3c-0.3,0.6-0.6,1.2-1,1.7h7.4V508.7z M436.6,507.2
		h-6v-5.5h6V507.2z M435.2,503h-3.3v3h3.3V503z"/>
	<path class="st8" d="M439.5,508.7c0,0.3-0.1,0.6-0.3,0.8c-0.2,0.2-0.5,0.3-0.8,0.3l-2.4,0l-0.5-1.3c0.7,0,1.5,0,2.3,0
		c0.3,0,0.5-0.1,0.5-0.4V500h-9.2v10h-1.3v-11.2h2.9c0.5-0.7,0.9-1.4,1.2-2l1.4,0.3c-0.3,0.6-0.6,1.2-1,1.7h7.4V508.7z M436.6,507.2
		h-6v-5.5h6V507.2z M435.2,503h-3.3v3h3.3V503z"/>
	<path class="st7" d="M341.5,23.2c-0.3,1.2-0.6,2.2-0.9,2.8l-1.3-0.4c0.2-0.3,0.3-0.7,0.5-1.2h-4.8v1.1l3.7-0.4l0.1,1.2l-3.8,0.4V27
		c0,0.1,0,0.2,0.1,0.2c0.1,0.1,0.2,0.1,0.2,0.1h4.7v1.2h-5.3c-0.3,0-0.6-0.1-0.8-0.3c-0.2-0.2-0.3-0.5-0.3-0.8v-0.6l-2.1,0.2
		l-0.2-1.2l2.2-0.2v-1.2h-2.9v3.5c0,2.3-0.4,4.2-1.2,5.8l-1.1-0.9c0.3-0.6,0.5-1.3,0.7-2.1c0.2-0.8,0.3-2,0.3-3.7v-3.8h4.6v-2.8h1.4
		v0.7h5.1v1.2h-5.1v0.8H341.5z M334.7,29.2c0.1,1.1-0.2,2-0.7,2.8c-0.6,0.8-1.4,1.3-2.5,1.6l-0.9-1.2c1.9-0.4,2.8-1.4,2.7-3.2H334.7
		z M341.6,30.7c0,0.9-0.1,1.5-0.3,1.8c-0.1,0.3-0.3,0.5-0.6,0.7c-0.3,0.1-0.9,0.2-1.9,0.2c-0.9,0-1.5-0.1-1.7-0.4
		c-0.2-0.3-0.3-0.6-0.3-0.9v-3h1.4v2.7c0,0.1,0,0.2,0.1,0.3c0.1,0.1,0.3,0.1,0.7,0.1c0.5,0,0.8,0,1-0.1c0.1-0.1,0.2-0.3,0.3-0.8
		c0-0.4,0-0.8,0-1.1L341.6,30.7z"/>
	<path class="st8" d="M341.5,23.2c-0.3,1.2-0.6,2.2-0.9,2.8l-1.3-0.4c0.2-0.3,0.3-0.7,0.5-1.2h-4.8v1.1l3.7-0.4l0.1,1.2l-3.8,0.4V27
		c0,0.1,0,0.2,0.1,0.2c0.1,0.1,0.2,0.1,0.2,0.1h4.7v1.2h-5.3c-0.3,0-0.6-0.1-0.8-0.3c-0.2-0.2-0.3-0.5-0.3-0.8v-0.6l-2.1,0.2
		l-0.2-1.2l2.2-0.2v-1.2h-2.9v3.5c0,2.3-0.4,4.2-1.2,5.8l-1.1-0.9c0.3-0.6,0.5-1.3,0.7-2.1c0.2-0.8,0.3-2,0.3-3.7v-3.8h4.6v-2.8h1.4
		v0.7h5.1v1.2h-5.1v0.8H341.5z M334.7,29.2c0.1,1.1-0.2,2-0.7,2.8c-0.6,0.8-1.4,1.3-2.5,1.6l-0.9-1.2c1.9-0.4,2.8-1.4,2.7-3.2H334.7
		z M341.6,30.7c0,0.9-0.1,1.5-0.3,1.8c-0.1,0.3-0.3,0.5-0.6,0.7c-0.3,0.1-0.9,0.2-1.9,0.2c-0.9,0-1.5-0.1-1.7-0.4
		c-0.2-0.3-0.3-0.6-0.3-0.9v-3h1.4v2.7c0,0.1,0,0.2,0.1,0.3c0.1,0.1,0.3,0.1,0.7,0.1c0.5,0,0.8,0,1-0.1c0.1-0.1,0.2-0.3,0.3-0.8
		c0-0.4,0-0.8,0-1.1L341.6,30.7z"/>
	<path class="st7" d="M356.8,32l-0.5,1.4l-3.8,0c-1.6,0-2.7-0.1-3.4-0.4c-0.7-0.3-1.3-0.6-1.7-1.1c-1.1,0.7-2.2,1.2-3.1,1.7
		l-0.8-1.1c3-1.5,5.3-2.9,7-4.3c1.7-1.3,3-2.8,3.9-4.4h-10.2v-1.3h5.4c-0.2-0.6-0.5-1.1-0.9-1.7l1.3-0.5c0.5,0.8,0.9,1.5,1.1,2.2
		h4.8v1.3c-1.4,2.7-3.9,5.2-7.5,7.4c0.3,0.3,0.7,0.5,1.3,0.6c0.6,0.2,1.3,0.2,1.9,0.2h1.5C354.7,32.1,355.9,32.1,356.8,32"/>
	<path class="st8" d="M356.8,32l-0.5,1.4l-3.8,0c-1.6,0-2.7-0.1-3.4-0.4c-0.7-0.3-1.3-0.6-1.7-1.1c-1.1,0.7-2.2,1.2-3.1,1.7
		l-0.8-1.1c3-1.5,5.3-2.9,7-4.3c1.7-1.3,3-2.8,3.9-4.4h-10.2v-1.3h5.4c-0.2-0.6-0.5-1.1-0.9-1.7l1.3-0.5c0.5,0.8,0.9,1.5,1.1,2.2
		h4.8v1.3c-1.4,2.7-3.9,5.2-7.5,7.4c0.3,0.3,0.7,0.5,1.3,0.6c0.6,0.2,1.3,0.2,1.9,0.2h1.5C354.7,32.1,355.9,32.1,356.8,32z"/>
	<path class="st7" d="M362.1,22.4l-1.1,0.9c-0.5-0.7-1.2-1.4-2.2-2.2l1.1-0.9C360.9,21,361.6,21.7,362.1,22.4 M360.2,33.5h-1.3v-10
		h1.3V33.5z M371.1,32c0,0.5-0.1,0.9-0.4,1.2c-0.2,0.2-0.6,0.3-1,0.3c-0.4,0-1,0-1.8,0l-0.4-1.3c0.5,0,0.9,0,1.3,0
		c0.5,0,0.8,0,0.8-0.1c0.1,0,0.1-0.1,0.1-0.3v-9.7h-7.2v-1.3h8.5V32z"/>
	<path class="st8" d="M362.1,22.4l-1.1,0.9c-0.5-0.7-1.2-1.4-2.2-2.2l1.1-0.9C360.9,21,361.6,21.7,362.1,22.4z M360.2,33.5h-1.3v-10
		h1.3V33.5z M371.1,32c0,0.5-0.1,0.9-0.4,1.2c-0.2,0.2-0.6,0.3-1,0.3c-0.4,0-1,0-1.8,0l-0.4-1.3c0.5,0,0.9,0,1.3,0
		c0.5,0,0.8,0,0.8-0.1c0.1,0,0.1-0.1,0.1-0.3v-9.7h-7.2v-1.3h8.5V32z"/>
	<path class="st7" d="M386.6,23.8h-7.8c0,0.9-0.1,1.6-0.2,2.2h6.5c-0.1,1.8-0.2,3.3-0.3,4.4c-0.1,1.2-0.3,1.9-0.4,2.2
		c-0.2,0.3-0.4,0.5-0.7,0.6c-0.3,0.2-0.9,0.2-1.7,0.2c-0.5,0-1.1,0-1.7-0.1l-0.4-1.3c0.8,0.1,1.4,0.1,2,0.1c0.6,0,1-0.1,1.1-0.2
		c0.1-0.1,0.3-0.5,0.4-1.3c0.1-0.7,0.2-1.9,0.3-3.5h-5.1c-0.3,2.5-1.7,4.6-4.3,6.3l-0.8-1.1c0.8-0.5,1.6-1.1,2.3-1.9
		c0.7-0.8,1.1-1.6,1.3-2.6c0.2-1,0.3-2.3,0.4-4.1h-3.8v-1.3h5.9c-0.3-0.6-0.7-1.2-1.1-1.8l1.4-0.4c0.5,0.9,0.9,1.6,1.2,2.2h5.6V23.8
		z"/>
	<path class="st8" d="M386.6,23.8h-7.8c0,0.9-0.1,1.6-0.2,2.2h6.5c-0.1,1.8-0.2,3.3-0.3,4.4c-0.1,1.2-0.3,1.9-0.4,2.2
		c-0.2,0.3-0.4,0.5-0.7,0.6c-0.3,0.2-0.9,0.2-1.7,0.2c-0.5,0-1.1,0-1.7-0.1l-0.4-1.3c0.8,0.1,1.4,0.1,2,0.1c0.6,0,1-0.1,1.1-0.2
		c0.1-0.1,0.3-0.5,0.4-1.3c0.1-0.7,0.2-1.9,0.3-3.5h-5.1c-0.3,2.5-1.7,4.6-4.3,6.3l-0.8-1.1c0.8-0.5,1.6-1.1,2.3-1.9
		c0.7-0.8,1.1-1.6,1.3-2.6c0.2-1,0.3-2.3,0.4-4.1h-3.8v-1.3h5.9c-0.3-0.6-0.7-1.2-1.1-1.8l1.4-0.4c0.5,0.9,0.9,1.6,1.2,2.2h5.6V23.8
		z"/>
	<path class="st7" d="M401,32.2c0,0.3-0.1,0.6-0.3,0.8c-0.2,0.2-0.5,0.3-0.8,0.3l-2.4,0l-0.5-1.3c0.7,0,1.5,0,2.3,0
		c0.3,0,0.5-0.1,0.5-0.4v-8.2h-9.2v10h-1.3V22.2h2.9c0.5-0.7,0.9-1.4,1.2-2l1.4,0.3c-0.3,0.6-0.6,1.2-1,1.7h7.4V32.2z M398.1,30.7
		h-6v-5.5h6V30.7z M396.7,26.5h-3.3v3h3.3V26.5z"/>
	<path class="st8" d="M401,32.2c0,0.3-0.1,0.6-0.3,0.8c-0.2,0.2-0.5,0.3-0.8,0.3l-2.4,0l-0.5-1.3c0.7,0,1.5,0,2.3,0
		c0.3,0,0.5-0.1,0.5-0.4v-8.2h-9.2v10h-1.3V22.2h2.9c0.5-0.7,0.9-1.4,1.2-2l1.4,0.3c-0.3,0.6-0.6,1.2-1,1.7h7.4V32.2z M398.1,30.7
		h-6v-5.5h6V30.7z M396.7,26.5h-3.3v3h3.3V26.5z"/>
	<path class="st7" d="M401.3,299.5c-1.3,0.7-2.8,1.4-4.3,1.9l-0.3-1.3c0.4-0.1,0.9-0.3,1.5-0.6v-5.2h-1.3v-1.3h1.3v-3.8h1.3v3.8h1.2
		v1.3h-1.2v4.6c0.4-0.1,0.9-0.4,1.6-0.8L401.3,299.5z M409.5,295.9h-8.2v-4.8h8.2V295.9z M408.9,302.3h-1.3v-0.5h-4.2v0.5h-1.3v-5.6
		h6.9V302.3z M404.7,290.3l-1,0.6c-0.4-0.5-0.9-0.9-1.4-1.3l1.1-0.6C403.9,289.4,404.3,289.9,404.7,290.3 M404.8,292.3h-2.2v2.5h2.2
		V292.3z M404.4,294.1l-0.9,0.4c-0.1-0.6-0.3-1.1-0.5-1.5l0.9-0.4C404,293,404.2,293.5,404.4,294.1 M407.6,297.9h-4.2v0.8h4.2V297.9
		z M407.6,299.8h-4.2v0.9h4.2V299.8z M408.3,292.3h-2.2v2.5h2.2V292.3z M408.7,289.8c-0.5,0.5-1,0.8-1.6,1.1l-1-0.7
		c0.5-0.3,1-0.7,1.5-1.1L408.7,289.8z M408,292.9c-0.1,0.5-0.4,1.1-0.7,1.6l-0.9-0.4c0.3-0.4,0.5-0.9,0.7-1.5L408,292.9z"/>
	<path class="st8" d="M401.3,299.5c-1.3,0.7-2.8,1.4-4.3,1.9l-0.3-1.3c0.4-0.1,0.9-0.3,1.5-0.6v-5.2h-1.3v-1.3h1.3v-3.8h1.3v3.8h1.2
		v1.3h-1.2v4.6c0.4-0.1,0.9-0.4,1.6-0.8L401.3,299.5z M409.5,295.9h-8.2v-4.8h8.2V295.9z M408.9,302.3h-1.3v-0.5h-4.2v0.5h-1.3v-5.6
		h6.9V302.3z M404.7,290.3l-1,0.6c-0.4-0.5-0.9-0.9-1.4-1.3l1.1-0.6C403.9,289.4,404.3,289.9,404.7,290.3z M404.8,292.3h-2.2v2.5
		h2.2V292.3z M404.4,294.1l-0.9,0.4c-0.1-0.6-0.3-1.1-0.5-1.5l0.9-0.4C404,293,404.2,293.5,404.4,294.1z M407.6,297.9h-4.2v0.8h4.2
		V297.9z M407.6,299.8h-4.2v0.9h4.2V299.8z M408.3,292.3h-2.2v2.5h2.2V292.3z M408.7,289.8c-0.5,0.5-1,0.8-1.6,1.1l-1-0.7
		c0.5-0.3,1-0.7,1.5-1.1L408.7,289.8z M408,292.9c-0.1,0.5-0.4,1.1-0.7,1.6l-0.9-0.4c0.3-0.4,0.5-0.9,0.7-1.5L408,292.9z"/>
	<polygon class="st7" points="424.9,302 411.8,302 411.8,300.6 417.2,300.6 417.2,289.2 418.6,289.2 418.6,293.7 424.2,293.7 
		424.2,295.1 418.6,295.1 418.6,300.6 424.9,300.6 	"/>
	<polygon class="st8" points="424.9,302 411.8,302 411.8,300.6 417.2,300.6 417.2,289.2 418.6,289.2 418.6,293.7 424.2,293.7 
		424.2,295.1 418.6,295.1 418.6,300.6 424.9,300.6 	"/>
	<path class="st7" d="M439.8,297.6h-2.4v3.5c0,0.3-0.1,0.5-0.3,0.7c-0.2,0.2-0.5,0.4-0.7,0.4c-0.3,0-0.7,0.1-1.5,0.1
		c-0.4,0-0.8,0-1.1,0l-0.3-1.3c0.2,0,0.9,0,2.2,0c0.2,0,0.3-0.1,0.3-0.3v-3.2h-9.3v-1.3h9.3v-1h1.4v1h2.4V297.6z M439.5,292H434v1.6
		h4.8v1.3h-11v-1.3h4.8V292h-5.5v-1.3h5.5v-1.5h1.4v1.5h5.5V292z M432.9,300.3l-1,0.9c-0.8-0.9-1.8-1.7-2.9-2.5l1-1
		C430.9,298.4,431.9,299.3,432.9,300.3"/>
	<path class="st8" d="M439.8,297.6h-2.4v3.5c0,0.3-0.1,0.5-0.3,0.7c-0.2,0.2-0.5,0.4-0.7,0.4c-0.3,0-0.7,0.1-1.5,0.1
		c-0.4,0-0.8,0-1.1,0l-0.3-1.3c0.2,0,0.9,0,2.2,0c0.2,0,0.3-0.1,0.3-0.3v-3.2h-9.3v-1.3h9.3v-1h1.4v1h2.4V297.6z M439.5,292H434v1.6
		h4.8v1.3h-11v-1.3h4.8V292h-5.5v-1.3h5.5v-1.5h1.4v1.5h5.5V292z M432.9,300.3l-1,0.9c-0.8-0.9-1.8-1.7-2.9-2.5l1-1
		C430.9,298.4,431.9,299.3,432.9,300.3z"/>
	<path class="st7" d="M186.5,240.5c-1.4,1.7-2.6,2.9-3.7,3.7l-1-0.9c1.2-0.9,2.5-2.1,3.7-3.6L186.5,240.5z M194.8,234.4h-7.7
		c-0.9,1.4-1.7,2.6-2.5,3.5h3.6v-2.7h1.3v2.7h4.8v1.3h-4.8v4.2c0,0.3-0.1,0.6-0.2,0.8c-0.2,0.2-0.3,0.3-0.5,0.4
		c-0.2,0.1-0.6,0.1-1.3,0.1c-0.3,0-0.6,0-0.9,0l-0.4-1.2c0.3,0,0.9,0,1.7,0c0.3,0,0.4-0.1,0.4-0.4v-3.8h-5.4v-1.3
		c1-1,1.9-2.2,2.8-3.5H182v-1.3h4.3c0.3-0.4,0.5-1,0.8-1.6l1.3,0.4c-0.2,0.5-0.5,0.9-0.6,1.2h7V234.4z M195,243.4l-1.1,0.8
		c-0.7-1.1-1.8-2.3-3.2-3.7l1-0.8C193.2,241,194.2,242.2,195,243.4"/>
	<path class="st8" d="M186.5,240.5c-1.4,1.7-2.6,2.9-3.7,3.7l-1-0.9c1.2-0.9,2.5-2.1,3.7-3.6L186.5,240.5z M194.8,234.4h-7.7
		c-0.9,1.4-1.7,2.6-2.5,3.5h3.6v-2.7h1.3v2.7h4.8v1.3h-4.8v4.2c0,0.3-0.1,0.6-0.2,0.8c-0.2,0.2-0.3,0.3-0.5,0.4
		c-0.2,0.1-0.6,0.1-1.3,0.1c-0.3,0-0.6,0-0.9,0l-0.4-1.2c0.3,0,0.9,0,1.7,0c0.3,0,0.4-0.1,0.4-0.4v-3.8h-5.4v-1.3
		c1-1,1.9-2.2,2.8-3.5H182v-1.3h4.3c0.3-0.4,0.5-1,0.8-1.6l1.3,0.4c-0.2,0.5-0.5,0.9-0.6,1.2h7V234.4z M195,243.4l-1.1,0.8
		c-0.7-1.1-1.8-2.3-3.2-3.7l1-0.8C193.2,241,194.2,242.2,195,243.4z"/>
	<path class="st7" d="M201.5,241.1c-0.8,1.1-2.1,2.1-3.8,3.1l-0.8-1.1c1.7-0.9,2.9-1.9,3.6-2.9L201.5,241.1z M209.8,234.3h-12.7V233
		h5.6c-0.2-0.3-0.4-0.7-0.7-1.1l1.4-0.4c0.3,0.5,0.6,1,0.8,1.5h5.7V234.3z M208.4,239.8h-4.2v3.6c0,0.3-0.1,0.6-0.3,0.9
		c-0.2,0.3-0.9,0.4-1.9,0.4c-0.2,0-0.5,0-0.8,0l-0.5-1.5c0.4,0,0.8,0.1,1.1,0.1c0.5,0,0.8,0,0.9-0.1c0.1,0,0.2-0.1,0.2-0.2v-3.2
		h-4.3v-4.3h9.9V239.8z M207,236.8h-7.1v1.7h7.1V236.8z M210.1,243.2l-0.9,1c-1-1.1-2.3-2.1-3.9-3l1-1
		C208,241.2,209.2,242.2,210.1,243.2"/>
	<path class="st8" d="M201.5,241.1c-0.8,1.1-2.1,2.1-3.8,3.1l-0.8-1.1c1.7-0.9,2.9-1.9,3.6-2.9L201.5,241.1z M209.8,234.3h-12.7V233
		h5.6c-0.2-0.3-0.4-0.7-0.7-1.1l1.4-0.4c0.3,0.5,0.6,1,0.8,1.5h5.7V234.3z M208.4,239.8h-4.2v3.6c0,0.3-0.1,0.6-0.3,0.9
		c-0.2,0.3-0.9,0.4-1.9,0.4c-0.2,0-0.5,0-0.8,0l-0.5-1.5c0.4,0,0.8,0.1,1.1,0.1c0.5,0,0.8,0,0.9-0.1c0.1,0,0.2-0.1,0.2-0.2v-3.2
		h-4.3v-4.3h9.9V239.8z M207,236.8h-7.1v1.7h7.1V236.8z M210.1,243.2l-0.9,1c-1-1.1-2.3-2.1-3.9-3l1-1
		C208,241.2,209.2,242.2,210.1,243.2z"/>
	<path class="st7" d="M216.2,241.9c-1,0.5-2.3,1.1-4.1,1.8l-0.3-1.3c0.4-0.2,0.9-0.4,1.5-0.6v-5.2h-1.4v-1.3h1.4v-3.8h1.3v3.8h1.4
		v1.3h-1.4v4.6c0.4-0.2,0.9-0.4,1.5-0.8L216.2,241.9z M225.2,238.1l-0.6,1.2c-0.6-0.3-1.1-0.6-1.7-0.9v0.8h-5.1v-0.9
		c-0.6,0.4-1.2,0.7-1.7,1l-0.7-1.1c2.1-0.9,3.6-2.1,4.4-3.6l1.4,0.2c-0.1,0.2-0.1,0.3-0.2,0.3C221.9,236.2,223.3,237.2,225.2,238.1
		 M220,234h-1.2v1.2h-1.3V234h-1.8v-1.2h1.8v-1.2h1.3v1.2h1.2V234z M224,244.7h-1.3V244h-4.6v0.8h-1.3v-4.9h7.2V244.7z M222.7,241.1
		h-4.6v1.7h4.6V241.1z M222.2,237.9c-0.8-0.6-1.5-1.2-2-1.8c-0.6,0.7-1.3,1.3-2,1.8H222.2z M225,234h-1.8v1.2h-1.3V234h-1.2v-1.2
		h1.2v-1.2h1.3v1.2h1.8V234z"/>
	<path class="st8" d="M216.2,241.9c-1,0.5-2.3,1.1-4.1,1.8l-0.3-1.3c0.4-0.2,0.9-0.4,1.5-0.6v-5.2h-1.4v-1.3h1.4v-3.8h1.3v3.8h1.4
		v1.3h-1.4v4.6c0.4-0.2,0.9-0.4,1.5-0.8L216.2,241.9z M225.2,238.1l-0.6,1.2c-0.6-0.3-1.1-0.6-1.7-0.9v0.8h-5.1v-0.9
		c-0.6,0.4-1.2,0.7-1.7,1l-0.7-1.1c2.1-0.9,3.6-2.1,4.4-3.6l1.4,0.2c-0.1,0.2-0.1,0.3-0.2,0.3C221.9,236.2,223.3,237.2,225.2,238.1z
		 M220,234h-1.2v1.2h-1.3V234h-1.8v-1.2h1.8v-1.2h1.3v1.2h1.2V234z M224,244.7h-1.3V244h-4.6v0.8h-1.3v-4.9h7.2V244.7z M222.7,241.1
		h-4.6v1.7h4.6V241.1z M222.2,237.9c-0.8-0.6-1.5-1.2-2-1.8c-0.6,0.7-1.3,1.3-2,1.8H222.2z M225,234h-1.8v1.2h-1.3V234h-1.2v-1.2
		h1.2v-1.2h1.3v1.2h1.8V234z"/>
	<path class="st7" d="M240,243.8l-0.8,1.1c-3-1.9-4.9-4.4-5.8-7.5c-0.9,3-2.9,5.5-5.8,7.4l-0.8-1.2c3.1-2,4.9-4.4,5.6-7.3h-5.3
		l0-1.3h5.5c0.1-1,0.2-2.1,0.2-3.2h1.3c0,1.3-0.1,2.4-0.1,3.2h5.9v1.3h-5.4C235.1,239.4,237,242,240,243.8"/>
	<path class="st8" d="M240,243.8l-0.8,1.1c-3-1.9-4.9-4.4-5.8-7.5c-0.9,3-2.9,5.5-5.8,7.4l-0.8-1.2c3.1-2,4.9-4.4,5.6-7.3h-5.3
		l0-1.3h5.5c0.1-1,0.2-2.1,0.2-3.2h1.3c0,1.3-0.1,2.4-0.1,3.2h5.9v1.3h-5.4C235.1,239.4,237,242,240,243.8z"/>
	<path class="st7" d="M255,243.3l-0.4,1.3c-0.7,0-1.4,0-2.2,0c-2.8,0-4.7-0.1-5.7-0.3c-1-0.2-1.8-0.6-2.5-1.3
		c-0.5,0.7-1,1.3-1.5,1.8l-1-0.8c1.3-1.4,2.1-2.8,2.5-4.2h-2.2v-1.3c0.7-0.8,1.4-1.7,2-2.6h-2.1v-1.3h3.7v1.3
		c-0.5,0.9-1.1,1.8-1.8,2.6h1.8v1.3c-0.2,0.7-0.5,1.4-0.8,2.1c0.5,0.6,1.2,1,2,1.2c0.8,0.2,2.6,0.3,5.4,0.3
		C253.3,243.4,254.2,243.4,255,243.3 M245.5,233.4l-0.9,0.9c-0.7-0.7-1.4-1.3-2.3-1.9l1-0.9C244,232,244.8,232.6,245.5,233.4
		 M255,234.6h-4.2c-0.2,0.4-0.3,0.7-0.4,0.8h3.9v7.3h-7.7v-7.3h2.3c0.1-0.2,0.2-0.4,0.4-0.8h-3.4v-1.2h9.1V234.6z M249.6,232.5
		l-1.1,0.8c-0.5-0.4-1.1-0.8-1.6-1.1l1.2-0.7C248.6,231.8,249.1,232.2,249.6,232.5 M252.9,236.5h-5v0.9h5V236.5z M252.9,238.6h-5
		v0.9h5V238.6z M252.9,240.6h-5v0.9h5V240.6z M253.8,232.1c-0.5,0.4-1,0.8-1.5,1.2l-1.2-0.7c0.6-0.4,1.1-0.7,1.5-1.1L253.8,232.1z"
		/>
	<path class="st8" d="M255,243.3l-0.4,1.3c-0.7,0-1.4,0-2.2,0c-2.8,0-4.7-0.1-5.7-0.3c-1-0.2-1.8-0.6-2.5-1.3
		c-0.5,0.7-1,1.3-1.5,1.8l-1-0.8c1.3-1.4,2.1-2.8,2.5-4.2h-2.2v-1.3c0.7-0.8,1.4-1.7,2-2.6h-2.1v-1.3h3.7v1.3
		c-0.5,0.9-1.1,1.8-1.8,2.6h1.8v1.3c-0.2,0.7-0.5,1.4-0.8,2.1c0.5,0.6,1.2,1,2,1.2c0.8,0.2,2.6,0.3,5.4,0.3
		C253.3,243.4,254.2,243.4,255,243.3z M245.5,233.4l-0.9,0.9c-0.7-0.7-1.4-1.3-2.3-1.9l1-0.9C244,232,244.8,232.6,245.5,233.4z
		 M255,234.6h-4.2c-0.2,0.4-0.3,0.7-0.4,0.8h3.9v7.3h-7.7v-7.3h2.3c0.1-0.2,0.2-0.4,0.4-0.8h-3.4v-1.2h9.1V234.6z M249.6,232.5
		l-1.1,0.8c-0.5-0.4-1.1-0.8-1.6-1.1l1.2-0.7C248.6,231.8,249.1,232.2,249.6,232.5z M252.9,236.5h-5v0.9h5V236.5z M252.9,238.6h-5
		v0.9h5V238.6z M252.9,240.6h-5v0.9h5V240.6z M253.8,232.1c-0.5,0.4-1,0.8-1.5,1.2l-1.2-0.7c0.6-0.4,1.1-0.7,1.5-1.1L253.8,232.1z"
		/>
	<path class="st7" d="M56.9,295.5c-1.4,3-3,5.3-4.7,6.9l-0.9-1c1.5-1.3,2.9-3.5,4.4-6.5L56.9,295.5z M64.4,293.4H51.5v-1.3h6
		c-0.2-0.7-0.6-1.6-1.1-2.6l1.5-0.4c0.5,1.1,0.9,2.1,1.2,3h5.3V293.4z M64.6,301.4l-1.1,0.9c-1.5-2.7-3-4.9-4.6-6.7l1.2-0.7
		C61.5,296.5,63,298.6,64.6,301.4"/>
	<path class="st8" d="M56.9,295.5c-1.4,3-3,5.3-4.7,6.9l-0.9-1c1.5-1.3,2.9-3.5,4.4-6.5L56.9,295.5z M64.4,293.4H51.5v-1.3h6
		c-0.2-0.7-0.6-1.6-1.1-2.6l1.5-0.4c0.5,1.1,0.9,2.1,1.2,3h5.3V293.4z M64.6,301.4l-1.1,0.9c-1.5-2.7-3-4.9-4.6-6.7l1.2-0.7
		C61.5,296.5,63,298.6,64.6,301.4z"/>
	<path class="st7" d="M79.5,299.1l-0.9,1c-2.3-1.8-4-3.9-5-6.3v4.9h3v1.3h-3v2.4h-1.4V300h-3v-1.3h3v-5c-1.1,2.5-2.8,4.6-5.1,6.3
		l-0.9-1c2.2-1.6,3.9-3.7,5-6.2h-4.6v-1.3h5.5v-2.2h1.4v2.2h5.5v1.3h-4.7C75.5,295.3,77.1,297.4,79.5,299.1"/>
	<path class="st8" d="M79.5,299.1l-0.9,1c-2.3-1.8-4-3.9-5-6.3v4.9h3v1.3h-3v2.4h-1.4V300h-3v-1.3h3v-5c-1.1,2.5-2.8,4.6-5.1,6.3
		l-0.9-1c2.2-1.6,3.9-3.7,5-6.2h-4.6v-1.3h5.5v-2.2h1.4v2.2h5.5v1.3h-4.7C75.5,295.3,77.1,297.4,79.5,299.1z"/>
	<path class="st7" d="M94.6,299.5l-0.8,1.1c-2.3-1.8-4-3.9-5.1-6.4v8.1h-1.3v-8.1c-1.1,2.3-2.8,4.4-5.1,6.3l-0.9-1.1
		c2.4-1.9,4.2-4,5.2-6.3h-5.1v-1.3h5.9v-2.6h1.3v2.6h5.8v1.3h-5C90.4,295.5,92.1,297.7,94.6,299.5"/>
	<path class="st8" d="M94.6,299.5l-0.8,1.1c-2.3-1.8-4-3.9-5.1-6.4v8.1h-1.3v-8.1c-1.1,2.3-2.8,4.4-5.1,6.3l-0.9-1.1
		c2.4-1.9,4.2-4,5.2-6.3h-5.1v-1.3h5.9v-2.6h1.3v2.6h5.8v1.3h-5C90.4,295.5,92.1,297.7,94.6,299.5z"/>
	<path class="st9" d="M296,256h21.6l1.2-12.6h-5.6c-1.4-9-2.1-18.4-2.9-29l-7.2,0c-0.8,10.6-1.5,20-2.8,29h-5.6L296,256z"/>
	<polygon class="st9" points="311.4,214 311.4,209.7 310.4,209.7 310.4,209 303.1,209 303.1,209.8 302.1,209.8 302.1,214 	"/>
	<rect x="302.2" y="198.5" class="st9" width="9.3" height="9.9"/>
	<polygon class="st9" points="308.9,188.1 308.3,188.1 308.3,178.7 307.3,178.7 307.2,165 306.3,165 306.3,178.7 305.2,178.7 
		305.2,188.1 304.6,188.1 304.6,197.5 308.9,197.5 	"/>
	<path class="st9" d="M315.7,260.2v-2.7h-17.8v2.6h0c-3.3,14.6-7.7,27.3-19.1,45h9.6c3.2-5.7,7-12.4,14-14.3
		c1.3-0.3,2.8-0.6,4.4-0.6c1.6,0,3.1,0.2,4.4,0.6c7,1.9,10.7,8.4,13.9,14.3l9.8,0C323.5,287.5,319,274.7,315.7,260.2"/>
</g>
</svg>
