<?xml version="1.0" encoding="utf-8"?>
<!-- Generator: Adobe Illustrator 21.1.0, SVG Export Plug-In . SVG Version: 6.00 Build 0)  -->
<svg version="1.1" id="レイヤー_1" xmlns="http://www.w3.org/2000/svg" xmlns:xlink="http://www.w3.org/1999/xlink" x="0px"
	 y="0px" viewBox="0 0 611.3 529.3" style="enable-background:new 0 0 611.3 529.3;" xml:space="preserve">
<style type="text/css">
	.st0{clip-path:url(#SVGID_2_);fill:none;stroke:#848484;stroke-width:2;stroke-miterlimit:10;}
	.st1{clip-path:url(#SVGID_2_);fill:none;stroke:#848484;stroke-width:3;stroke-miterlimit:10;stroke-dasharray:19.891,7.956;}
	.st2{clip-path:url(#SVGID_2_);fill:#848484;}
	.st3{clip-path:url(#SVGID_2_);fill:#FFFFFF;}
	.st4{clip-path:url(#SVGID_2_);fill:none;stroke:#848484;stroke-miterlimit:10;}
	.st5{clip-path:url(#SVGID_2_);fill:#727171;}
</style>
<g>
	<defs>
		<rect id="SVGID_1_" width="611.3" height="529.3"/>
	</defs>
	<clipPath id="SVGID_2_">
		<use xlink:href="#SVGID_1_"  style="overflow:visible;"/>
	</clipPath>
	<path class="st0" d="M466.2,529.3V195.7c0-15.7,9.7-43.6,12.4-51C487.9,119.8,514.5,38.6,527,0"/>
	<path class="st0" d="M409,195.7c0-15.7,9.7-43.6,12.4-51c9.3-24.9,35.9-106.1,48.4-144.7"/>
	<path class="st0" d="M139.7,140.7v-29.5c0-15.7,9.7-43.6,12.4-51c4.3-11.4,12.2-34.7,20.7-60.3"/>
	<path class="st0" d="M530.2,529.3V195.7c0-15.7,9.7-43.6,12.4-51c6.3-16.7,20.3-59,32.7-96.6"/>
	<line class="st1" x1="581.7" y1="525.8" x2="581.7" y2="0.7"/>
	<line class="st0" x1="586.7" y1="402.2" x2="611.9" y2="402.2"/>
	<line class="st0" x1="0" y1="402.2" x2="576.7" y2="402.2"/>
	<line class="st0" x1="586.7" y1="264.7" x2="611.9" y2="264.7"/>
	<line class="st0" x1="322" y1="264.7" x2="576.7" y2="264.7"/>
	<line class="st0" x1="0" y1="264.7" x2="291.8" y2="264.7"/>
	<line class="st0" x1="586.7" y1="127.2" x2="611.9" y2="127.2"/>
	<line class="st0" x1="249.2" y1="127.2" x2="576.7" y2="127.2"/>
	<line class="st0" x1="0" y1="43.2" x2="158.3" y2="43.2"/>
	<path class="st0" d="M306.8,394.2l69.4-129.6l-1-30.1c0,0,1.2-38.9,37.8-38.9h53.2"/>
	<path class="st0" d="M238.8,227.8l0.6-58.1c0-15.7,9.7-43.6,12.4-51c7.6-20.1,26.4-77.3,39.9-118.7"/>
	<polyline class="st0" points="306.8,394.2 238.4,264.7 238.6,246.3 	"/>
	<path class="st0" d="M0,349.1C29.3,299.9,101,154,118.3,134.2c7.7-8.8,21.4-7.6,21.4,9.4c0,6.2,0,121,0,121l-1,183.7
		c0,0-1.2,38.9-37.8,38.9H0"/>
	<line class="st0" x1="306.8" y1="394.2" x2="306.8" y2="529.3"/>
	<path class="st2" d="M300,438.3c0,4.7-3.8,8.5-8.5,8.5h-20.8c-4.7,0-8.5-3.8-8.5-8.5v-20.8c0-4.7,3.8-8.5,8.5-8.5h20.8
		c4.7,0,8.5,3.8,8.5,8.5V438.3z"/>
	<path class="st3" d="M281.1,436.5c-4.6,0-8.4-3.8-8.4-8.4s3.8-8.4,8.4-8.4c4.6,0,8.4,3.8,8.4,8.4
		C289.5,432.7,285.7,436.5,281.1,436.5 M273.2,428.1c0,4.3,3.5,7.8,7.8,7.8c4.3,0,7.8-3.5,7.8-7.8c0-4.3-3.5-7.8-7.8-7.8
		C276.7,420.2,273.2,423.8,273.2,428.1 M280.5,424.9L280.5,424.9l-1.7,0.8l-0.3-1.3l2.1-1h1.5v9.3h-1.7V424.9z"/>
	<path class="st2" d="M238.1,138.4c0,4.7-3.8,8.5-8.5,8.5h-20.8c-4.7,0-8.5-3.8-8.5-8.5v-20.8c0-4.7,3.8-8.5,8.5-8.5h20.8
		c4.7,0,8.5,3.8,8.5,8.5V138.4z"/>
	<path class="st3" d="M219.2,136.6c-4.6,0-8.4-3.8-8.4-8.4c0-4.6,3.8-8.4,8.4-8.4c4.6,0,8.4,3.8,8.4,8.4
		C227.6,132.9,223.8,136.6,219.2,136.6 M211.4,128.2c0,4.3,3.5,7.8,7.8,7.8c4.3,0,7.8-3.5,7.8-7.8c0-4.3-3.5-7.8-7.8-7.8
		C214.8,120.4,211.4,123.9,211.4,128.2 M216,132.8v-1.1l1.1-1c2.5-2.3,3.4-3.2,3.4-4.3c0-0.8-0.4-1.6-1.8-1.6
		c-0.8,0-1.6,0.4-2.1,0.8l-0.5-1.2c0.7-0.6,1.8-1,2.9-1c2.3,0,3.2,1.5,3.2,2.8c0,1.7-1.2,2.8-3.2,4.5l-0.8,0.6v0h4.2v1.4H216z"/>
	<path class="st2" d="M503.1,138.4c0,4.7-3.8,8.5-8.5,8.5h-20.8c-4.7,0-8.5-3.8-8.5-8.5v-20.8c0-4.7,3.8-8.5,8.5-8.5h20.8
		c4.7,0,8.5,3.8,8.5,8.5V138.4z"/>
	<path class="st3" d="M484.2,136.6c-4.6,0-8.4-3.8-8.4-8.4c0-4.6,3.8-8.4,8.4-8.4c4.6,0,8.4,3.8,8.4,8.4
		C492.6,132.9,488.8,136.6,484.2,136.6 M476.4,128.2c0,4.3,3.5,7.8,7.8,7.8c4.3,0,7.8-3.5,7.8-7.8c0-4.3-3.5-7.8-7.8-7.8
		C479.8,120.4,476.4,123.9,476.4,128.2 M481.4,131c0.4,0.3,1.3,0.6,2.2,0.6c1.5,0,2-0.9,2-1.4c0-1.2-1.2-1.6-2.3-1.6h-0.8v-1.3h0.8
		c0.9,0,2-0.3,2-1.3c0-0.6-0.4-1.2-1.6-1.2c-0.8,0-1.5,0.3-2,0.6l-0.4-1.3c0.5-0.4,1.6-0.7,2.7-0.7c2.1,0,3,1.1,3,2.2
		c0,1-0.6,1.7-1.7,2.1v0c1.2,0.3,2.1,1.1,2.1,2.3c0,1.5-1.3,2.8-3.7,2.8c-1.2,0-2.2-0.3-2.6-0.6L481.4,131z"/>
	<path class="st2" d="M549.1,275.1c0,4.7-3.8,8.5-8.5,8.5h-20.8c-4.7,0-8.5-3.8-8.5-8.5v-20.8c0-4.7,3.8-8.5,8.5-8.5h20.8
		c4.7,0,8.5,3.8,8.5,8.5V275.1z"/>
	<path class="st3" d="M530.2,273.3c-4.6,0-8.4-3.8-8.4-8.4c0-4.6,3.8-8.4,8.4-8.4s8.4,3.8,8.4,8.4
		C538.6,269.6,534.8,273.3,530.2,273.3 M522.4,264.9c0,4.3,3.5,7.8,7.8,7.8s7.8-3.5,7.8-7.8c0-4.3-3.5-7.8-7.8-7.8
		C525.9,257.1,522.4,260.6,522.4,264.9 M530.7,269.6v-2.3h-4.5v-1.1l4.2-5.9h1.9v5.7h1.2v1.3h-1.2v2.3H530.7z M530.7,266v-2.8
		c0-0.4,0-1,0-1.5h0c-0.3,0.5-0.5,1-0.8,1.4l-2.2,2.8v0H530.7z"/>
	<path class="st2" d="M601.3,330.9c0,4.7-3.8,8.5-8.5,8.5h-20.8c-4.7,0-8.5-3.8-8.5-8.5v-20.8c0-4.7,3.8-8.5,8.5-8.5h20.8
		c4.7,0,8.5,3.8,8.5,8.5V330.9z"/>
	<path class="st3" d="M582.4,329.1c-4.6,0-8.4-3.8-8.4-8.4c0-4.6,3.8-8.4,8.4-8.4c4.6,0,8.4,3.8,8.4,8.4
		C590.9,325.3,587.1,329.1,582.4,329.1 M574.6,320.6c0,4.3,3.5,7.8,7.8,7.8c4.3,0,7.8-3.5,7.8-7.8c0-4.3-3.5-7.8-7.8-7.8
		C578.1,312.8,574.6,316.4,574.6,320.6 M585.3,317.5h-3.7l-0.3,1.8c0.2,0,0.5-0.1,0.8-0.1c1.9,0,3.5,1,3.5,2.9
		c0,1.7-1.5,3.2-3.8,3.2c-1.1,0-2.1-0.3-2.5-0.6l0.4-1.3c0.4,0.2,1.2,0.5,2.1,0.5c1.1,0,2.1-0.7,2.1-1.6c0-1.1-0.8-1.8-2.6-1.8
		c-0.5,0-1,0.1-1.4,0.1l0.6-4.6h4.9V317.5z"/>
	<line class="st4" x1="256.7" y1="249.1" x2="267.3" y2="264.7"/>
	<path class="st5" d="M339.1,508.7h4v1.4h-9.6v-1.4h4.1v-3.3h-3.1V504h3.1v-3.1h-3.4v-0.4c-0.1,0.1-0.2,0.1-0.3,0.1
		c-0.4,0.7-0.8,1.4-1.3,2l0.3,0.1c0,0.1-0.1,0.2-0.4,0.2v7.7h-1.4v-6.2c-0.5,0.6-1,1.1-1.5,1.6c-0.1-0.3-0.5-1-0.7-1.3
		c1.3-1.1,2.8-3,3.8-4.9l1.5,0.6v-0.8h4.9c-0.7-0.7-2.1-1.6-3.2-2.1l1-0.9c1.1,0.6,2.6,1.4,3.3,2.1l-0.9,0.9h3.3v1.4h-3.5v3.1h3.1
		v1.3h-3.1V508.7z M333.8,497.2c-0.1,0.1-0.2,0.1-0.4,0.1c-0.9,1.1-2.4,2.6-3.7,3.5c-0.2-0.3-0.6-0.9-0.8-1.1
		c1.2-0.8,2.5-2.2,3.3-3.2L333.8,497.2z"/>
	<path class="st5" d="M344.8,497.5h12.6v12.9h-1.5v-0.9h-9.7v0.9h-1.4V497.5z M350.2,498.9h-4v3.8h4V498.9z M346.2,508h4v-3.9h-4
		V508z M355.9,498.9h-4.2v3.8h4.2V498.9z M351.7,508h4.2v-3.9h-4.2V508z"/>
	<path class="st5" d="M366.1,497.2v10.5h-5.4v1.2h-1.2v-11.6H366.1z M362.2,498.5h-1.5v3.3h1.5V498.5z M360.7,506.5h1.5V503h-1.5
		V506.5z M364.9,498.5h-1.6v3.3h1.6V498.5z M363.3,506.5h1.6V503h-1.6V506.5z M373.1,498.2v1.4H371v9.2c0,1.6-0.7,1.8-3.7,1.8
		c-0.1-0.4-0.3-1-0.5-1.4c0.5,0,1,0,1.4,0c1.3,0,1.3,0,1.3-0.4v-9.1h-3.2v-1.4H373.1z"/>
	<path class="st5" d="M375.1,506.2c1.1,0.9,2.5,2.4,3.3,3.3l-1.2,1.1c-0.7-0.9-2.2-2.5-3.2-3.4L375.1,506.2z"/>
	<path class="st5" d="M389.6,510.5V504h5.6v6.5h-1.4v-0.5H391v0.7H389.6z M393.8,505.3H391v3.2h2.9V505.3z M400,502.6h-7.9V497h7.9
		V502.6z M398.5,498.4h-5.1v2.8h5.1V498.4z M396.7,504h5.8v6.5H401v-0.5h-3v0.6h-1.4V504z M398,508.5h3v-3.2h-3V508.5z"/>
	<path class="st5" d="M405.7,497.3l1.8,0.1c0,0.1-0.1,0.2-0.3,0.3v4.8c0,2.9-0.2,5.9-2.2,8.2c-0.3-0.3-0.8-0.8-1.2-1
		c1.8-2,2-4.6,2-7.2V497.3z M410.5,497.9l1.8,0.1c0,0.1-0.1,0.2-0.3,0.3v10.9h-1.4V497.9z M415.6,497.2l1.8,0.1
		c0,0.1-0.1,0.2-0.4,0.3v12.9h-1.5V497.2z"/>
	<path class="st5" d="M432.8,500.4h-7.5c-0.1,0.7-0.1,1.5-0.2,2.3h4.9l0.3,0l0.8,0.2c0,0.1,0,0.3-0.1,0.4c-0.3,4.4-0.6,6.1-1.2,6.7
		c-0.5,0.5-1,0.6-2.3,0.6c-0.5,0-1.1,0-1.7,0c0-0.4-0.2-1-0.5-1.4c1.1,0.1,2.1,0.1,2.5,0.1c0.3,0,0.5,0,0.7-0.2
		c0.4-0.4,0.7-1.8,0.9-5h-4.7c-0.5,2.6-1.7,5.1-4.8,6.6c-0.2-0.4-0.6-0.9-1-1.2c4.2-1.9,4.6-5.7,4.7-9h-4.5V499h6v-2.6l1.8,0.1
		c0,0.1-0.1,0.2-0.4,0.2v2.2h6.2V500.4z"/>
	<path class="st5" d="M447.2,499.1v9.7c0,1.6-0.7,1.8-3.7,1.8c-0.1-0.4-0.3-1.1-0.5-1.5c0.6,0,1.3,0,1.8,0c0.9,0,1,0,1-0.4v-8.3
		h-9.5v10.1h-1.4v-11.5h4.1c0.4-0.8,0.7-1.8,0.9-2.6l2,0.4c0,0.1-0.2,0.2-0.4,0.2c-0.2,0.6-0.6,1.3-0.9,2H447.2z M444,507.3h-4.6
		v1.1H438v-6.2h5.9V507.3z M442.6,503.5h-3.3v2.6h3.3V503.5z"/>
	<path class="st5" d="M330.6,32.2h4v1.4H325v-1.4h4.1v-3.3H326v-1.3h3.1v-3.1h-3.4V24c-0.1,0.1-0.2,0.1-0.3,0.1
		c-0.4,0.7-0.8,1.4-1.3,2l0.3,0.1c0,0.1-0.1,0.2-0.4,0.2v7.7h-1.4v-6.2c-0.5,0.6-1,1.1-1.5,1.6c-0.1-0.3-0.5-1-0.7-1.3
		c1.3-1.1,2.8-3,3.8-4.9l1.5,0.6v-0.8h4.9c-0.7-0.7-2.1-1.6-3.2-2.1l1-0.9c1.1,0.6,2.6,1.4,3.3,2.1l-0.9,0.9h3.3v1.3h-3.5v3.1h3.1
		v1.3h-3.1V32.2z M325.3,20.7c-0.1,0.1-0.2,0.1-0.4,0.1c-0.9,1.1-2.4,2.6-3.7,3.5c-0.2-0.3-0.6-0.9-0.8-1.1c1.2-0.8,2.5-2.2,3.3-3.2
		L325.3,20.7z"/>
	<path class="st5" d="M338.2,24.4v2.3c0,2.2-0.2,5.3-1.5,7.4c-0.3-0.2-0.9-0.6-1.2-0.7c1.2-1.9,1.3-4.7,1.3-6.6v-3.6h4.8V20l1.8,0.1
		c0,0.1-0.1,0.2-0.4,0.3v0.7h5v1.2h-5v0.9h5.3l0.9,0c0,0.3-0.5,1.9-1,2.8l-1.3-0.4c0.1-0.3,0.3-0.7,0.4-1.1h-4.2
		c-0.1,0-0.1,0-0.2,0.1v0.9l3.5-0.3l0.1,1l-3.7,0.3c0,0.9,0,0.9,1,0.9h3c0.6,0,0.8-0.1,0.9-1.1c0.3,0.2,0.8,0.4,1.2,0.4
		c-0.2,1.4-0.6,1.7-1.9,1.7h-3.2c-2.2,0-2.3-0.5-2.3-1.9l-2.7,0.3l-0.1-1.1l2.9-0.3v-1.1H338.2z M342.3,28.8c0,0.1-0.1,0.2-0.3,0.2
		c-0.2,2.5-0.6,4.1-3.5,5c-0.1-0.3-0.5-0.9-0.8-1.1c2.4-0.7,2.8-2,2.9-4.3L342.3,28.8z M345.3,32c0,0.4,0.1,0.5,0.6,0.5h1.6
		c0.5,0,0.6-0.2,0.6-1.8c0.3,0.2,0.9,0.4,1.2,0.5c-0.1,2.1-0.5,2.5-1.7,2.5h-1.9c-1.4,0-1.8-0.4-1.8-1.7v-3.3l1.7,0.1
		c0,0.1-0.1,0.2-0.3,0.2V32z"/>
	<path class="st5" d="M362.7,22.7l1.2,0.7c0,0.1-0.2,0.2-0.3,0.2c-1.7,2.8-4.7,6-7.5,8.1c1.5,0.8,3.5,0.8,5.5,0.8c1,0,2.4,0,3,0
		c-0.2,0.3-0.4,1-0.5,1.4h-3.5c-3.2,0-5.6-0.5-7.1-2.7c-0.5,0.9-1.1,1.8-1.6,2.5c0,0.1,0,0.1,0,0.2c0,0.1,0,0.2-0.1,0.3l-1.5-1
		c1.1-1.2,2.3-3.2,2.9-4.7l1.3,0.6c-0.1,0.3-0.3,0.6-0.4,0.9c0.2,0.4,0.5,0.8,0.7,1.1c2.4-1.7,5-4.4,6.5-6.7h-10.1v-1.4h5.4V20
		l1.8,0.1c0,0.1-0.1,0.2-0.3,0.2v2.4h4.3L362.7,22.7z"/>
	<path class="st5" d="M371.8,20.7v5.7h-4.2v7.7h-1.4V20.7H371.8z M370.5,21.9h-2.8V23h2.8V21.9z M367.6,25.2h2.8V24h-2.8V25.2z
		 M378.8,20.7v11.5c0,1.6-0.6,1.8-3.7,1.8c-0.1-0.4-0.3-1.1-0.5-1.5c0.6,0,1.2,0,1.7,0c1,0,1.1,0,1.1-0.4v-5.8h-4.3v-5.7H378.8z
		 M377.4,21.9h-3V23h3V21.9z M374.4,25.2h3V24h-3V25.2z"/>
	<path class="st5" d="M394.3,23.9h-7.5c-0.1,0.7-0.1,1.5-0.2,2.3h4.9l0.3,0l0.8,0.2c0,0.1,0,0.3-0.1,0.4c-0.3,4.4-0.6,6.1-1.2,6.7
		c-0.5,0.5-1,0.6-2.3,0.6c-0.5,0-1.1,0-1.7,0c0-0.4-0.2-1-0.5-1.4c1.1,0.1,2.1,0.1,2.5,0.1c0.3,0,0.5,0,0.7-0.2
		c0.4-0.4,0.7-1.8,0.9-5h-4.7c-0.5,2.6-1.7,5.1-4.8,6.6c-0.2-0.4-0.6-0.9-1-1.2c4.2-1.9,4.6-5.7,4.7-9h-4.5v-1.4h6V20l1.8,0.1
		c0,0.1-0.1,0.2-0.4,0.2v2.2h6.2V23.9z"/>
	<path class="st5" d="M408.7,22.6v9.7c0,1.6-0.7,1.8-3.7,1.8c-0.1-0.4-0.3-1.1-0.5-1.5c0.6,0,1.3,0,1.8,0c0.9,0,1,0,1-0.4V24h-9.5
		v10.1h-1.4V22.6h4.1c0.4-0.8,0.7-1.8,0.9-2.6l2,0.4c0,0.1-0.2,0.2-0.4,0.2c-0.2,0.6-0.6,1.3-0.9,2H408.7z M405.5,30.9h-4.6v1.1
		h-1.3v-6.2h5.9V30.9z M404.1,27h-3.3v2.6h3.3V27z"/>
	<path class="st5" d="M404.4,289.3h3.1c0.6,1.3,1.9,2.5,3.1,3.1c-0.3,0.3-0.6,0.9-0.8,1.3l-0.4-0.3v3.1h-8v-3.1
		c-0.2,0.1-0.3,0.2-0.5,0.3c-0.1-0.2-0.2-0.5-0.4-0.8v0.8h-1.3v4.3l1.6-0.4l0.2,1.3c-1.5,0.5-3,1-4,1.3c0,0.1-0.1,0.2-0.2,0.3
		l-0.6-1.6c0.5-0.1,1-0.3,1.7-0.4v-4.6h-1.5v-1.3h1.5v-3.5l1.7,0.1c0,0.1-0.1,0.2-0.3,0.2v3.1h1.2c0.9-0.6,1.9-1.7,2.4-2.8l1.5,0.5
		c0,0.1-0.2,0.2-0.4,0.1c-0.3,0.6-0.7,1.1-1.1,1.6h5c-0.5-0.5-0.9-1.1-1.2-1.7h-2.2V289.3z M402.1,302.9v-5.6h6.5v5.6h-1.4v-0.5
		h-3.8v0.6H402.1z M402.5,295.6h2.3v-2.4h-2.3V295.6z M403.4,295.3c-0.1-0.4-0.3-1.1-0.6-1.6l0.8-0.2c0.3,0.5,0.5,1.2,0.6,1.6
		L403.4,295.3z M407.2,298.4h-3.8v1h3.8V298.4z M403.5,301.3h3.8v-1h-3.8V301.3z M408.2,293.2h-2.3v2.4h2.3V293.2z M408,293.8
		c0,0.1-0.1,0.1-0.3,0.1c-0.2,0.4-0.5,1-0.7,1.4c-0.2-0.1-0.5-0.2-0.7-0.3c0.2-0.4,0.5-1.1,0.6-1.6L408,293.8z"/>
	<path class="st5" d="M418.6,300.8h6.6v1.4h-13.7v-1.4h5.6v-11.7l1.9,0.1c0,0.1-0.1,0.2-0.4,0.3v4.2h5.5v1.4h-5.5V300.8z"/>
	<path class="st5" d="M434,293.7h6.2v1.4h-13.7v-1.4h6V292h-4.7v-1.3h4.7v-1.8l1.8,0.1c0,0.1-0.1,0.2-0.4,0.2v1.4h5.1v1.3H434V293.7
		z M437.1,295.2c0,0.1-0.1,0.2-0.4,0.2v1.3h3.1v1.3h-3.1v3.1c0,1.5-0.6,1.7-3.6,1.7c-0.1-0.4-0.3-1-0.5-1.4c1,0,2,0,2.2,0
		c0.3,0,0.4-0.1,0.4-0.3v-3.1h-8.4v-1.3h8.4v-1.7L437.1,295.2z M430.8,301.6c-0.4-0.8-1.4-1.9-2.2-2.7l1.2-0.8
		c0.9,0.7,1.9,1.8,2.3,2.6L430.8,301.6z"/>
	<path class="st5" d="M193.8,240.7h-3.6c1.3,1.3,3.4,2.5,5.2,3.2c-0.3,0.3-0.8,0.9-1,1.2c-1.9-0.8-3.9-2.2-5.4-3.8v3.9h-1.5v-3.9
		c-1.4,1.6-3.4,2.9-5.3,3.7c-0.2-0.4-0.7-0.9-1-1.2c1.8-0.6,3.8-1.8,5.1-3.2H183V235h4.5v-1.1h-5.8v-1.3h5.8v-1.4l1.8,0.1
		c0,0.1-0.1,0.2-0.4,0.3v1h6v1.3h-6v1.1h4.8V240.7z M184.4,237.4h3.1v-1.2h-3.1V237.4z M184.4,239.6h3.1v-1.2h-3.1V239.6z
		 M192.4,236.1h-3.3v1.2h3.3V236.1z M192.4,238.4h-3.3v1.2h3.3V238.4z"/>
	<path class="st5" d="M200.7,241.4c0,0.1-0.2,0.2-0.4,0.1c-0.6,1-1.8,2.3-2.9,3.2c-0.3-0.3-0.8-0.7-1.2-0.8c1.1-0.8,2.2-2,2.7-3
		L200.7,241.4z M210.1,232.9v1.4h-13.5v-1.4h5.9v-1.6l1.9,0.1c0,0.1-0.1,0.2-0.4,0.2v1.3H210.1z M208.3,240.1h-4.2v3.6
		c0,1.4-0.5,1.6-3.5,1.6c-0.1-0.4-0.3-1-0.5-1.4c0.5,0,1.1,0,1.5,0c0.9,0,1,0,1-0.3v-3.6h-4.1v-4.6h9.8V240.1z M199.9,238.9h6.9
		v-2.2h-6.9V238.9z M208.8,244.8c-0.5-0.9-1.7-2.3-2.7-3.3l1.3-0.6c1,1,2.2,2.3,2.8,3.2L208.8,244.8z"/>
	<path class="st5" d="M222.8,235.9c0,1.6,0.1,3,0.2,4.1c0.4-0.9,0.7-1.8,0.9-2.8l1.5,0.4c0,0.1-0.2,0.2-0.4,0.2
		c-0.4,1.6-1,3-1.8,4.3c0.2,1.3,0.5,1.9,0.9,1.9c0.3,0,0.4-0.5,0.5-2.2c0.3,0.3,0.7,0.6,1,0.7c-0.2,2.5-0.6,2.9-1.5,2.9
		c-0.8,0-1.3-0.7-1.7-1.9c-0.6,0.8-1.3,1.4-2,1.9c-0.2-0.2-0.6-0.7-0.9-0.9c0.1-0.1,0.2-0.1,0.3-0.2c-1.1,0.1-2.2,0.2-2.9,0.3
		c0,0.1-0.1,0.2-0.2,0.2l-0.3-1.1c-1.6,0.3-3.2,0.6-4.3,0.8c0,0.1-0.1,0.2-0.2,0.2l-0.4-1.5c0.6-0.1,1.3-0.2,2.1-0.3v-4.1h-1.9v-1.2
		h1.9v-1.4h-1.3V236l-0.1,0.1c-0.2-0.3-0.6-0.8-0.9-0.9c1.2-1.2,2-2.7,2.4-3.9l1.6,0.2c0,0.1-0.1,0.2-0.3,0.2c0.7,0.6,1.6,1.4,2,1.9
		l-0.8,1.1c-0.4-0.5-1.1-1.2-1.7-1.8c-0.3,0.7-0.8,1.5-1.3,2.2h3v1.2h-1.3v1.4h1.7v1.2h-1.7v3.9l1.7-0.3l0,1c0.6,0,1.2-0.1,1.9-0.1
		v-0.9h-1.5v-0.9h1.5v-0.7h-1.7v-0.9h4.6v0.9h-1.7v0.7h1.5v0.9h-1.5v0.8l1.4-0.1c0.4-0.4,0.8-0.9,1.1-1.4c-0.3-1.5-0.4-3.5-0.5-5.9
		h-5.3v-1.1h2.1v-1.1h-1.5v-1.1h1.5v-1.3l1.6,0.1c0,0.1-0.1,0.2-0.3,0.2v1h1.5v1.1h-1.5v1.1h1.9l0-3.5l1.7,0.1
		c0,0.1-0.1,0.2-0.4,0.3c0,1.1,0,2.2,0,3.2h2.6v1.1H222.8z M212.2,242.3c0-0.7-0.3-1.8-0.5-2.7l0.9-0.2c0.3,0.8,0.5,1.9,0.6,2.6
		L212.2,242.3z M216.6,239.7c0,0.1-0.2,0.1-0.3,0.1c-0.2,0.7-0.5,1.7-0.8,2.3c0,0-0.8-0.3-0.8-0.3c0.2-0.7,0.5-1.8,0.7-2.6
		L216.6,239.7z M216.8,236.5h4.3v2.8h-4.3V236.5z M220,237.4h-2.1v1h2.1V237.4z M224.1,231.6c0.5,0.7,1.1,1.7,1.3,2.3l-1.1,0.5
		c-0.2-0.6-0.7-1.7-1.2-2.4L224.1,231.6z"/>
	<path class="st5" d="M229.5,240.4l1.6-0.6l0.2,1.2c-1.5,0.6-3.2,1.3-4.2,1.7c0,0.1-0.1,0.2-0.2,0.3l-0.7-1.6
		c0.5-0.2,1.2-0.4,1.9-0.6v-4.6h-1.6v-1.3h1.6v-3.5l1.7,0.1c0,0.1-0.1,0.2-0.3,0.2v3.2h1.5v1.3h-1.5V240.4z M233.3,238.2
		c-0.7,0.6-1.6,1.2-2.4,1.6c-0.2-0.3-0.4-0.9-0.7-1.2c1.9-0.9,3.7-2.5,4.5-4l1.7,0.1c0,0.1-0.1,0.2-0.3,0.2c1,1.3,2.8,2.7,4.5,3.3
		c-0.3,0.3-0.6,0.9-0.8,1.3c-0.7-0.3-1.5-0.8-2.2-1.4v1h-4.4V238.2z M232.8,235.4V234h-2.1v-1.2h2.1v-1.5l1.6,0.1
		c0,0.1-0.1,0.2-0.3,0.2v1.2h2.8v-1.5l1.7,0.1c0,0.1-0.1,0.2-0.3,0.2v1.2h2.2v1.2h-2.2v1.4h-1.3V234h-2.8v1.4H232.8z M232,245.3
		v-5.1h7v5.1h-1.4v-0.5h-4.3v0.5H232z M237.6,241.4h-4.3v2.2h4.3V241.4z M237.5,238c-0.8-0.6-1.5-1.4-2.1-2.1
		c-0.4,0.7-1.1,1.4-1.9,2.1H237.5z"/>
	<path class="st5" d="M253.6,232.7l0.9,0.4c0,0.1-0.1,0.1-0.2,0.2c-0.5,1.5-1.2,2.8-2.1,3.9c0.9,0.8,2,1.5,3.3,2
		c-0.3,0.3-0.7,0.8-0.9,1.2c-0.1,0-0.2-0.1-0.3-0.1v5H253v-0.5h-3.4v0.6h-1.3v-4.9c-0.2,0.1-0.4,0.2-0.6,0.3
		c-0.1-0.2-0.3-0.5-0.5-0.7h-1.8v2.5l2.2-0.5l0.1,1.2c-2.1,0.6-4.3,1.1-5.7,1.4c0,0.1-0.1,0.2-0.2,0.2l-0.6-1.5l0.8-0.1V238l1.5,0.1
		c0,0.1-0.1,0.2-0.3,0.2v4.6l0.9-0.2v-6h-2v-4.8h5.1v3.9c1.1-1.1,2.1-2.8,2.7-4.5l1.6,0.5c0,0.1-0.2,0.2-0.4,0.1
		c-0.1,0.3-0.2,0.6-0.3,0.9h2.7L253.6,232.7z M243.3,235.5h2.5v-2.4h-2.5V235.5z M247.4,238.7v0.6c1.1-0.5,2.2-1.2,3.1-2.2
		c-0.5-0.6-0.9-1.2-1.2-1.8c-0.4,0.6-0.9,1.1-1.3,1.5c-0.2-0.2-0.5-0.5-0.8-0.8v0.6h-1.7v2H247.4z M253.5,239.8
		c-0.8-0.5-1.5-1-2.1-1.6c-0.6,0.6-1.3,1.2-2.1,1.6H253.5z M249.6,243.5h3.4V241h-3.4V243.5z M250,234.2c0.4,0.7,0.8,1.4,1.4,2.1
		c0.5-0.7,1-1.4,1.3-2.2h-2.6L250,234.2z"/>
	<path class="st5" d="M56.5,296.5c-0.1,0.1-0.2,0.2-0.4,0.2c-0.9,2.2-2.4,4.6-3.8,6.1c-0.3-0.3-0.9-0.8-1.3-1
		c1.4-1.3,2.8-3.7,3.7-5.9L56.5,296.5z M58.6,292.5h6.1v1.5H51.1v-1.5h5.9v-3.5L59,289c0,0.1-0.1,0.2-0.4,0.3V292.5z M63,302.8
		c-0.6-1.6-2.1-4.3-3.6-6.3l1.4-0.6c1.4,1.9,3,4.5,3.7,6.2L63,302.8z"/>
	<path class="st5" d="M79.5,293.4h-5c1.2,2.5,3.3,4.7,5.6,5.9c-0.3,0.3-0.8,0.9-1.1,1.3c-2.2-1.2-4.1-3.4-5.4-5.9v4.1h2.7v1.4h-2.7
		v2.7h-1.5v-2.7h-2.8v-1.4h2.8v-4.1c-1.3,2.5-3.2,4.6-5.4,5.9c-0.2-0.4-0.7-0.9-1-1.2c2.2-1.2,4.3-3.5,5.5-6h-5V292h5.9v-3.1L74,289
		c0,0.1-0.1,0.2-0.4,0.3v2.7h5.9V293.4z"/>
	<path class="st5" d="M94.5,293.9h-5.3c1.3,2.5,3.6,4.9,5.8,6.1c-0.3,0.3-0.8,0.9-1.1,1.2c-2-1.3-3.9-3.5-5.3-5.8v7.4h-1.5v-7.3
		c-1.4,2.4-3.3,4.5-5.3,5.8c-0.3-0.3-0.7-0.9-1.1-1.2c2.3-1.2,4.5-3.7,5.8-6.2h-5.2v-1.4h5.8v-3.6L89,289c0,0.1-0.1,0.2-0.4,0.3v3.3
		h5.9V293.9z"/>
	<path class="st2" d="M296,256h21.6l1.2-12.6h-5.6c-1.4-9-2.1-18.4-2.9-29l-7.2,0c-0.8,10.6-1.5,20-2.8,29h-5.6L296,256z"/>
	<polygon class="st2" points="311.4,214 311.4,209.7 310.4,209.7 310.4,209 303.1,209 303.1,209.8 302.1,209.8 302.1,214 	"/>
	<rect x="302.2" y="198.5" class="st2" width="9.3" height="9.9"/>
	<polygon class="st2" points="308.9,188.1 308.3,188.1 308.3,178.7 307.3,178.7 307.2,165 306.3,165 306.3,178.7 305.2,178.7 
		305.2,188.1 304.6,188.1 304.6,197.5 308.9,197.5 	"/>
	<path class="st2" d="M315.7,260.2v-2.7h-17.8v2.6h0c-3.3,14.6-7.7,27.3-19.1,45h9.6c3.2-5.7,7-12.4,14-14.3
		c1.3-0.3,2.8-0.6,4.4-0.6c1.6,0,3.1,0.2,4.4,0.6c7,1.9,10.7,8.4,13.9,14.3l9.8,0C323.5,287.5,319,274.7,315.7,260.2"/>
</g>
</svg>
